G04 EAGLE Gerber RS-274X export*
G75*
%MOMM*%
%FSLAX34Y34*%
%LPD*%
%INBottom Copper*%
%IPPOS*%
%AMOC8*
5,1,8,0,0,1.08239X$1,22.5*%
G01*
G04 Define Apertures*
%ADD10P,2.36437X8X22.5*%
%ADD11R,1.650000X1.650000*%
%ADD12C,1.650000*%
%ADD13C,4.950000*%
%ADD14C,0.756400*%
%ADD15C,0.406400*%
%ADD16C,0.254000*%
%ADD17C,0.606400*%
%ADD18R,0.756400X0.756400*%
%ADD19R,0.606400X0.606400*%
G36*
X71698Y11023D02*
X71202Y10922D01*
X12192Y10922D01*
X11734Y11007D01*
X11308Y11280D01*
X11023Y11697D01*
X10922Y12192D01*
X10922Y31289D01*
X11000Y31728D01*
X11266Y32158D01*
X11678Y32451D01*
X12172Y32559D01*
X12669Y32467D01*
X13090Y32187D01*
X14463Y30814D01*
X18056Y29326D01*
X21944Y29326D01*
X25537Y30814D01*
X28286Y33563D01*
X29774Y37156D01*
X29774Y41044D01*
X28286Y44637D01*
X25537Y47386D01*
X21944Y48874D01*
X18056Y48874D01*
X14463Y47386D01*
X13090Y46013D01*
X12724Y45758D01*
X12232Y45641D01*
X11734Y45726D01*
X11308Y45998D01*
X11023Y46415D01*
X10922Y46911D01*
X10922Y56689D01*
X11000Y57128D01*
X11266Y57558D01*
X11678Y57851D01*
X12172Y57959D01*
X12669Y57867D01*
X13090Y57587D01*
X14463Y56214D01*
X18056Y54726D01*
X21944Y54726D01*
X25537Y56214D01*
X28286Y58963D01*
X29774Y62556D01*
X29774Y66444D01*
X28286Y70037D01*
X25537Y72786D01*
X21944Y74274D01*
X18056Y74274D01*
X14463Y72786D01*
X13090Y71413D01*
X12724Y71158D01*
X12232Y71041D01*
X11734Y71126D01*
X11308Y71398D01*
X11023Y71815D01*
X10922Y72311D01*
X10922Y82089D01*
X11000Y82528D01*
X11266Y82958D01*
X11678Y83251D01*
X12172Y83359D01*
X12669Y83267D01*
X13090Y82987D01*
X14463Y81614D01*
X18056Y80126D01*
X21944Y80126D01*
X25537Y81614D01*
X28286Y84363D01*
X29774Y87956D01*
X29774Y91844D01*
X28286Y95437D01*
X25537Y98186D01*
X21944Y99674D01*
X18056Y99674D01*
X14463Y98186D01*
X13090Y96813D01*
X12724Y96558D01*
X12232Y96441D01*
X11734Y96526D01*
X11308Y96798D01*
X11023Y97215D01*
X10922Y97711D01*
X10922Y107489D01*
X11000Y107928D01*
X11266Y108358D01*
X11678Y108651D01*
X12172Y108759D01*
X12669Y108667D01*
X13090Y108387D01*
X14463Y107014D01*
X18056Y105526D01*
X21944Y105526D01*
X25537Y107014D01*
X28286Y109763D01*
X29318Y112255D01*
X29565Y112638D01*
X29978Y112931D01*
X30471Y113039D01*
X30968Y112946D01*
X31390Y112667D01*
X33113Y110944D01*
X36887Y110944D01*
X39538Y113595D01*
X39904Y113850D01*
X40396Y113966D01*
X40894Y113881D01*
X41320Y113609D01*
X41605Y113192D01*
X41706Y112697D01*
X41706Y98683D01*
X41613Y98207D01*
X41334Y97785D01*
X37977Y94428D01*
X37574Y94157D01*
X37079Y94056D01*
X35113Y94056D01*
X32444Y91387D01*
X32444Y87613D01*
X35113Y84944D01*
X38887Y84944D01*
X41556Y87613D01*
X41556Y89579D01*
X41649Y90055D01*
X41928Y90477D01*
X46102Y94651D01*
X46486Y94914D01*
X46980Y95022D01*
X47477Y94930D01*
X47898Y94651D01*
X60843Y81706D01*
X127764Y81706D01*
X128241Y81613D01*
X128662Y81334D01*
X129994Y80002D01*
X131945Y79194D01*
X134056Y79194D01*
X136006Y80002D01*
X137498Y81494D01*
X138306Y83445D01*
X138306Y85556D01*
X137498Y87506D01*
X136006Y88998D01*
X134056Y89806D01*
X131945Y89806D01*
X129994Y88998D01*
X128662Y87666D01*
X128259Y87395D01*
X127764Y87294D01*
X63683Y87294D01*
X63207Y87387D01*
X62785Y87666D01*
X52666Y97785D01*
X52395Y98188D01*
X52294Y98683D01*
X52294Y206697D01*
X52372Y207136D01*
X52638Y207566D01*
X53050Y207858D01*
X53544Y207967D01*
X54041Y207874D01*
X54462Y207595D01*
X54613Y207444D01*
X58387Y207444D01*
X59777Y208834D01*
X60180Y209105D01*
X60675Y209206D01*
X70825Y209206D01*
X71301Y209113D01*
X71723Y208834D01*
X72113Y208444D01*
X75936Y208444D01*
X76394Y208359D01*
X76820Y208086D01*
X77105Y207669D01*
X77206Y207174D01*
X77206Y176343D01*
X81343Y172206D01*
X81825Y172206D01*
X82301Y172113D01*
X82723Y171834D01*
X84113Y170444D01*
X87887Y170444D01*
X90556Y173113D01*
X90556Y176887D01*
X87887Y179556D01*
X84064Y179556D01*
X83606Y179641D01*
X83180Y179914D01*
X82895Y180331D01*
X82794Y180826D01*
X82794Y311317D01*
X82887Y311793D01*
X83166Y312215D01*
X85023Y314072D01*
X85426Y314343D01*
X85921Y314444D01*
X87935Y314444D01*
X88142Y314588D01*
X88634Y314704D01*
X89132Y314619D01*
X89558Y314347D01*
X89843Y313930D01*
X89944Y313435D01*
X89944Y303474D01*
X89851Y302997D01*
X89572Y302576D01*
X89002Y302006D01*
X88194Y300056D01*
X88194Y297945D01*
X89002Y295994D01*
X90494Y294502D01*
X92445Y293694D01*
X94556Y293694D01*
X96506Y294502D01*
X97998Y295994D01*
X98806Y297945D01*
X98806Y300056D01*
X97998Y302006D01*
X97428Y302576D01*
X97157Y302979D01*
X97056Y303474D01*
X97056Y344973D01*
X93428Y348601D01*
X93157Y349004D01*
X93056Y349499D01*
X93056Y386717D01*
X93121Y387118D01*
X93339Y387773D01*
X93202Y388048D01*
X93068Y388606D01*
X93164Y389102D01*
X93306Y389445D01*
X93306Y391556D01*
X92498Y393506D01*
X91006Y394998D01*
X89056Y395806D01*
X86945Y395806D01*
X84994Y394998D01*
X83502Y393506D01*
X82694Y391556D01*
X82694Y389445D01*
X83502Y387494D01*
X84994Y386002D01*
X85160Y385933D01*
X85558Y385672D01*
X85843Y385255D01*
X85944Y384760D01*
X85944Y346027D01*
X89572Y342399D01*
X89843Y341996D01*
X89944Y341501D01*
X89944Y324565D01*
X89866Y324126D01*
X89600Y323696D01*
X89188Y323404D01*
X88694Y323295D01*
X88197Y323388D01*
X87944Y323556D01*
X84113Y323556D01*
X81444Y320887D01*
X81444Y318921D01*
X81351Y318445D01*
X81072Y318023D01*
X77206Y314157D01*
X77206Y313326D01*
X77121Y312868D01*
X76848Y312442D01*
X76431Y312157D01*
X75936Y312056D01*
X72113Y312056D01*
X69444Y309387D01*
X69444Y307326D01*
X69359Y306868D01*
X69086Y306442D01*
X68669Y306157D01*
X68174Y306056D01*
X67921Y306056D01*
X67445Y306149D01*
X67023Y306428D01*
X55157Y318294D01*
X49343Y318294D01*
X40462Y309413D01*
X40096Y309158D01*
X39604Y309042D01*
X39106Y309127D01*
X38680Y309399D01*
X38395Y309816D01*
X38294Y310311D01*
X38294Y313674D01*
X38379Y314132D01*
X38652Y314558D01*
X39069Y314843D01*
X39564Y314944D01*
X40887Y314944D01*
X43556Y317613D01*
X43556Y321387D01*
X40887Y324056D01*
X37113Y324056D01*
X34444Y321387D01*
X34444Y319421D01*
X34351Y318945D01*
X34072Y318523D01*
X32706Y317157D01*
X32706Y146326D01*
X32621Y145868D01*
X32348Y145442D01*
X31931Y145157D01*
X31436Y145056D01*
X30593Y145056D01*
X30282Y144841D01*
X29790Y144729D01*
X29292Y144818D01*
X28868Y145093D01*
X28586Y145512D01*
X28286Y146237D01*
X25537Y148986D01*
X21944Y150474D01*
X18056Y150474D01*
X14463Y148986D01*
X13090Y147613D01*
X12724Y147358D01*
X12232Y147241D01*
X11734Y147326D01*
X11308Y147598D01*
X11023Y148015D01*
X10922Y148511D01*
X10922Y183689D01*
X11000Y184128D01*
X11266Y184558D01*
X11678Y184851D01*
X12172Y184959D01*
X12669Y184867D01*
X13090Y184587D01*
X14463Y183214D01*
X18056Y181726D01*
X21944Y181726D01*
X25537Y183214D01*
X28286Y185963D01*
X29774Y189556D01*
X29774Y193444D01*
X28286Y197037D01*
X25537Y199786D01*
X21944Y201274D01*
X18056Y201274D01*
X14463Y199786D01*
X13090Y198413D01*
X12724Y198158D01*
X12232Y198041D01*
X11734Y198126D01*
X11308Y198398D01*
X11023Y198815D01*
X10922Y199311D01*
X10922Y209089D01*
X11000Y209528D01*
X11266Y209958D01*
X11678Y210251D01*
X12172Y210359D01*
X12669Y210267D01*
X13090Y209987D01*
X14463Y208614D01*
X18056Y207126D01*
X21944Y207126D01*
X25537Y208614D01*
X28286Y211363D01*
X29774Y214956D01*
X29774Y218844D01*
X28286Y222437D01*
X25537Y225186D01*
X21944Y226674D01*
X18056Y226674D01*
X14463Y225186D01*
X13090Y223813D01*
X12724Y223558D01*
X12232Y223441D01*
X11734Y223526D01*
X11308Y223798D01*
X11023Y224215D01*
X10922Y224711D01*
X10922Y259889D01*
X11000Y260328D01*
X11266Y260758D01*
X11678Y261051D01*
X12172Y261159D01*
X12669Y261067D01*
X13090Y260787D01*
X14463Y259414D01*
X18056Y257926D01*
X21944Y257926D01*
X25537Y259414D01*
X28286Y262163D01*
X29774Y265756D01*
X29774Y269644D01*
X28286Y273237D01*
X25537Y275986D01*
X21944Y277474D01*
X18056Y277474D01*
X14463Y275986D01*
X13090Y274613D01*
X12724Y274358D01*
X12232Y274241D01*
X11734Y274326D01*
X11308Y274598D01*
X11023Y275015D01*
X10922Y275511D01*
X10922Y310689D01*
X11000Y311128D01*
X11266Y311558D01*
X11678Y311851D01*
X12172Y311959D01*
X12669Y311867D01*
X13090Y311587D01*
X14463Y310214D01*
X18056Y308726D01*
X21944Y308726D01*
X25537Y310214D01*
X28286Y312963D01*
X29774Y316556D01*
X29774Y320444D01*
X28286Y324037D01*
X25537Y326786D01*
X21944Y328274D01*
X18056Y328274D01*
X14463Y326786D01*
X13090Y325413D01*
X12724Y325158D01*
X12232Y325041D01*
X11734Y325126D01*
X11308Y325398D01*
X11023Y325815D01*
X10922Y326311D01*
X10922Y336089D01*
X11000Y336528D01*
X11266Y336958D01*
X11678Y337251D01*
X12172Y337359D01*
X12669Y337267D01*
X13090Y336987D01*
X14463Y335614D01*
X18056Y334126D01*
X21944Y334126D01*
X25537Y335614D01*
X28286Y338363D01*
X29774Y341956D01*
X29774Y345844D01*
X28286Y349437D01*
X25537Y352186D01*
X21944Y353674D01*
X18056Y353674D01*
X14463Y352186D01*
X13090Y350813D01*
X12724Y350558D01*
X12232Y350441D01*
X11734Y350526D01*
X11308Y350798D01*
X11023Y351215D01*
X10922Y351711D01*
X10922Y386889D01*
X11000Y387328D01*
X11266Y387758D01*
X11678Y388051D01*
X12172Y388159D01*
X12669Y388067D01*
X13090Y387787D01*
X14463Y386414D01*
X18056Y384926D01*
X21944Y384926D01*
X25537Y386414D01*
X28286Y389163D01*
X29774Y392756D01*
X29774Y396644D01*
X28286Y400237D01*
X25537Y402986D01*
X21944Y404474D01*
X18056Y404474D01*
X14463Y402986D01*
X13090Y401613D01*
X12724Y401358D01*
X12232Y401241D01*
X11734Y401326D01*
X11308Y401598D01*
X11023Y402015D01*
X10922Y402511D01*
X10922Y412289D01*
X11000Y412728D01*
X11266Y413158D01*
X11678Y413451D01*
X12172Y413559D01*
X12669Y413467D01*
X13090Y413187D01*
X14463Y411814D01*
X18056Y410326D01*
X21944Y410326D01*
X25537Y411814D01*
X28286Y414563D01*
X29774Y418156D01*
X29774Y422044D01*
X28286Y425637D01*
X25537Y428386D01*
X21944Y429874D01*
X18056Y429874D01*
X14463Y428386D01*
X13090Y427013D01*
X12724Y426758D01*
X12232Y426641D01*
X11734Y426726D01*
X11308Y426998D01*
X11023Y427415D01*
X10922Y427911D01*
X10922Y463089D01*
X11000Y463528D01*
X11266Y463958D01*
X11678Y464251D01*
X12172Y464359D01*
X12669Y464267D01*
X13090Y463987D01*
X14463Y462614D01*
X18056Y461126D01*
X21944Y461126D01*
X25537Y462614D01*
X28286Y465363D01*
X29774Y468956D01*
X29774Y472844D01*
X28286Y476437D01*
X25537Y479186D01*
X21944Y480674D01*
X18056Y480674D01*
X14463Y479186D01*
X13090Y477813D01*
X12724Y477558D01*
X12232Y477441D01*
X11734Y477526D01*
X11308Y477798D01*
X11023Y478215D01*
X10922Y478711D01*
X10922Y485256D01*
X11007Y485714D01*
X11280Y486140D01*
X11697Y486425D01*
X12192Y486526D01*
X28881Y486526D01*
X29774Y487419D01*
X29774Y496408D01*
X29859Y496866D01*
X30132Y497292D01*
X30549Y497577D01*
X31044Y497678D01*
X72126Y497678D01*
X72726Y497528D01*
X73115Y497205D01*
X73347Y496756D01*
X73386Y496252D01*
X73226Y495773D01*
X71339Y492504D01*
X69590Y485978D01*
X69590Y479222D01*
X71339Y472696D01*
X74717Y466844D01*
X79494Y462067D01*
X85346Y458689D01*
X91872Y456940D01*
X98628Y456940D01*
X105154Y458689D01*
X111006Y462067D01*
X115783Y466844D01*
X119161Y472696D01*
X120910Y479222D01*
X120910Y485978D01*
X119161Y492504D01*
X117274Y495773D01*
X117105Y496368D01*
X117189Y496866D01*
X117462Y497292D01*
X117879Y497577D01*
X118374Y497678D01*
X339230Y497678D01*
X339688Y497593D01*
X340114Y497320D01*
X340399Y496903D01*
X340500Y496408D01*
X340500Y422030D01*
X340407Y421553D01*
X340128Y421132D01*
X340002Y421006D01*
X339194Y419056D01*
X339194Y416945D01*
X340002Y414994D01*
X340128Y414868D01*
X340399Y414465D01*
X340500Y413970D01*
X340500Y397530D01*
X340407Y397053D01*
X340128Y396632D01*
X340002Y396506D01*
X339194Y394556D01*
X339194Y392445D01*
X340002Y390494D01*
X340128Y390368D01*
X340399Y389965D01*
X340500Y389470D01*
X340500Y376600D01*
X340515Y376508D01*
X340580Y376500D01*
X349436Y376500D01*
X349894Y376415D01*
X350320Y376142D01*
X350605Y375725D01*
X350706Y375230D01*
X350706Y373183D01*
X350613Y372707D01*
X350334Y372285D01*
X339715Y361666D01*
X339312Y361395D01*
X338817Y361294D01*
X179183Y361294D01*
X178707Y361387D01*
X178285Y361666D01*
X171157Y368794D01*
X165736Y368794D01*
X165259Y368887D01*
X164838Y369166D01*
X163506Y370498D01*
X161556Y371306D01*
X159445Y371306D01*
X157494Y370498D01*
X156002Y369006D01*
X155194Y367056D01*
X155194Y364945D01*
X156002Y362994D01*
X157494Y361502D01*
X159445Y360694D01*
X161556Y360694D01*
X163506Y361502D01*
X164838Y362834D01*
X165241Y363105D01*
X165736Y363206D01*
X168317Y363206D01*
X168793Y363113D01*
X169215Y362834D01*
X172075Y359974D01*
X172330Y359608D01*
X172446Y359116D01*
X172361Y358618D01*
X172089Y358192D01*
X171672Y357907D01*
X171177Y357806D01*
X168945Y357806D01*
X166994Y356998D01*
X165502Y355506D01*
X164694Y353556D01*
X164694Y351445D01*
X165502Y349494D01*
X166994Y348002D01*
X168945Y347194D01*
X170829Y347194D01*
X171305Y347101D01*
X171727Y346822D01*
X175334Y343215D01*
X175605Y342812D01*
X175706Y342317D01*
X175706Y251683D01*
X175613Y251207D01*
X175334Y250785D01*
X164206Y239657D01*
X164206Y155843D01*
X169343Y150706D01*
X311817Y150706D01*
X312293Y150613D01*
X312715Y150334D01*
X333334Y129715D01*
X333605Y129312D01*
X333706Y128817D01*
X333706Y125311D01*
X333628Y124873D01*
X333362Y124442D01*
X332950Y124150D01*
X332456Y124042D01*
X331959Y124134D01*
X331538Y124413D01*
X327928Y128023D01*
X327657Y128426D01*
X327556Y128921D01*
X327556Y130887D01*
X324887Y133556D01*
X321113Y133556D01*
X318444Y130887D01*
X318444Y127113D01*
X321113Y124444D01*
X323079Y124444D01*
X323555Y124351D01*
X323977Y124072D01*
X327834Y120215D01*
X328105Y119812D01*
X328206Y119317D01*
X328206Y93864D01*
X328128Y93425D01*
X327862Y92995D01*
X327450Y92703D01*
X326956Y92594D01*
X326459Y92687D01*
X326038Y92966D01*
X326006Y92998D01*
X324056Y93806D01*
X321945Y93806D01*
X319994Y92998D01*
X318502Y91506D01*
X317694Y89556D01*
X317694Y87445D01*
X318502Y85494D01*
X319834Y84162D01*
X320105Y83759D01*
X320206Y83264D01*
X320206Y43864D01*
X320128Y43425D01*
X319862Y42995D01*
X319450Y42703D01*
X318956Y42594D01*
X318459Y42687D01*
X318038Y42966D01*
X316666Y44338D01*
X316395Y44741D01*
X316294Y45236D01*
X316294Y72657D01*
X289678Y99273D01*
X289407Y99676D01*
X289306Y100171D01*
X289306Y102056D01*
X288498Y104006D01*
X287006Y105498D01*
X285056Y106306D01*
X282945Y106306D01*
X280994Y105498D01*
X279502Y104006D01*
X278694Y102056D01*
X278694Y99945D01*
X279502Y97994D01*
X280994Y96502D01*
X282945Y95694D01*
X284829Y95694D01*
X285305Y95601D01*
X285727Y95322D01*
X310334Y70715D01*
X310605Y70312D01*
X310706Y69817D01*
X310706Y45236D01*
X310613Y44759D01*
X310334Y44338D01*
X309002Y43006D01*
X308194Y41056D01*
X308194Y38945D01*
X309002Y36994D01*
X310494Y35502D01*
X312445Y34694D01*
X314556Y34694D01*
X316506Y35502D01*
X318038Y37034D01*
X318404Y37289D01*
X318896Y37405D01*
X319394Y37321D01*
X319820Y37048D01*
X320105Y36631D01*
X320206Y36136D01*
X320206Y33736D01*
X320113Y33259D01*
X319834Y32838D01*
X319002Y32006D01*
X318194Y30056D01*
X318194Y27945D01*
X318979Y26050D01*
X319075Y25604D01*
X318990Y25106D01*
X318718Y24680D01*
X318301Y24395D01*
X317805Y24294D01*
X278183Y24294D01*
X277707Y24387D01*
X277285Y24666D01*
X277178Y24773D01*
X276907Y25176D01*
X276806Y25671D01*
X276806Y27556D01*
X275998Y29506D01*
X274506Y30998D01*
X272556Y31806D01*
X270445Y31806D01*
X268494Y30998D01*
X267002Y29506D01*
X266194Y27556D01*
X266194Y25445D01*
X267002Y23494D01*
X268494Y22002D01*
X270445Y21194D01*
X272329Y21194D01*
X272805Y21101D01*
X273227Y20822D01*
X275343Y18706D01*
X336657Y18706D01*
X345294Y27343D01*
X345294Y61764D01*
X345387Y62241D01*
X345666Y62662D01*
X346998Y63994D01*
X347557Y65343D01*
X347790Y65711D01*
X348198Y66010D01*
X348690Y66126D01*
X349188Y66041D01*
X349614Y65769D01*
X349899Y65352D01*
X350000Y64857D01*
X350000Y12192D01*
X349915Y11734D01*
X349642Y11308D01*
X349225Y11023D01*
X348730Y10922D01*
X200248Y10922D01*
X199799Y11004D01*
X199371Y11273D01*
X199082Y11687D01*
X198978Y12182D01*
X199074Y12678D01*
X199806Y14445D01*
X199806Y16556D01*
X198998Y18506D01*
X197666Y19838D01*
X197395Y20241D01*
X197294Y20736D01*
X197294Y105657D01*
X196678Y106273D01*
X196407Y106676D01*
X196306Y107171D01*
X196306Y109056D01*
X195498Y111006D01*
X194006Y112498D01*
X192056Y113306D01*
X189945Y113306D01*
X187994Y112498D01*
X186502Y111006D01*
X185694Y109056D01*
X185694Y106945D01*
X186502Y104994D01*
X187994Y103502D01*
X189945Y102694D01*
X190436Y102694D01*
X190894Y102609D01*
X191320Y102336D01*
X191605Y101919D01*
X191706Y101424D01*
X191706Y20736D01*
X191613Y20259D01*
X191334Y19838D01*
X190002Y18506D01*
X189194Y16556D01*
X189194Y14445D01*
X189926Y12678D01*
X190022Y12232D01*
X189937Y11734D01*
X189665Y11308D01*
X189248Y11023D01*
X188752Y10922D01*
X119298Y10922D01*
X118698Y11072D01*
X118309Y11395D01*
X118076Y11844D01*
X118037Y12348D01*
X118198Y12827D01*
X119627Y15303D01*
X121410Y21956D01*
X121410Y28844D01*
X119627Y35497D01*
X116183Y41463D01*
X111313Y46333D01*
X105347Y49777D01*
X98694Y51560D01*
X91806Y51560D01*
X85153Y49777D01*
X79187Y46333D01*
X74317Y41463D01*
X70873Y35497D01*
X69090Y28844D01*
X69090Y21956D01*
X70873Y15303D01*
X72302Y12827D01*
X72472Y12232D01*
X72387Y11734D01*
X72114Y11308D01*
X71698Y11023D01*
G37*
%LPC*%
G36*
X226945Y390194D02*
X229056Y390194D01*
X231006Y391002D01*
X232498Y392494D01*
X233306Y394445D01*
X233306Y396556D01*
X232498Y398506D01*
X231166Y399838D01*
X230895Y400241D01*
X230794Y400736D01*
X230794Y469151D01*
X230883Y469619D01*
X231159Y470042D01*
X231578Y470325D01*
X232006Y470502D01*
X233498Y471994D01*
X234306Y473945D01*
X234306Y476056D01*
X233498Y478006D01*
X232006Y479498D01*
X230056Y480306D01*
X227945Y480306D01*
X225994Y479498D01*
X224502Y478006D01*
X223694Y476056D01*
X223694Y473945D01*
X224502Y471994D01*
X224834Y471662D01*
X225105Y471259D01*
X225206Y470764D01*
X225206Y400736D01*
X225113Y400259D01*
X224834Y399838D01*
X223502Y398506D01*
X222694Y396556D01*
X222694Y394445D01*
X223502Y392494D01*
X224994Y391002D01*
X226945Y390194D01*
G37*
G36*
X212343Y372206D02*
X307157Y372206D01*
X326794Y391843D01*
X326794Y420764D01*
X326887Y421241D01*
X327166Y421662D01*
X328498Y422994D01*
X329306Y424945D01*
X329306Y427056D01*
X328498Y429006D01*
X327006Y430498D01*
X325056Y431306D01*
X322945Y431306D01*
X320994Y430498D01*
X319502Y429006D01*
X318694Y427056D01*
X318694Y424945D01*
X319502Y422994D01*
X320834Y421662D01*
X321105Y421259D01*
X321206Y420764D01*
X321206Y394683D01*
X321113Y394207D01*
X320834Y393785D01*
X305215Y378166D01*
X304812Y377895D01*
X304317Y377794D01*
X215183Y377794D01*
X214707Y377887D01*
X214285Y378166D01*
X205849Y386602D01*
X205586Y386986D01*
X205478Y387480D01*
X205570Y387977D01*
X205849Y388398D01*
X210794Y393343D01*
X210794Y467157D01*
X205678Y472273D01*
X205407Y472676D01*
X205306Y473171D01*
X205306Y475056D01*
X204498Y477006D01*
X203006Y478498D01*
X201056Y479306D01*
X198945Y479306D01*
X196994Y478498D01*
X195502Y477006D01*
X194694Y475056D01*
X194694Y472945D01*
X195502Y470994D01*
X196994Y469502D01*
X198945Y468694D01*
X200829Y468694D01*
X201305Y468601D01*
X201727Y468322D01*
X204834Y465215D01*
X205105Y464812D01*
X205206Y464317D01*
X205206Y396183D01*
X205113Y395707D01*
X204834Y395285D01*
X199227Y389678D01*
X198824Y389407D01*
X198329Y389306D01*
X196445Y389306D01*
X194494Y388498D01*
X193002Y387006D01*
X192194Y385056D01*
X192194Y382945D01*
X193002Y380994D01*
X194494Y379502D01*
X196445Y378694D01*
X198556Y378694D01*
X200506Y379502D01*
X201838Y380834D01*
X202241Y381105D01*
X202736Y381206D01*
X202817Y381206D01*
X203293Y381113D01*
X203715Y380834D01*
X212343Y372206D01*
G37*
G36*
X116945Y177194D02*
X119056Y177194D01*
X121006Y178002D01*
X122498Y179494D01*
X123306Y181445D01*
X123306Y183329D01*
X123399Y183805D01*
X123678Y184227D01*
X136294Y196843D01*
X136294Y231764D01*
X136387Y232241D01*
X136666Y232662D01*
X137998Y233994D01*
X138806Y235945D01*
X138806Y238056D01*
X137998Y240006D01*
X136666Y241338D01*
X136395Y241741D01*
X136294Y242236D01*
X136294Y291647D01*
X136369Y292076D01*
X136631Y292508D01*
X137041Y292804D01*
X137534Y292916D01*
X138031Y292828D01*
X138455Y292552D01*
X138737Y292133D01*
X139002Y291494D01*
X140494Y290002D01*
X142445Y289194D01*
X144556Y289194D01*
X146506Y290002D01*
X147998Y291494D01*
X148605Y292960D01*
X148852Y293343D01*
X149265Y293635D01*
X149758Y293744D01*
X150255Y293651D01*
X150677Y293372D01*
X166334Y277715D01*
X166605Y277312D01*
X166706Y276817D01*
X166706Y258183D01*
X166613Y257707D01*
X166334Y257285D01*
X162227Y253178D01*
X161824Y252907D01*
X161329Y252806D01*
X159445Y252806D01*
X157494Y251998D01*
X156002Y250506D01*
X155194Y248556D01*
X155194Y246445D01*
X156002Y244494D01*
X157494Y243002D01*
X159445Y242194D01*
X161556Y242194D01*
X163506Y243002D01*
X164998Y244494D01*
X165806Y246445D01*
X165806Y248329D01*
X165899Y248805D01*
X166178Y249227D01*
X172294Y255343D01*
X172294Y279657D01*
X152157Y299794D01*
X144837Y299794D01*
X144777Y299806D01*
X142445Y299806D01*
X140494Y298998D01*
X139002Y297506D01*
X138737Y296867D01*
X138504Y296499D01*
X138096Y296200D01*
X137604Y296084D01*
X137106Y296169D01*
X136680Y296441D01*
X136395Y296858D01*
X136294Y297353D01*
X136294Y362317D01*
X136387Y362793D01*
X136666Y363215D01*
X139294Y365843D01*
X139294Y418264D01*
X139387Y418741D01*
X139666Y419162D01*
X140998Y420494D01*
X141806Y422445D01*
X141806Y424556D01*
X140998Y426506D01*
X139506Y427998D01*
X137556Y428806D01*
X135445Y428806D01*
X133494Y427998D01*
X131962Y426466D01*
X131596Y426211D01*
X131104Y426095D01*
X130606Y426179D01*
X130180Y426452D01*
X129895Y426869D01*
X129794Y427364D01*
X129794Y442317D01*
X129887Y442793D01*
X130166Y443215D01*
X132773Y445822D01*
X133176Y446093D01*
X133671Y446194D01*
X135556Y446194D01*
X137506Y447002D01*
X138998Y448494D01*
X139806Y450445D01*
X139806Y452556D01*
X138998Y454506D01*
X137506Y455998D01*
X135556Y456806D01*
X133445Y456806D01*
X131494Y455998D01*
X130002Y454506D01*
X129194Y452556D01*
X129194Y450671D01*
X129101Y450195D01*
X128822Y449773D01*
X124206Y445157D01*
X124206Y433364D01*
X124128Y432925D01*
X123862Y432495D01*
X123450Y432203D01*
X122956Y432094D01*
X122459Y432187D01*
X122038Y432466D01*
X122006Y432498D01*
X120056Y433306D01*
X117945Y433306D01*
X115994Y432498D01*
X114502Y431006D01*
X113694Y429056D01*
X113694Y427171D01*
X113601Y426695D01*
X113322Y426273D01*
X109706Y422657D01*
X109706Y381843D01*
X125334Y366215D01*
X125605Y365812D01*
X125706Y365317D01*
X125706Y285263D01*
X125617Y284796D01*
X125341Y284372D01*
X124922Y284090D01*
X123494Y283498D01*
X122002Y282006D01*
X121194Y280056D01*
X121194Y277945D01*
X122002Y275994D01*
X123494Y274502D01*
X125445Y273694D01*
X127556Y273694D01*
X128950Y274272D01*
X129396Y274368D01*
X129894Y274283D01*
X130320Y274011D01*
X130605Y273594D01*
X130706Y273098D01*
X130706Y242236D01*
X130613Y241759D01*
X130334Y241338D01*
X129002Y240006D01*
X128194Y238056D01*
X128194Y235945D01*
X129002Y233994D01*
X130334Y232662D01*
X130605Y232259D01*
X130706Y231764D01*
X130706Y199683D01*
X130613Y199207D01*
X130334Y198785D01*
X119727Y188178D01*
X119324Y187907D01*
X118829Y187806D01*
X116945Y187806D01*
X114994Y186998D01*
X113502Y185506D01*
X112694Y183556D01*
X112694Y181445D01*
X113502Y179494D01*
X114994Y178002D01*
X116945Y177194D01*
G37*
G36*
X286613Y413444D02*
X290387Y413444D01*
X293056Y416113D01*
X293056Y419887D01*
X290387Y422556D01*
X286613Y422556D01*
X285223Y421166D01*
X284820Y420895D01*
X284325Y420794D01*
X249183Y420794D01*
X248707Y420887D01*
X248285Y421166D01*
X246428Y423023D01*
X246157Y423426D01*
X246056Y423921D01*
X246056Y425887D01*
X243387Y428556D01*
X239613Y428556D01*
X236944Y425887D01*
X236944Y422113D01*
X239613Y419444D01*
X241579Y419444D01*
X242055Y419351D01*
X242477Y419072D01*
X246343Y415206D01*
X284325Y415206D01*
X284801Y415113D01*
X285223Y414834D01*
X286613Y413444D01*
G37*
G36*
X70613Y336944D02*
X74387Y336944D01*
X77056Y339613D01*
X77056Y341674D01*
X77141Y342132D01*
X77414Y342558D01*
X77831Y342843D01*
X78326Y342944D01*
X79887Y342944D01*
X82556Y345613D01*
X82556Y349387D01*
X79887Y352056D01*
X78390Y352056D01*
X77932Y352141D01*
X77506Y352414D01*
X77221Y352831D01*
X77120Y353326D01*
X77120Y396882D01*
X77213Y397359D01*
X77294Y397481D01*
X77294Y404825D01*
X77387Y405301D01*
X77666Y405723D01*
X79056Y407113D01*
X79056Y410887D01*
X76387Y413556D01*
X72613Y413556D01*
X69944Y410887D01*
X69944Y407113D01*
X71334Y405723D01*
X71605Y405320D01*
X71706Y404825D01*
X71706Y402326D01*
X71621Y401868D01*
X71348Y401442D01*
X70931Y401157D01*
X70436Y401056D01*
X66613Y401056D01*
X63944Y398387D01*
X63944Y394613D01*
X65334Y393223D01*
X65605Y392820D01*
X65706Y392325D01*
X65706Y344343D01*
X67572Y342477D01*
X67843Y342074D01*
X67944Y341579D01*
X67944Y339613D01*
X70613Y336944D01*
G37*
G36*
X90613Y156444D02*
X94387Y156444D01*
X97056Y159113D01*
X97056Y161079D01*
X97149Y161555D01*
X97428Y161977D01*
X104794Y169343D01*
X104794Y251317D01*
X104887Y251793D01*
X105166Y252215D01*
X113023Y260072D01*
X113426Y260343D01*
X113921Y260444D01*
X116887Y260444D01*
X119556Y263113D01*
X119556Y266887D01*
X116887Y269556D01*
X113113Y269556D01*
X110444Y266887D01*
X110444Y265921D01*
X110351Y265445D01*
X110072Y265023D01*
X99206Y254157D01*
X99206Y172183D01*
X99113Y171707D01*
X98834Y171285D01*
X93477Y165928D01*
X93074Y165657D01*
X92579Y165556D01*
X90613Y165556D01*
X87944Y162887D01*
X87944Y159113D01*
X90613Y156444D01*
G37*
G36*
X133445Y56694D02*
X135556Y56694D01*
X137506Y57502D01*
X138998Y58994D01*
X139806Y60945D01*
X139806Y62829D01*
X139899Y63305D01*
X140178Y63727D01*
X150794Y74343D01*
X150794Y254817D01*
X150887Y255293D01*
X151166Y255715D01*
X151773Y256322D01*
X152176Y256593D01*
X152671Y256694D01*
X154556Y256694D01*
X156506Y257502D01*
X157998Y258994D01*
X158806Y260945D01*
X158806Y263056D01*
X157998Y265006D01*
X156506Y266498D01*
X154556Y267306D01*
X152445Y267306D01*
X150494Y266498D01*
X149002Y265006D01*
X148194Y263056D01*
X148194Y261171D01*
X148101Y260695D01*
X147822Y260273D01*
X145206Y257657D01*
X145206Y77183D01*
X145113Y76707D01*
X144834Y76285D01*
X136227Y67678D01*
X135824Y67407D01*
X135329Y67306D01*
X133445Y67306D01*
X131494Y66498D01*
X130002Y65006D01*
X129194Y63056D01*
X129194Y60945D01*
X130002Y58994D01*
X131494Y57502D01*
X133445Y56694D01*
G37*
G36*
X106945Y95194D02*
X109056Y95194D01*
X111006Y96002D01*
X112498Y97494D01*
X113306Y99445D01*
X113306Y101556D01*
X112498Y103506D01*
X111166Y104838D01*
X110895Y105241D01*
X110794Y105736D01*
X110794Y152944D01*
X110883Y153411D01*
X111159Y153835D01*
X111578Y154118D01*
X112506Y154502D01*
X113998Y155994D01*
X114806Y157945D01*
X114806Y160056D01*
X113998Y162006D01*
X112506Y163498D01*
X110556Y164306D01*
X108445Y164306D01*
X106494Y163498D01*
X105002Y162006D01*
X104194Y160056D01*
X104194Y157945D01*
X105089Y155784D01*
X105105Y155759D01*
X105206Y155264D01*
X105206Y105736D01*
X105113Y105259D01*
X104834Y104838D01*
X103502Y103506D01*
X102694Y101556D01*
X102694Y99445D01*
X103502Y97494D01*
X104994Y96002D01*
X106945Y95194D01*
G37*
%LPD*%
G36*
X349225Y110395D02*
X348730Y110294D01*
X340564Y110294D01*
X340106Y110379D01*
X339680Y110652D01*
X339395Y111069D01*
X339294Y111564D01*
X339294Y131657D01*
X314657Y156294D01*
X172183Y156294D01*
X171707Y156387D01*
X171285Y156666D01*
X170166Y157785D01*
X169895Y158188D01*
X169794Y158683D01*
X169794Y236817D01*
X169887Y237293D01*
X170166Y237715D01*
X181294Y248843D01*
X181294Y345157D01*
X175678Y350773D01*
X175407Y351176D01*
X175306Y351671D01*
X175306Y353555D01*
X175143Y353950D01*
X175047Y354396D01*
X175131Y354894D01*
X175404Y355320D01*
X175821Y355605D01*
X176316Y355706D01*
X341657Y355706D01*
X356294Y370343D01*
X356294Y375230D01*
X356379Y375688D01*
X356652Y376114D01*
X357069Y376399D01*
X357564Y376500D01*
X366758Y376500D01*
X367189Y376424D01*
X367621Y376161D01*
X367916Y375751D01*
X368027Y375258D01*
X371906Y198798D01*
X371820Y198312D01*
X371548Y197886D01*
X371131Y197601D01*
X370636Y197500D01*
X350100Y197500D01*
X350008Y197485D01*
X350000Y197420D01*
X350000Y111564D01*
X349915Y111106D01*
X349642Y110680D01*
X349225Y110395D01*
G37*
%LPC*%
G36*
X195945Y187194D02*
X198056Y187194D01*
X200006Y188002D01*
X201498Y189494D01*
X202306Y191445D01*
X202306Y192251D01*
X202399Y192728D01*
X202678Y193149D01*
X203056Y193527D01*
X203056Y277501D01*
X203149Y277978D01*
X203428Y278399D01*
X217556Y292527D01*
X217556Y308784D01*
X217641Y309242D01*
X217914Y309668D01*
X218331Y309953D01*
X218826Y310054D01*
X219155Y310054D01*
X226446Y317345D01*
X226446Y327655D01*
X219155Y334946D01*
X208845Y334946D01*
X201554Y327655D01*
X201554Y317345D01*
X208845Y310054D01*
X209174Y310054D01*
X209632Y309969D01*
X210058Y309696D01*
X210343Y309279D01*
X210444Y308784D01*
X210444Y295999D01*
X210351Y295522D01*
X210072Y295101D01*
X195944Y280973D01*
X195944Y198654D01*
X195855Y198187D01*
X195579Y197764D01*
X195160Y197481D01*
X193994Y196998D01*
X192502Y195506D01*
X191694Y193556D01*
X191694Y191445D01*
X192502Y189494D01*
X193994Y188002D01*
X195945Y187194D01*
G37*
%LPD*%
G36*
X69320Y214895D02*
X68825Y214794D01*
X60675Y214794D01*
X60199Y214887D01*
X59777Y215166D01*
X58387Y216556D01*
X54613Y216556D01*
X54462Y216405D01*
X54096Y216150D01*
X53604Y216034D01*
X53106Y216119D01*
X52680Y216391D01*
X52395Y216808D01*
X52294Y217303D01*
X52294Y261817D01*
X52387Y262293D01*
X52666Y262715D01*
X70773Y280822D01*
X71176Y281093D01*
X71671Y281194D01*
X73555Y281194D01*
X75450Y281979D01*
X75896Y282075D01*
X76394Y281990D01*
X76820Y281718D01*
X77105Y281301D01*
X77206Y280805D01*
X77206Y218826D01*
X77121Y218368D01*
X76848Y217942D01*
X76431Y217657D01*
X75936Y217556D01*
X72113Y217556D01*
X69723Y215166D01*
X69320Y214895D01*
G37*
G36*
X437725Y117101D02*
X437230Y117000D01*
X345770Y117000D01*
X345312Y117085D01*
X344886Y117358D01*
X344601Y117775D01*
X344500Y118270D01*
X344500Y203730D01*
X344585Y204188D01*
X344858Y204614D01*
X345275Y204899D01*
X345770Y205000D01*
X364900Y205000D01*
X364992Y205015D01*
X365000Y205080D01*
X365000Y376730D01*
X365085Y377188D01*
X365358Y377614D01*
X365775Y377899D01*
X366270Y378000D01*
X525400Y378000D01*
X525492Y378015D01*
X525500Y378080D01*
X525500Y399730D01*
X525585Y400188D01*
X525858Y400614D01*
X526275Y400899D01*
X526770Y401000D01*
X626230Y401000D01*
X626688Y400915D01*
X627114Y400642D01*
X627399Y400225D01*
X627500Y399730D01*
X627500Y364600D01*
X627515Y364508D01*
X627580Y364500D01*
X709936Y364500D01*
X710394Y364415D01*
X710820Y364142D01*
X711105Y363725D01*
X711206Y363230D01*
X711206Y344843D01*
X720343Y335706D01*
X761264Y335706D01*
X761741Y335613D01*
X762162Y335334D01*
X763494Y334002D01*
X765445Y333194D01*
X767556Y333194D01*
X769506Y334002D01*
X770998Y335494D01*
X771806Y337445D01*
X771806Y339556D01*
X770998Y341506D01*
X769506Y342998D01*
X767556Y343806D01*
X765445Y343806D01*
X763494Y342998D01*
X762162Y341666D01*
X761759Y341395D01*
X761264Y341294D01*
X723183Y341294D01*
X722707Y341387D01*
X722285Y341666D01*
X717166Y346785D01*
X716895Y347188D01*
X716794Y347683D01*
X716794Y363230D01*
X716879Y363688D01*
X717152Y364114D01*
X717569Y364399D01*
X718064Y364500D01*
X999730Y364500D01*
X1000188Y364415D01*
X1000614Y364142D01*
X1000899Y363725D01*
X1001000Y363230D01*
X1001000Y325770D01*
X1000915Y325312D01*
X1000642Y324886D01*
X1000225Y324601D01*
X999730Y324500D01*
X879600Y324500D01*
X879508Y324485D01*
X879500Y324420D01*
X879500Y242100D01*
X879515Y242008D01*
X879580Y242000D01*
X1040108Y242000D01*
X1040566Y241915D01*
X1040992Y241642D01*
X1041277Y241225D01*
X1041378Y240730D01*
X1041378Y151357D01*
X1041295Y150905D01*
X1041025Y150478D01*
X1040609Y150190D01*
X1040114Y150087D01*
X820099Y149001D01*
X820008Y148986D01*
X820000Y148920D01*
X820000Y121770D01*
X819915Y121312D01*
X819642Y120886D01*
X819225Y120601D01*
X818730Y120500D01*
X726064Y120500D01*
X725606Y120585D01*
X725180Y120858D01*
X724895Y121275D01*
X724794Y121770D01*
X724794Y137264D01*
X724887Y137741D01*
X725166Y138162D01*
X726498Y139494D01*
X727306Y141445D01*
X727306Y143556D01*
X726498Y145506D01*
X725006Y146998D01*
X723056Y147806D01*
X720945Y147806D01*
X718994Y146998D01*
X717462Y145466D01*
X717096Y145211D01*
X716604Y145095D01*
X716106Y145179D01*
X715680Y145452D01*
X715395Y145869D01*
X715294Y146364D01*
X715294Y160817D01*
X715387Y161293D01*
X715666Y161715D01*
X718285Y164334D01*
X718688Y164605D01*
X719183Y164706D01*
X746764Y164706D01*
X747241Y164613D01*
X747662Y164334D01*
X748994Y163002D01*
X750945Y162194D01*
X753056Y162194D01*
X755006Y163002D01*
X756498Y164494D01*
X757306Y166445D01*
X757306Y168556D01*
X756498Y170506D01*
X755006Y171998D01*
X753056Y172806D01*
X750945Y172806D01*
X748994Y171998D01*
X747662Y170666D01*
X747259Y170395D01*
X746764Y170294D01*
X716343Y170294D01*
X709706Y163657D01*
X709706Y121770D01*
X709621Y121312D01*
X709348Y120886D01*
X708931Y120601D01*
X708436Y120500D01*
X596270Y120500D01*
X595812Y120585D01*
X595386Y120858D01*
X595101Y121275D01*
X595000Y121770D01*
X595000Y156900D01*
X594985Y156992D01*
X594920Y157000D01*
X438600Y157000D01*
X438508Y156985D01*
X438500Y156920D01*
X438500Y118270D01*
X438415Y117812D01*
X438142Y117386D01*
X437725Y117101D01*
G37*
%LPC*%
G36*
X759945Y219194D02*
X762056Y219194D01*
X764006Y220002D01*
X765498Y221494D01*
X766306Y223445D01*
X766306Y225556D01*
X765498Y227506D01*
X764166Y228838D01*
X763895Y229241D01*
X763794Y229736D01*
X763794Y277651D01*
X763883Y278119D01*
X764159Y278542D01*
X764578Y278825D01*
X765006Y279002D01*
X766498Y280494D01*
X767306Y282445D01*
X767306Y284556D01*
X766498Y286506D01*
X765006Y287998D01*
X763056Y288806D01*
X760945Y288806D01*
X758994Y287998D01*
X757502Y286506D01*
X756694Y284556D01*
X756694Y282445D01*
X757502Y280494D01*
X757834Y280162D01*
X758105Y279759D01*
X758206Y279264D01*
X758206Y229736D01*
X758113Y229259D01*
X757834Y228838D01*
X756502Y227506D01*
X755694Y225556D01*
X755694Y223445D01*
X756502Y221494D01*
X757994Y220002D01*
X759945Y219194D01*
G37*
%LPD*%
G36*
X570348Y11023D02*
X569853Y10922D01*
X354270Y10922D01*
X353812Y11007D01*
X353386Y11280D01*
X353101Y11697D01*
X353000Y12192D01*
X353000Y18000D01*
X353000Y18008D01*
X353493Y100738D01*
X353578Y101188D01*
X353850Y101614D01*
X354267Y101899D01*
X354762Y102000D01*
X452900Y102000D01*
X452992Y102015D01*
X453000Y102080D01*
X453000Y137867D01*
X453093Y138344D01*
X453372Y138765D01*
X459235Y144628D01*
X459637Y144899D01*
X460133Y145000D01*
X577367Y145000D01*
X577844Y144907D01*
X578265Y144628D01*
X579128Y143765D01*
X579399Y143363D01*
X579500Y142867D01*
X579500Y110588D01*
X579415Y110130D01*
X579142Y109704D01*
X578725Y109419D01*
X578230Y109318D01*
X561711Y109318D01*
X561095Y108702D01*
X560693Y108431D01*
X560197Y108330D01*
X558641Y108330D01*
X556131Y107290D01*
X554210Y105369D01*
X553170Y102859D01*
X553170Y100141D01*
X554210Y97631D01*
X556131Y95710D01*
X558641Y94670D01*
X561359Y94670D01*
X563869Y95710D01*
X565790Y97631D01*
X566729Y99898D01*
X566990Y100296D01*
X567407Y100581D01*
X567903Y100682D01*
X578230Y100682D01*
X578688Y100597D01*
X579114Y100324D01*
X579399Y99907D01*
X579500Y99412D01*
X579500Y74600D01*
X579515Y74508D01*
X579580Y74500D01*
X1040108Y74500D01*
X1040566Y74415D01*
X1040992Y74142D01*
X1041277Y73725D01*
X1041378Y73230D01*
X1041378Y12192D01*
X1041293Y11734D01*
X1041020Y11308D01*
X1040603Y11023D01*
X1040108Y10922D01*
X913048Y10922D01*
X912448Y11072D01*
X912059Y11395D01*
X911826Y11844D01*
X911787Y12348D01*
X911948Y12827D01*
X913377Y15303D01*
X915160Y21956D01*
X915160Y28844D01*
X913377Y35497D01*
X909933Y41463D01*
X905063Y46333D01*
X899097Y49777D01*
X892444Y51560D01*
X885556Y51560D01*
X878903Y49777D01*
X872937Y46333D01*
X868067Y41463D01*
X864623Y35497D01*
X862840Y28844D01*
X862840Y21956D01*
X864623Y15303D01*
X866052Y12827D01*
X866222Y12232D01*
X866137Y11734D01*
X865864Y11308D01*
X865448Y11023D01*
X864952Y10922D01*
X579147Y10922D01*
X578708Y11000D01*
X578278Y11266D01*
X577986Y11678D01*
X577877Y12172D01*
X577970Y12669D01*
X578249Y13090D01*
X580290Y15131D01*
X581330Y17641D01*
X581330Y20359D01*
X580290Y22869D01*
X578369Y24790D01*
X575859Y25830D01*
X574303Y25830D01*
X573826Y25923D01*
X573405Y26202D01*
X564690Y34917D01*
X564419Y35319D01*
X564318Y35815D01*
X564318Y50633D01*
X564411Y51110D01*
X564690Y51531D01*
X565790Y52631D01*
X566830Y55141D01*
X566830Y57859D01*
X565790Y60369D01*
X563869Y62290D01*
X561359Y63330D01*
X558641Y63330D01*
X556131Y62290D01*
X554210Y60369D01*
X553130Y57763D01*
X553088Y57532D01*
X552819Y57104D01*
X552405Y56815D01*
X551910Y56710D01*
X551414Y56807D01*
X551359Y56830D01*
X548641Y56830D01*
X546131Y55790D01*
X544210Y53869D01*
X543170Y51359D01*
X543170Y48641D01*
X544210Y46131D01*
X545310Y45031D01*
X545581Y44628D01*
X545682Y44133D01*
X545682Y28211D01*
X552298Y21595D01*
X552569Y21193D01*
X552670Y20697D01*
X552670Y19141D01*
X553710Y16631D01*
X555631Y14710D01*
X558141Y13670D01*
X560859Y13670D01*
X563369Y14710D01*
X565290Y16631D01*
X565516Y17176D01*
X565756Y17552D01*
X566166Y17848D01*
X566659Y17960D01*
X567157Y17871D01*
X567580Y17595D01*
X567863Y17176D01*
X568710Y15131D01*
X570751Y13090D01*
X571006Y12724D01*
X571122Y12232D01*
X571038Y11734D01*
X570765Y11308D01*
X570348Y11023D01*
G37*
G36*
X514725Y387601D02*
X514230Y387500D01*
X466770Y387500D01*
X466312Y387585D01*
X465886Y387858D01*
X465601Y388275D01*
X465500Y388770D01*
X465500Y438900D01*
X465485Y438992D01*
X465420Y439000D01*
X355270Y439000D01*
X354812Y439085D01*
X354386Y439358D01*
X354101Y439775D01*
X354000Y440270D01*
X354000Y498231D01*
X354086Y498691D01*
X354359Y499116D01*
X354776Y499401D01*
X355272Y499501D01*
X865925Y498760D01*
X866523Y498610D01*
X866912Y498287D01*
X867145Y497839D01*
X867184Y497335D01*
X867023Y496855D01*
X864623Y492697D01*
X862840Y486044D01*
X862840Y479156D01*
X864623Y472503D01*
X868067Y466537D01*
X872937Y461667D01*
X878903Y458223D01*
X885556Y456440D01*
X892444Y456440D01*
X899097Y458223D01*
X905063Y461667D01*
X909933Y466537D01*
X913377Y472503D01*
X915160Y479156D01*
X915160Y486044D01*
X913377Y492697D01*
X911015Y496788D01*
X910846Y497385D01*
X910931Y497883D01*
X911204Y498308D01*
X911621Y498594D01*
X912117Y498693D01*
X1040110Y498508D01*
X1040566Y498422D01*
X1040992Y498150D01*
X1041277Y497733D01*
X1041378Y497238D01*
X1041378Y434770D01*
X1041293Y434312D01*
X1041020Y433886D01*
X1040603Y433601D01*
X1040108Y433500D01*
X515600Y433500D01*
X515508Y433485D01*
X515500Y433420D01*
X515500Y388770D01*
X515415Y388312D01*
X515142Y387886D01*
X514725Y387601D01*
G37*
G36*
X1040913Y247060D02*
X1040616Y247000D01*
X904762Y247000D01*
X904487Y247051D01*
X904232Y247215D01*
X904060Y247465D01*
X904000Y247762D01*
X904000Y319238D01*
X904051Y319513D01*
X904215Y319768D01*
X904465Y319940D01*
X904762Y320000D01*
X1040616Y320000D01*
X1040891Y319949D01*
X1041146Y319785D01*
X1041318Y319535D01*
X1041378Y319238D01*
X1041378Y247762D01*
X1041327Y247487D01*
X1041163Y247232D01*
X1040913Y247060D01*
G37*
G36*
X819225Y70101D02*
X818730Y70000D01*
X515270Y70000D01*
X514812Y70085D01*
X514386Y70358D01*
X514101Y70775D01*
X514000Y71270D01*
X514000Y98730D01*
X514085Y99188D01*
X514358Y99614D01*
X514775Y99899D01*
X515270Y100000D01*
X554030Y100000D01*
X554497Y99911D01*
X554920Y99635D01*
X555203Y99216D01*
X555502Y98494D01*
X556994Y97002D01*
X558945Y96194D01*
X561056Y96194D01*
X563006Y97002D01*
X564498Y98494D01*
X564797Y99216D01*
X565058Y99614D01*
X565475Y99899D01*
X565970Y100000D01*
X818730Y100000D01*
X819188Y99915D01*
X819614Y99642D01*
X819899Y99225D01*
X820000Y98730D01*
X820000Y71270D01*
X819915Y70812D01*
X819642Y70386D01*
X819225Y70101D01*
G37*
G36*
X1040913Y371060D02*
X1040616Y371000D01*
X908762Y371000D01*
X908487Y371051D01*
X908232Y371215D01*
X908060Y371465D01*
X908000Y371762D01*
X908000Y429238D01*
X908051Y429513D01*
X908215Y429768D01*
X908465Y429940D01*
X908762Y430000D01*
X1040616Y430000D01*
X1040891Y429949D01*
X1041146Y429785D01*
X1041318Y429535D01*
X1041378Y429238D01*
X1041378Y371762D01*
X1041327Y371487D01*
X1041163Y371232D01*
X1040913Y371060D01*
G37*
G36*
X1046000Y82000D02*
X936000Y82000D01*
X936000Y144000D01*
X1046000Y144000D01*
X1046000Y82000D01*
G37*
G36*
X425225Y408101D02*
X424730Y408000D01*
X355270Y408000D01*
X354812Y408085D01*
X354386Y408358D01*
X354101Y408775D01*
X354000Y409270D01*
X354000Y438730D01*
X354085Y439188D01*
X354358Y439614D01*
X354775Y439899D01*
X355270Y440000D01*
X424730Y440000D01*
X425188Y439915D01*
X425614Y439642D01*
X425899Y439225D01*
X426000Y438730D01*
X426000Y409270D01*
X425915Y408812D01*
X425642Y408386D01*
X425225Y408101D01*
G37*
D10*
X214000Y322500D03*
X193500Y304000D03*
D11*
X20000Y496300D03*
D12*
X20000Y470900D03*
X20000Y445500D03*
X20000Y420100D03*
X20000Y394700D03*
X20000Y369300D03*
X20000Y343900D03*
X20000Y318500D03*
X20000Y293100D03*
X20000Y267700D03*
X20000Y242300D03*
X20000Y216900D03*
X20000Y191500D03*
X20000Y166100D03*
X20000Y140700D03*
X20000Y115300D03*
X20000Y89900D03*
X20000Y64500D03*
X20000Y39100D03*
X20000Y13700D03*
D13*
X1013000Y401000D03*
X1011628Y466928D03*
X1015000Y112000D03*
X1011500Y44000D03*
X1015500Y284500D03*
X1016000Y206500D03*
D14*
X93500Y299000D03*
D15*
X93500Y343500D01*
X89500Y347500D01*
X89500Y387500D01*
X88000Y390500D01*
D14*
X88000Y390500D03*
X197000Y192500D03*
D15*
X199500Y195000D01*
X199500Y279500D01*
X214000Y294000D01*
X214000Y322500D01*
D14*
X722000Y142500D03*
X560000Y101500D03*
X560000Y56500D03*
X574500Y19000D03*
D16*
X722000Y121000D02*
X722000Y142500D01*
X722000Y121000D02*
X706000Y105000D01*
X563500Y105000D01*
X560000Y101500D01*
X560000Y33500D02*
X574500Y19000D01*
X560000Y33500D02*
X560000Y56500D01*
D14*
X194500Y15500D03*
D16*
X194500Y104500D01*
X191000Y108000D01*
D14*
X191000Y108000D03*
X761000Y224500D03*
D16*
X761000Y282500D01*
X762000Y283500D01*
D14*
X762000Y283500D03*
X446500Y407000D03*
D16*
X446500Y391500D01*
D14*
X446500Y391500D03*
X344500Y418000D03*
D16*
X344500Y393500D01*
D14*
X344500Y393500D03*
D17*
X288500Y418000D03*
D16*
X247500Y418000D01*
X241500Y424000D01*
D17*
X241500Y424000D03*
D14*
X200000Y474000D03*
D16*
X208000Y466000D01*
X208000Y394500D01*
X197500Y384000D01*
D14*
X197500Y384000D03*
X324000Y426000D03*
D16*
X324000Y393000D01*
X306000Y375000D01*
X213500Y375000D01*
X204500Y384000D01*
X197500Y384000D01*
D14*
X108000Y100500D03*
D16*
X108000Y157500D01*
X109500Y159000D01*
D14*
X109500Y159000D03*
X118000Y182500D03*
D16*
X133500Y198000D01*
X133500Y237000D01*
D14*
X133500Y237000D03*
D16*
X133500Y364000D01*
D14*
X136500Y423500D03*
D16*
X136500Y367000D01*
X133500Y364000D01*
D14*
X126500Y279000D03*
X119000Y428000D03*
D16*
X128500Y367000D02*
X128500Y281000D01*
X126500Y279000D01*
X128500Y367000D02*
X112500Y383000D01*
X112500Y421500D01*
X119000Y428000D01*
D14*
X134500Y451500D03*
X127500Y388000D03*
D16*
X127000Y444000D02*
X134500Y451500D01*
X127000Y444000D02*
X127000Y388500D01*
X127500Y388000D01*
D14*
X313500Y40000D03*
D16*
X313500Y71500D01*
X284000Y101000D01*
D14*
X284000Y101000D03*
D16*
X342500Y28500D02*
X335500Y21500D01*
X276500Y21500D01*
X271500Y26500D01*
D14*
X271500Y26500D03*
X342500Y67000D03*
D16*
X342500Y28500D01*
D17*
X331000Y43500D03*
D16*
X331000Y121000D01*
X323000Y129000D01*
D17*
X323000Y129000D03*
D14*
X134500Y62000D03*
D16*
X148000Y75500D01*
X148000Y256500D01*
X153500Y262000D01*
D14*
X153500Y262000D03*
D17*
X78000Y347500D03*
X74500Y409000D03*
D16*
X74326Y398913D02*
X74500Y398739D01*
X74500Y409000D01*
X74326Y351174D02*
X78000Y347500D01*
X74326Y351174D02*
X74326Y398913D01*
D17*
X68500Y396500D03*
D16*
X68500Y345500D01*
X72500Y341500D01*
D17*
X72500Y341500D03*
X56500Y212000D03*
D16*
X73000Y212000D02*
X74000Y213000D01*
X73000Y212000D02*
X56500Y212000D01*
D17*
X74000Y213000D03*
D14*
X160500Y247500D03*
D16*
X169500Y256500D02*
X169500Y278500D01*
X169500Y256500D02*
X160500Y247500D01*
X169500Y278500D02*
X151000Y297000D01*
X146000Y297000D01*
X143500Y294500D01*
D14*
X143500Y294500D03*
D17*
X92500Y161000D03*
D16*
X102000Y170500D01*
X102000Y253000D01*
D17*
X115000Y265000D03*
D16*
X114000Y265000D02*
X102000Y253000D01*
X114000Y265000D02*
X115000Y265000D01*
D17*
X68000Y301500D03*
D16*
X40000Y305000D02*
X40000Y120500D01*
X35000Y115500D01*
D17*
X35000Y115500D03*
D16*
X40000Y305000D02*
X50500Y315500D01*
X54000Y315500D01*
X68000Y301500D01*
D17*
X74000Y307500D03*
D16*
X44500Y296500D02*
X44500Y97000D01*
X37000Y89500D01*
D17*
X37000Y89500D03*
D16*
X44500Y296500D02*
X46500Y298500D01*
D14*
X46500Y298500D03*
D18*
X975000Y421000D03*
X975000Y409000D03*
X975000Y397000D03*
X975000Y385000D03*
X962000Y385000D03*
X962000Y397000D03*
X962000Y409000D03*
X962000Y421000D03*
X949000Y421000D03*
X949000Y409000D03*
X949000Y397000D03*
X949000Y385000D03*
X936000Y385000D03*
X936000Y397000D03*
X936000Y409000D03*
X936000Y421000D03*
X922000Y421000D03*
X922000Y409000D03*
X922000Y397000D03*
X922000Y385000D03*
D14*
X752000Y167500D03*
D16*
X717500Y167500D01*
X712500Y162500D01*
X712500Y119500D01*
X704500Y111500D01*
X595500Y111500D01*
X443000Y114000D02*
X436500Y107500D01*
X337500Y107500D01*
X336500Y108500D01*
X336500Y130500D01*
X313500Y153500D01*
X170500Y153500D01*
X167000Y157000D02*
X167000Y238500D01*
X178500Y250000D01*
X178500Y344000D01*
X170000Y352500D01*
D14*
X170000Y352500D03*
D16*
X443000Y134500D02*
X443000Y114000D01*
X443000Y134500D02*
X458000Y149500D01*
X579500Y149500D01*
X170500Y153500D02*
X167000Y157000D01*
X579500Y149500D02*
X591000Y138000D01*
X591000Y116000D01*
X595500Y111500D01*
D14*
X766500Y338500D03*
D16*
X721500Y338500D01*
X714000Y346000D01*
X714000Y410500D01*
X704500Y420000D01*
X526500Y420000D01*
X521000Y414500D01*
X521000Y388500D01*
X359500Y384500D02*
X353500Y378500D01*
X353500Y371500D01*
X340500Y358500D01*
X177500Y358500D01*
X170000Y366000D01*
X160500Y366000D01*
D14*
X160500Y366000D03*
D16*
X517000Y384500D02*
X521000Y388500D01*
X517000Y384500D02*
X359500Y384500D01*
D17*
X86000Y175000D03*
D16*
X82500Y175000D01*
X80000Y177500D01*
X80000Y313000D01*
X86000Y319000D01*
D17*
X86000Y319000D03*
D19*
X420500Y177000D03*
X428500Y177000D03*
X436500Y177000D03*
X444500Y177000D03*
X444500Y185000D03*
X436500Y185000D03*
X428500Y185000D03*
X420500Y185000D03*
X420500Y193000D03*
X428500Y193000D03*
X436500Y193000D03*
X444500Y193000D03*
X406500Y195000D03*
X398500Y195000D03*
X390500Y195000D03*
X406500Y187500D03*
X398500Y187500D03*
X390500Y187500D03*
X390500Y180000D03*
X398500Y180000D03*
X406500Y180000D03*
X382500Y180000D03*
X382500Y187500D03*
X382500Y195000D03*
X374500Y195000D03*
X374500Y187500D03*
X374500Y180000D03*
X366500Y180000D03*
X366500Y187500D03*
X366500Y195000D03*
X358500Y180000D03*
X358500Y187500D03*
X358500Y195000D03*
X350500Y180000D03*
X350500Y187500D03*
X350500Y195000D03*
X600500Y140500D03*
X607500Y140500D03*
X614500Y140500D03*
X621500Y140500D03*
X636500Y132500D03*
X600500Y133000D03*
X607500Y133000D03*
X614500Y133000D03*
X621500Y133000D03*
X628500Y133000D03*
X373500Y369000D03*
X381000Y369000D03*
X388500Y369000D03*
X396000Y369000D03*
X404000Y369000D03*
X412000Y369000D03*
X420000Y369000D03*
X420000Y361500D03*
X412000Y361500D03*
X404000Y361500D03*
X396000Y361500D03*
X388500Y361500D03*
X381000Y361500D03*
X373500Y361500D03*
X373500Y353500D03*
X381000Y353500D03*
X388500Y353500D03*
X396000Y353500D03*
X404000Y353500D03*
X412000Y353500D03*
X420000Y353500D03*
D18*
X549000Y376000D03*
X558500Y376000D03*
X568000Y376000D03*
X577500Y376000D03*
X587000Y376000D03*
X596500Y376000D03*
X549000Y366000D03*
X558500Y366000D03*
X568000Y366000D03*
X577500Y366000D03*
X587000Y366000D03*
X596500Y366000D03*
X539500Y366000D03*
X539500Y376000D03*
X539500Y385000D03*
X539500Y394000D03*
X1005000Y169500D03*
X1013000Y169500D03*
X1021000Y169500D03*
X1029000Y169500D03*
X1029000Y161500D03*
X1021000Y161500D03*
X1013000Y161500D03*
X1005000Y161500D03*
X1005000Y153500D03*
X1013000Y153500D03*
X1021000Y153500D03*
X1029000Y153500D03*
X1037000Y169500D03*
X1037000Y161500D03*
X1037000Y153500D03*
X946000Y330000D03*
X955000Y330000D03*
X964000Y330000D03*
X973000Y330000D03*
X937000Y330000D03*
X946000Y338000D03*
X937000Y338000D03*
X928000Y330000D03*
X973000Y338000D03*
X964000Y338000D03*
X990000Y330000D03*
X990000Y338000D03*
X955000Y338000D03*
X173000Y95500D03*
X173000Y78500D03*
X173000Y70000D03*
X173000Y61500D03*
X173000Y53000D03*
X173000Y44500D03*
X173000Y36000D03*
X181000Y36000D03*
X181000Y44500D03*
X181000Y53000D03*
X181000Y61500D03*
X181000Y70000D03*
X181000Y78500D03*
X181000Y87000D03*
X181000Y95500D03*
X173500Y407000D03*
X173500Y415000D03*
X173500Y423000D03*
X173500Y431000D03*
X173500Y439000D03*
X173500Y447000D03*
X173500Y455000D03*
X173500Y471000D03*
X173500Y479000D03*
X181500Y479000D03*
X181500Y471000D03*
X181500Y463000D03*
X181500Y455000D03*
X181500Y447000D03*
X181500Y439000D03*
X181500Y431000D03*
X181500Y423000D03*
X181500Y415000D03*
X181500Y407000D03*
D14*
X39000Y15500D03*
X231500Y23000D03*
D16*
X242500Y34000D01*
X287000Y34000D01*
X287500Y34500D01*
X287500Y65000D01*
D14*
X287500Y65000D03*
D17*
X787000Y196000D03*
X729500Y309500D03*
X264000Y492500D03*
X308500Y435500D03*
D14*
X235500Y383500D03*
X56500Y261000D03*
X72500Y226500D03*
D18*
X173500Y463000D03*
D14*
X104000Y403000D03*
X128400Y48000D03*
D18*
X173000Y87000D03*
D14*
X119500Y63000D03*
X82000Y367000D03*
X63500Y416000D03*
X63500Y432500D03*
X64000Y448500D03*
X113924Y298000D03*
X98000Y114000D03*
D18*
X981596Y338000D03*
X981596Y330000D03*
X913000Y189500D03*
X914000Y204500D03*
X956000Y204500D03*
X970000Y204500D03*
X970000Y189500D03*
X956000Y189500D03*
X942000Y189500D03*
X928000Y189500D03*
X934000Y177500D03*
X949000Y177500D03*
X963000Y177500D03*
X978000Y177500D03*
X983000Y204500D03*
X986000Y189500D03*
X997000Y177500D03*
X942000Y219500D03*
X956000Y219500D03*
X970000Y219500D03*
X1035000Y231500D03*
X1037000Y179500D03*
X928000Y219500D03*
X942000Y204500D03*
X928000Y204500D03*
X992000Y230500D03*
X983000Y219500D03*
D14*
X323000Y88500D03*
X323500Y29000D03*
D16*
X323000Y29500D02*
X323000Y88500D01*
X323000Y29500D02*
X323500Y29000D01*
D19*
X496500Y50000D03*
X504000Y50000D03*
X511500Y50000D03*
X519000Y50000D03*
X526500Y50000D03*
X526500Y57500D03*
X519000Y57500D03*
X511500Y57500D03*
X504000Y57500D03*
X496500Y57500D03*
X367500Y50000D03*
X375000Y50000D03*
X382500Y50000D03*
X390000Y50000D03*
X397500Y50000D03*
X405000Y50000D03*
X412500Y50000D03*
X518000Y102500D03*
X508500Y128500D03*
X517500Y128500D03*
X526500Y128500D03*
X526500Y121000D03*
X517500Y121000D03*
X508500Y121000D03*
X518000Y95000D03*
X518000Y87500D03*
X508500Y113500D03*
X517500Y113500D03*
X526500Y113500D03*
D18*
X476500Y451000D03*
X486000Y451000D03*
X495500Y451000D03*
X505000Y451000D03*
X505000Y441500D03*
X495500Y441500D03*
X486000Y441500D03*
X476500Y441500D03*
X476500Y405000D03*
X486000Y405000D03*
X495500Y405000D03*
X505000Y405000D03*
X505000Y396000D03*
X495500Y396000D03*
X486000Y396000D03*
X476500Y396000D03*
X360500Y464500D03*
X369500Y464500D03*
X378500Y464500D03*
X387500Y464500D03*
X396500Y464500D03*
X405500Y464500D03*
X414500Y464500D03*
X476500Y460000D03*
X486000Y460000D03*
X495500Y460000D03*
X505000Y460000D03*
X467500Y460000D03*
X458000Y460000D03*
X360500Y476500D03*
X369500Y476500D03*
X378500Y476500D03*
X387500Y476500D03*
X396500Y476500D03*
X405500Y476500D03*
X414500Y476500D03*
D17*
X39000Y319500D03*
D16*
X35500Y316000D01*
X35500Y143500D01*
X32500Y140500D01*
D17*
X32500Y140500D03*
D18*
X976000Y133000D03*
X976000Y120000D03*
X976000Y107000D03*
X976000Y94000D03*
X962000Y94000D03*
X962000Y107000D03*
X962000Y120000D03*
X948000Y94000D03*
X948000Y107000D03*
X948000Y120000D03*
X948000Y133000D03*
X962000Y133000D03*
D14*
X228000Y395500D03*
D16*
X228000Y473000D01*
X229000Y474000D02*
X229000Y475000D01*
X229000Y474000D02*
X228000Y473000D01*
D14*
X229000Y475000D03*
X559500Y20500D03*
X550000Y50000D03*
D18*
X975000Y309000D03*
X975000Y296000D03*
X975000Y283000D03*
X975000Y270000D03*
X975000Y257000D03*
X961000Y309000D03*
X961000Y296000D03*
X961000Y283000D03*
X961000Y270000D03*
X961000Y257000D03*
X947000Y309000D03*
X947000Y296000D03*
X947000Y283000D03*
X947000Y270000D03*
X947000Y257000D03*
X933000Y309000D03*
X933000Y296000D03*
X933000Y283000D03*
X933000Y270000D03*
X933000Y257000D03*
X919000Y309000D03*
X919000Y296000D03*
X919000Y283000D03*
X919000Y270000D03*
X919000Y257000D03*
D16*
X550000Y50000D02*
X550000Y30000D01*
X559500Y20500D01*
D14*
X133000Y84500D03*
D16*
X62000Y84500D01*
X49500Y97000D01*
D14*
X72500Y286500D03*
D16*
X49500Y263500D01*
X49500Y97000D01*
M02*
