G04 EAGLE Gerber RS-274X export*
G75*
%MOMM*%
%FSLAX34Y34*%
%LPD*%
%INTop Copper*%
%IPPOS*%
%AMOC8*
5,1,8,0,0,1.08239X$1,22.5*%
G01*
G04 Define Apertures*
%ADD10C,0.130000*%
%ADD11R,0.912000X1.397800*%
%ADD12R,2.690800X1.062000*%
%ADD13R,1.753400X0.912000*%
%ADD14R,1.062000X2.690800*%
%ADD15R,0.780000X0.990000*%
%ADD16R,0.990000X0.780000*%
%ADD17R,0.618800X0.954000*%
%ADD18R,0.578800X0.654000*%
%ADD19R,2.200000X0.600000*%
%ADD20R,1.500000X2.200000*%
%ADD21R,2.006600X0.914400*%
%ADD22R,1.750000X1.100000*%
%ADD23R,0.950000X0.900000*%
%ADD24R,0.900000X0.650000*%
%ADD25R,0.900000X0.950000*%
%ADD26R,1.500000X0.550000*%
%ADD27R,0.550000X1.500000*%
%ADD28R,1.143800X0.989000*%
%ADD29R,0.800000X0.450000*%
%ADD30R,0.650000X0.910000*%
%ADD31R,0.940000X0.750000*%
%ADD32R,0.608000X0.839000*%
%ADD33R,0.650000X1.750000*%
%ADD34R,0.890000X0.980000*%
%ADD35R,0.832800X0.755600*%
%ADD36R,0.980000X0.890000*%
%ADD37R,0.910000X1.220000*%
%ADD38R,0.800000X0.900000*%
%ADD39P,2.36437X8X22.5*%
%ADD40R,0.508000X1.447800*%
%ADD41R,0.700000X1.150000*%
%ADD42R,4.700000X1.500000*%
%ADD43R,4.200000X3.100000*%
%ADD44R,1.650000X1.650000*%
%ADD45C,1.650000*%
%ADD46R,5.611800X1.798600*%
%ADD47R,1.650000X0.450000*%
%ADD48R,3.000000X5.000000*%
%ADD49C,4.950000*%
%ADD50R,1.778000X3.378200*%
%ADD51C,0.254000*%
%ADD52C,0.406400*%
%ADD53C,0.756400*%
%ADD54C,0.304800*%
%ADD55C,0.508000*%
%ADD56C,0.606400*%
%ADD57R,0.756400X0.756400*%
%ADD58R,0.606400X0.606400*%
G36*
X1041725Y374101D02*
X1041230Y374000D01*
X814770Y374000D01*
X814312Y374085D01*
X813886Y374358D01*
X813601Y374775D01*
X813500Y375270D01*
X813500Y409400D01*
X813485Y409492D01*
X813420Y409500D01*
X764270Y409500D01*
X763812Y409585D01*
X763386Y409858D01*
X763101Y410275D01*
X763000Y410770D01*
X763000Y439823D01*
X763085Y440281D01*
X763358Y440707D01*
X763775Y440992D01*
X764270Y441093D01*
X776430Y441093D01*
X776495Y441101D01*
X776510Y441193D01*
X776510Y476827D01*
X776502Y476892D01*
X776410Y476907D01*
X764270Y476907D01*
X763812Y476992D01*
X763386Y477265D01*
X763101Y477682D01*
X763000Y478177D01*
X763000Y496234D01*
X763083Y496686D01*
X763354Y497113D01*
X763769Y497401D01*
X764264Y497504D01*
X865460Y497968D01*
X866066Y497817D01*
X866455Y497495D01*
X866687Y497046D01*
X866726Y496542D01*
X866566Y496063D01*
X864623Y492697D01*
X862840Y486044D01*
X862840Y479156D01*
X864623Y472503D01*
X868067Y466537D01*
X872937Y461667D01*
X878903Y458223D01*
X885556Y456440D01*
X892444Y456440D01*
X899097Y458223D01*
X905063Y461667D01*
X909933Y466537D01*
X913377Y472503D01*
X915160Y479156D01*
X915160Y486044D01*
X913377Y492697D01*
X911310Y496278D01*
X911141Y496867D01*
X911223Y497365D01*
X911494Y497792D01*
X911909Y498080D01*
X912404Y498183D01*
X979724Y498492D01*
X980188Y498407D01*
X980614Y498134D01*
X980899Y497717D01*
X981000Y497222D01*
X981000Y432600D01*
X981015Y432508D01*
X981080Y432500D01*
X1041230Y432500D01*
X1041688Y432415D01*
X1042114Y432142D01*
X1042399Y431725D01*
X1042500Y431230D01*
X1042500Y375270D01*
X1042415Y374812D01*
X1042142Y374386D01*
X1041725Y374101D01*
G37*
G36*
X594245Y157601D02*
X593750Y157500D01*
X496270Y157500D01*
X495812Y157585D01*
X495386Y157858D01*
X495101Y158275D01*
X495000Y158770D01*
X495000Y225400D01*
X494985Y225492D01*
X494920Y225500D01*
X438270Y225500D01*
X437812Y225585D01*
X437386Y225858D01*
X437101Y226275D01*
X437000Y226770D01*
X437000Y272230D01*
X437085Y272688D01*
X437358Y273114D01*
X437775Y273399D01*
X438270Y273500D01*
X453400Y273500D01*
X453492Y273515D01*
X453500Y273580D01*
X453500Y349730D01*
X453585Y350188D01*
X453858Y350614D01*
X454275Y350899D01*
X454770Y351000D01*
X594178Y351000D01*
X594636Y350915D01*
X595061Y350642D01*
X595347Y350225D01*
X595448Y349730D01*
X595448Y207556D01*
X595448Y207545D01*
X595020Y158759D01*
X594935Y158312D01*
X594662Y157886D01*
X594245Y157601D01*
G37*
G36*
X720225Y155601D02*
X719730Y155500D01*
X660270Y155500D01*
X659812Y155585D01*
X659386Y155858D01*
X659101Y156275D01*
X659000Y156770D01*
X659000Y197900D01*
X658985Y197992D01*
X658920Y198000D01*
X588770Y198000D01*
X588312Y198085D01*
X587886Y198358D01*
X587601Y198775D01*
X587500Y199270D01*
X587500Y304730D01*
X587585Y305188D01*
X587858Y305614D01*
X588275Y305899D01*
X588770Y306000D01*
X632900Y306000D01*
X632992Y306015D01*
X633000Y306080D01*
X633000Y352230D01*
X633085Y352688D01*
X633358Y353114D01*
X633775Y353399D01*
X634270Y353500D01*
X719730Y353500D01*
X720188Y353415D01*
X720614Y353142D01*
X720899Y352725D01*
X721000Y352230D01*
X721000Y156770D01*
X720915Y156312D01*
X720642Y155886D01*
X720225Y155601D01*
G37*
G36*
X454725Y108101D02*
X454230Y108000D01*
X453738Y108000D01*
X453433Y108037D01*
X452976Y108254D01*
X452640Y108632D01*
X452559Y108872D01*
X452549Y108868D01*
X452494Y109006D01*
X452406Y109021D01*
X426080Y109527D01*
X426007Y109519D01*
X425938Y109382D01*
X425710Y108912D01*
X425302Y108613D01*
X424810Y108497D01*
X424312Y108581D01*
X423886Y108854D01*
X423601Y109271D01*
X423500Y109766D01*
X423500Y158900D01*
X423485Y158992D01*
X423420Y159000D01*
X209547Y159000D01*
X209152Y159063D01*
X208713Y159313D01*
X208405Y159714D01*
X208279Y160203D01*
X207578Y173511D01*
X207662Y174036D01*
X207934Y174462D01*
X208351Y174747D01*
X208847Y174848D01*
X225699Y174848D01*
X225777Y174858D01*
X225911Y174911D01*
X226378Y175000D01*
X280900Y175000D01*
X280992Y175015D01*
X281000Y175080D01*
X281000Y184750D01*
X281085Y185208D01*
X281358Y185634D01*
X281775Y185919D01*
X282270Y186020D01*
X292655Y186020D01*
X292720Y186028D01*
X292735Y186120D01*
X292735Y199100D01*
X292727Y199165D01*
X292635Y199180D01*
X282270Y199180D01*
X281812Y199265D01*
X281386Y199538D01*
X281101Y199955D01*
X281000Y200450D01*
X281000Y245400D01*
X280985Y245492D01*
X280920Y245500D01*
X238770Y245500D01*
X238312Y245585D01*
X237886Y245858D01*
X237601Y246275D01*
X237500Y246770D01*
X237500Y278730D01*
X237585Y279188D01*
X237858Y279614D01*
X238275Y279899D01*
X238770Y280000D01*
X285230Y280000D01*
X285688Y279915D01*
X286114Y279642D01*
X286399Y279225D01*
X286500Y278730D01*
X286500Y253100D01*
X286515Y253008D01*
X286580Y253000D01*
X393450Y253000D01*
X393908Y252915D01*
X394334Y252642D01*
X394619Y252225D01*
X394720Y251730D01*
X394720Y237345D01*
X394728Y237280D01*
X394820Y237265D01*
X407800Y237265D01*
X407865Y237273D01*
X407880Y237365D01*
X407880Y251730D01*
X407965Y252188D01*
X408238Y252614D01*
X408655Y252899D01*
X409150Y253000D01*
X432730Y253000D01*
X433188Y252915D01*
X433614Y252642D01*
X433899Y252225D01*
X434000Y251730D01*
X434000Y222600D01*
X434015Y222508D01*
X434080Y222500D01*
X486730Y222500D01*
X487188Y222415D01*
X487614Y222142D01*
X487899Y221725D01*
X488000Y221230D01*
X488000Y190770D01*
X487915Y190312D01*
X487642Y189886D01*
X487225Y189601D01*
X486730Y189500D01*
X455600Y189500D01*
X455508Y189485D01*
X455500Y189420D01*
X455500Y109270D01*
X455415Y108812D01*
X455142Y108386D01*
X454725Y108101D01*
G37*
G36*
X600725Y409101D02*
X600230Y409000D01*
X543270Y409000D01*
X542812Y409085D01*
X542386Y409358D01*
X542101Y409775D01*
X542000Y410270D01*
X542000Y496230D01*
X542085Y496688D01*
X542358Y497114D01*
X542775Y497399D01*
X543270Y497500D01*
X758230Y497500D01*
X758688Y497415D01*
X759114Y497142D01*
X759399Y496725D01*
X759500Y496230D01*
X759500Y478177D01*
X759415Y477719D01*
X759142Y477293D01*
X758725Y477008D01*
X758230Y476907D01*
X743570Y476907D01*
X743505Y476899D01*
X743490Y476807D01*
X743490Y441173D01*
X743498Y441108D01*
X743590Y441093D01*
X758230Y441093D01*
X758688Y441008D01*
X759114Y440735D01*
X759399Y440318D01*
X759500Y439823D01*
X759500Y410770D01*
X759415Y410312D01*
X759142Y409886D01*
X758725Y409601D01*
X758230Y409500D01*
X629770Y409500D01*
X629312Y409585D01*
X628886Y409858D01*
X628601Y410275D01*
X628500Y410770D01*
X628500Y444400D01*
X628485Y444492D01*
X628420Y444500D01*
X601600Y444500D01*
X601508Y444485D01*
X601500Y444420D01*
X601500Y410270D01*
X601415Y409812D01*
X601142Y409386D01*
X600725Y409101D01*
G37*
G36*
X865448Y11023D02*
X864952Y10922D01*
X764270Y10922D01*
X763812Y11007D01*
X763386Y11280D01*
X763101Y11697D01*
X763000Y12192D01*
X763000Y27823D01*
X763085Y28281D01*
X763358Y28707D01*
X763775Y28992D01*
X764270Y29093D01*
X776430Y29093D01*
X776495Y29101D01*
X776510Y29193D01*
X776510Y64827D01*
X776502Y64892D01*
X776410Y64907D01*
X764270Y64907D01*
X763812Y64992D01*
X763386Y65265D01*
X763101Y65682D01*
X763000Y66177D01*
X763000Y100730D01*
X763085Y101188D01*
X763358Y101614D01*
X763775Y101899D01*
X764270Y102000D01*
X940230Y102000D01*
X940688Y101915D01*
X941114Y101642D01*
X941399Y101225D01*
X941500Y100730D01*
X941500Y28026D01*
X941407Y27549D01*
X941128Y27128D01*
X925294Y11294D01*
X924891Y11023D01*
X924396Y10922D01*
X913048Y10922D01*
X912448Y11072D01*
X912059Y11395D01*
X911826Y11844D01*
X911787Y12348D01*
X911948Y12827D01*
X913377Y15303D01*
X915160Y21956D01*
X915160Y28844D01*
X913377Y35497D01*
X909933Y41463D01*
X905063Y46333D01*
X899097Y49777D01*
X892444Y51560D01*
X885556Y51560D01*
X878903Y49777D01*
X872937Y46333D01*
X868067Y41463D01*
X864623Y35497D01*
X862840Y28844D01*
X862840Y21956D01*
X864623Y15303D01*
X866052Y12827D01*
X866222Y12232D01*
X866137Y11734D01*
X865864Y11308D01*
X865448Y11023D01*
G37*
G36*
X759225Y11023D02*
X758730Y10922D01*
X582231Y10922D01*
X581766Y11010D01*
X581342Y11285D01*
X581059Y11704D01*
X580961Y12200D01*
X581492Y98238D01*
X581578Y98688D01*
X581850Y99114D01*
X582267Y99399D01*
X582762Y99500D01*
X597730Y99500D01*
X598188Y99415D01*
X598614Y99142D01*
X598899Y98725D01*
X599000Y98230D01*
X599000Y65600D01*
X599015Y65508D01*
X599080Y65500D01*
X658900Y65500D01*
X658992Y65515D01*
X659000Y65580D01*
X659000Y145230D01*
X659085Y145688D01*
X659358Y146114D01*
X659775Y146399D01*
X660270Y146500D01*
X690730Y146500D01*
X691188Y146415D01*
X691614Y146142D01*
X691899Y145725D01*
X692000Y145230D01*
X692000Y101100D01*
X692015Y101008D01*
X692080Y101000D01*
X758730Y101000D01*
X759188Y100915D01*
X759614Y100642D01*
X759899Y100225D01*
X760000Y99730D01*
X760000Y66177D01*
X759915Y65719D01*
X759642Y65293D01*
X759225Y65008D01*
X758730Y64907D01*
X743570Y64907D01*
X743505Y64899D01*
X743490Y64807D01*
X743490Y29173D01*
X743498Y29108D01*
X743590Y29093D01*
X758730Y29093D01*
X759188Y29008D01*
X759614Y28735D01*
X759899Y28318D01*
X760000Y27823D01*
X760000Y12192D01*
X759915Y11734D01*
X759642Y11308D01*
X759225Y11023D01*
G37*
G36*
X1040913Y82060D02*
X1040616Y82000D01*
X795762Y82000D01*
X795487Y82051D01*
X795232Y82215D01*
X795060Y82465D01*
X795000Y82762D01*
X795000Y143238D01*
X795051Y143513D01*
X795215Y143768D01*
X795465Y143940D01*
X795762Y144000D01*
X1040616Y144000D01*
X1040891Y143949D01*
X1041146Y143785D01*
X1041318Y143535D01*
X1041378Y143238D01*
X1041378Y82762D01*
X1041327Y82487D01*
X1041163Y82232D01*
X1040913Y82060D01*
G37*
G36*
X1040603Y247101D02*
X1040108Y247000D01*
X833270Y247000D01*
X832812Y247085D01*
X832386Y247358D01*
X832101Y247775D01*
X832000Y248270D01*
X832000Y318230D01*
X832085Y318688D01*
X832358Y319114D01*
X832775Y319399D01*
X833270Y319500D01*
X1040108Y319500D01*
X1040566Y319415D01*
X1040992Y319142D01*
X1041277Y318725D01*
X1041378Y318230D01*
X1041378Y248270D01*
X1041293Y247812D01*
X1041020Y247386D01*
X1040603Y247101D01*
G37*
G36*
X514225Y359601D02*
X513730Y359500D01*
X470270Y359500D01*
X469812Y359585D01*
X469386Y359858D01*
X469101Y360275D01*
X469000Y360770D01*
X469000Y408400D01*
X468985Y408492D01*
X468920Y408500D01*
X452470Y408500D01*
X452003Y408589D01*
X451580Y408865D01*
X451297Y409284D01*
X450998Y410006D01*
X449506Y411498D01*
X447556Y412306D01*
X445671Y412306D01*
X445195Y412399D01*
X444773Y412678D01*
X441257Y416194D01*
X440037Y416194D01*
X439561Y416287D01*
X439139Y416566D01*
X438166Y417539D01*
X437895Y417942D01*
X437794Y418437D01*
X437794Y421648D01*
X437879Y422106D01*
X438152Y422532D01*
X438569Y422817D01*
X439064Y422918D01*
X441350Y422918D01*
X442243Y423811D01*
X442243Y434963D01*
X441350Y435856D01*
X428650Y435856D01*
X427757Y434963D01*
X427757Y423811D01*
X428650Y422918D01*
X430936Y422918D01*
X431394Y422833D01*
X431820Y422560D01*
X432105Y422143D01*
X432206Y421648D01*
X432206Y418444D01*
X432121Y417986D01*
X431848Y417560D01*
X431431Y417275D01*
X430936Y417174D01*
X429269Y417174D01*
X428376Y416281D01*
X428376Y410454D01*
X428482Y410302D01*
X428598Y409810D01*
X428513Y409312D01*
X428241Y408886D01*
X427824Y408601D01*
X427329Y408500D01*
X355770Y408500D01*
X355312Y408585D01*
X354886Y408858D01*
X354601Y409275D01*
X354500Y409770D01*
X354500Y481730D01*
X354585Y482188D01*
X354858Y482614D01*
X355275Y482899D01*
X355770Y483000D01*
X512523Y483000D01*
X512999Y482907D01*
X513421Y482628D01*
X514628Y481421D01*
X514899Y481018D01*
X515000Y480523D01*
X515000Y360770D01*
X514915Y360312D01*
X514642Y359886D01*
X514225Y359601D01*
G37*
G36*
X1040603Y147601D02*
X1040108Y147500D01*
X943402Y147500D01*
X942944Y147585D01*
X942518Y147858D01*
X942233Y148275D01*
X942132Y148770D01*
X942132Y168183D01*
X942124Y168248D01*
X942032Y168263D01*
X901770Y168263D01*
X901312Y168348D01*
X900886Y168621D01*
X900601Y169038D01*
X900500Y169533D01*
X900500Y240230D01*
X900585Y240688D01*
X900858Y241114D01*
X901275Y241399D01*
X901770Y241500D01*
X1040108Y241500D01*
X1040566Y241415D01*
X1040992Y241142D01*
X1041277Y240725D01*
X1041378Y240230D01*
X1041378Y148770D01*
X1041293Y148312D01*
X1041020Y147886D01*
X1040603Y147601D01*
G37*
G36*
X856225Y149101D02*
X855730Y149000D01*
X796705Y149000D01*
X796247Y149085D01*
X795821Y149358D01*
X795536Y149775D01*
X795435Y150270D01*
X795435Y229039D01*
X795528Y229516D01*
X795807Y229937D01*
X796853Y230983D01*
X796909Y231059D01*
X796918Y231128D01*
X796022Y362721D01*
X796108Y363188D01*
X796380Y363614D01*
X796797Y363899D01*
X797292Y364000D01*
X855098Y364000D01*
X855556Y363915D01*
X855982Y363642D01*
X856267Y363225D01*
X856368Y362730D01*
X856368Y344317D01*
X856377Y344242D01*
X856497Y344143D01*
X856494Y344140D01*
X856614Y344057D01*
X856899Y343640D01*
X857000Y343145D01*
X857000Y150270D01*
X856915Y149812D01*
X856642Y149386D01*
X856225Y149101D01*
G37*
G36*
X532225Y39101D02*
X531730Y39000D01*
X355770Y39000D01*
X355312Y39085D01*
X354886Y39358D01*
X354601Y39775D01*
X354500Y40270D01*
X354500Y99230D01*
X354585Y99688D01*
X354858Y100114D01*
X355275Y100399D01*
X355770Y100500D01*
X424730Y100500D01*
X425188Y100415D01*
X425614Y100142D01*
X425899Y99725D01*
X426000Y99230D01*
X426000Y91080D01*
X426008Y91015D01*
X426100Y91000D01*
X452420Y91000D01*
X452485Y91008D01*
X452500Y91100D01*
X452500Y99230D01*
X452585Y99688D01*
X452858Y100114D01*
X453275Y100399D01*
X453770Y100500D01*
X467523Y100500D01*
X467999Y100407D01*
X468421Y100128D01*
X469604Y98945D01*
X469875Y98542D01*
X469976Y98047D01*
X469976Y94119D01*
X470869Y93226D01*
X470936Y93226D01*
X471394Y93141D01*
X471820Y92868D01*
X472105Y92451D01*
X472206Y91956D01*
X472206Y87352D01*
X472121Y86894D01*
X471848Y86468D01*
X471431Y86183D01*
X470936Y86082D01*
X468650Y86082D01*
X467757Y85189D01*
X467757Y74037D01*
X468650Y73144D01*
X481350Y73144D01*
X482243Y74037D01*
X482243Y85189D01*
X481350Y86082D01*
X479064Y86082D01*
X478606Y86167D01*
X478180Y86440D01*
X477895Y86857D01*
X477794Y87352D01*
X477794Y91956D01*
X477879Y92414D01*
X478152Y92840D01*
X478569Y93125D01*
X479064Y93226D01*
X480131Y93226D01*
X481024Y94119D01*
X481024Y99230D01*
X481109Y99688D01*
X481382Y100114D01*
X481799Y100399D01*
X482294Y100500D01*
X497900Y100500D01*
X497992Y100515D01*
X498000Y100580D01*
X498000Y144730D01*
X498085Y145188D01*
X498358Y145614D01*
X498775Y145899D01*
X499270Y146000D01*
X531730Y146000D01*
X532188Y145915D01*
X532614Y145642D01*
X532899Y145225D01*
X533000Y144730D01*
X533000Y40270D01*
X532915Y39812D01*
X532642Y39386D01*
X532225Y39101D01*
G37*
G36*
X757131Y205101D02*
X756636Y205000D01*
X714289Y205000D01*
X713825Y205088D01*
X713401Y205362D01*
X713117Y205781D01*
X713019Y206277D01*
X713494Y298737D01*
X713579Y299188D01*
X713851Y299614D01*
X714268Y299899D01*
X714764Y300000D01*
X757936Y300000D01*
X758394Y299915D01*
X758820Y299642D01*
X759105Y299225D01*
X759206Y298730D01*
X759206Y288736D01*
X759113Y288259D01*
X758834Y287838D01*
X757502Y286506D01*
X756694Y284556D01*
X756694Y282445D01*
X757502Y280494D01*
X758994Y279002D01*
X760945Y278194D01*
X763056Y278194D01*
X765006Y279002D01*
X766498Y280494D01*
X767306Y282445D01*
X767306Y284556D01*
X766498Y286506D01*
X765166Y287838D01*
X764895Y288241D01*
X764794Y288736D01*
X764794Y298730D01*
X764879Y299188D01*
X765152Y299614D01*
X765569Y299899D01*
X766064Y300000D01*
X816730Y300000D01*
X817188Y299915D01*
X817614Y299642D01*
X817899Y299225D01*
X818000Y298730D01*
X818000Y206270D01*
X817915Y205812D01*
X817642Y205386D01*
X817225Y205101D01*
X816730Y205000D01*
X764764Y205000D01*
X764306Y205085D01*
X763880Y205358D01*
X763595Y205775D01*
X763494Y206270D01*
X763494Y218964D01*
X763587Y219441D01*
X763866Y219862D01*
X765498Y221494D01*
X766306Y223445D01*
X766306Y225556D01*
X765498Y227506D01*
X764006Y228998D01*
X762056Y229806D01*
X759945Y229806D01*
X757994Y228998D01*
X756502Y227506D01*
X755694Y225556D01*
X755694Y223445D01*
X756502Y221494D01*
X757534Y220462D01*
X757805Y220059D01*
X757906Y219564D01*
X757906Y206270D01*
X757821Y205812D01*
X757548Y205386D01*
X757131Y205101D01*
G37*
G36*
X1046000Y6000D02*
X950000Y6000D01*
X950000Y75000D01*
X1046000Y75000D01*
X1046000Y6000D01*
G37*
G36*
X1001535Y324060D02*
X1001238Y324000D01*
X903762Y324000D01*
X903487Y324051D01*
X903232Y324215D01*
X903060Y324465D01*
X903000Y324762D01*
X903000Y343475D01*
X903051Y343750D01*
X903215Y344005D01*
X903465Y344177D01*
X903762Y344237D01*
X940570Y344237D01*
X940625Y344246D01*
X940626Y344249D01*
X940632Y344289D01*
X940632Y364238D01*
X940683Y364513D01*
X940847Y364768D01*
X941097Y364940D01*
X941394Y365000D01*
X1001238Y365000D01*
X1001513Y364949D01*
X1001768Y364785D01*
X1001940Y364535D01*
X1002000Y364238D01*
X1002000Y324762D01*
X1001949Y324487D01*
X1001785Y324232D01*
X1001535Y324060D01*
G37*
G36*
X444225Y304101D02*
X443730Y304000D01*
X414676Y304000D01*
X414199Y304093D01*
X414180Y304106D01*
X368770Y304106D01*
X368312Y304191D01*
X367886Y304464D01*
X367601Y304881D01*
X367500Y305376D01*
X367500Y395726D01*
X367592Y396202D01*
X367871Y396623D01*
X368292Y396903D01*
X368789Y396996D01*
X399249Y396534D01*
X399688Y396449D01*
X400114Y396176D01*
X400399Y395760D01*
X400500Y395264D01*
X400500Y319600D01*
X400515Y319508D01*
X400580Y319500D01*
X443730Y319500D01*
X444188Y319415D01*
X444614Y319142D01*
X444899Y318725D01*
X445000Y318230D01*
X445000Y305270D01*
X444915Y304812D01*
X444642Y304386D01*
X444225Y304101D01*
G37*
G36*
X724225Y363601D02*
X723730Y363500D01*
X651270Y363500D01*
X650812Y363585D01*
X650386Y363858D01*
X650101Y364275D01*
X650000Y364770D01*
X650000Y409730D01*
X650085Y410188D01*
X650358Y410614D01*
X650775Y410899D01*
X651270Y411000D01*
X723730Y411000D01*
X724188Y410915D01*
X724614Y410642D01*
X724899Y410225D01*
X725000Y409730D01*
X725000Y364770D01*
X724915Y364312D01*
X724642Y363886D01*
X724225Y363601D01*
G37*
G36*
X276225Y179601D02*
X275730Y179500D01*
X232770Y179500D01*
X232312Y179585D01*
X231886Y179858D01*
X231601Y180275D01*
X231500Y180770D01*
X231500Y226400D01*
X231485Y226492D01*
X231420Y226500D01*
X203270Y226500D01*
X202812Y226585D01*
X202386Y226858D01*
X202101Y227275D01*
X202000Y227770D01*
X202000Y251730D01*
X202085Y252188D01*
X202358Y252614D01*
X202775Y252899D01*
X203270Y253000D01*
X233230Y253000D01*
X233688Y252915D01*
X234114Y252642D01*
X234399Y252225D01*
X234500Y251730D01*
X234500Y240600D01*
X234515Y240508D01*
X234580Y240500D01*
X275730Y240500D01*
X276188Y240415D01*
X276614Y240142D01*
X276899Y239725D01*
X277000Y239230D01*
X277000Y200450D01*
X276915Y199992D01*
X276642Y199566D01*
X276225Y199281D01*
X275730Y199180D01*
X262145Y199180D01*
X262080Y199172D01*
X262065Y199080D01*
X262065Y186100D01*
X262073Y186035D01*
X262165Y186020D01*
X275730Y186020D01*
X276188Y185935D01*
X276614Y185662D01*
X276899Y185245D01*
X277000Y184750D01*
X277000Y180770D01*
X276915Y180312D01*
X276642Y179886D01*
X276225Y179601D01*
G37*
G36*
X202725Y395601D02*
X202230Y395500D01*
X168017Y395500D01*
X167579Y395578D01*
X167148Y395844D01*
X166856Y396256D01*
X166748Y396750D01*
X166840Y397247D01*
X167119Y397668D01*
X167294Y397843D01*
X167294Y440657D01*
X163872Y444079D01*
X163601Y444482D01*
X163500Y444977D01*
X163500Y484730D01*
X163585Y485188D01*
X163858Y485614D01*
X164275Y485899D01*
X164770Y486000D01*
X197730Y486000D01*
X198188Y485915D01*
X198614Y485642D01*
X198899Y485225D01*
X199000Y484730D01*
X199000Y480178D01*
X198911Y479710D01*
X198635Y479287D01*
X198216Y479004D01*
X196994Y478498D01*
X195502Y477006D01*
X194694Y475056D01*
X194694Y472945D01*
X195502Y470994D01*
X196994Y469502D01*
X198216Y468996D01*
X198614Y468735D01*
X198899Y468318D01*
X199000Y467822D01*
X199000Y466600D01*
X199015Y466508D01*
X199080Y466500D01*
X202230Y466500D01*
X202688Y466415D01*
X203114Y466142D01*
X203399Y465725D01*
X203500Y465230D01*
X203500Y396770D01*
X203415Y396312D01*
X203142Y395886D01*
X202725Y395601D01*
G37*
G36*
X622725Y360101D02*
X622230Y360000D01*
X535270Y360000D01*
X534812Y360085D01*
X534386Y360358D01*
X534101Y360775D01*
X534000Y361270D01*
X534000Y395230D01*
X534085Y395688D01*
X534358Y396114D01*
X534775Y396399D01*
X535270Y396500D01*
X578730Y396500D01*
X579188Y396415D01*
X579614Y396142D01*
X579899Y395725D01*
X580000Y395230D01*
X580000Y384600D01*
X580015Y384508D01*
X580080Y384500D01*
X622230Y384500D01*
X622688Y384415D01*
X623114Y384142D01*
X623399Y383725D01*
X623500Y383230D01*
X623500Y361270D01*
X623415Y360812D01*
X623142Y360386D01*
X622725Y360101D01*
G37*
G36*
X336725Y271601D02*
X336230Y271500D01*
X290777Y271500D01*
X290313Y271588D01*
X289889Y271863D01*
X289605Y272282D01*
X289508Y272777D01*
X289822Y326237D01*
X289907Y326688D01*
X290180Y327114D01*
X290597Y327399D01*
X291092Y327500D01*
X336230Y327500D01*
X336688Y327415D01*
X337114Y327142D01*
X337399Y326725D01*
X337500Y326230D01*
X337500Y272770D01*
X337415Y272312D01*
X337142Y271886D01*
X336725Y271601D01*
G37*
G36*
X198431Y29101D02*
X197936Y29000D01*
X167564Y29000D01*
X167106Y29085D01*
X166680Y29358D01*
X166395Y29775D01*
X166294Y30270D01*
X166294Y62157D01*
X165872Y62579D01*
X165601Y62982D01*
X165500Y63477D01*
X165500Y104730D01*
X165585Y105188D01*
X165858Y105614D01*
X166275Y105899D01*
X166770Y106000D01*
X185237Y106000D01*
X185704Y105911D01*
X186128Y105635D01*
X186410Y105216D01*
X186502Y104994D01*
X187994Y103502D01*
X189945Y102694D01*
X192230Y102694D01*
X192688Y102609D01*
X193114Y102336D01*
X193399Y101919D01*
X193500Y101424D01*
X193500Y97600D01*
X193515Y97508D01*
X193580Y97500D01*
X197936Y97500D01*
X198394Y97415D01*
X198820Y97142D01*
X199105Y96725D01*
X199206Y96230D01*
X199206Y30270D01*
X199121Y29812D01*
X198848Y29386D01*
X198431Y29101D01*
G37*
G36*
X233725Y250101D02*
X233230Y250000D01*
X220270Y250000D01*
X219812Y250085D01*
X219386Y250358D01*
X219101Y250775D01*
X219000Y251270D01*
X219000Y296230D01*
X219085Y296688D01*
X219358Y297114D01*
X219775Y297399D01*
X220270Y297500D01*
X246900Y297500D01*
X246992Y297515D01*
X247000Y297580D01*
X247000Y325730D01*
X247085Y326188D01*
X247358Y326614D01*
X247775Y326899D01*
X248270Y327000D01*
X281230Y327000D01*
X281688Y326915D01*
X282114Y326642D01*
X282399Y326225D01*
X282500Y325730D01*
X282500Y286270D01*
X282415Y285812D01*
X282142Y285386D01*
X281725Y285101D01*
X281230Y285000D01*
X234600Y285000D01*
X234508Y284985D01*
X234500Y284920D01*
X234500Y251270D01*
X234415Y250812D01*
X234142Y250386D01*
X233725Y250101D01*
G37*
G36*
X1040913Y149060D02*
X1040616Y149000D01*
X943262Y149000D01*
X942987Y149051D01*
X942732Y149215D01*
X942560Y149465D01*
X942500Y149762D01*
X942500Y166234D01*
X942553Y166512D01*
X942717Y166767D01*
X942968Y166937D01*
X943266Y166996D01*
X1040620Y166537D01*
X1040891Y166486D01*
X1041146Y166323D01*
X1041318Y166072D01*
X1041378Y165775D01*
X1041378Y149762D01*
X1041327Y149487D01*
X1041163Y149232D01*
X1040913Y149060D01*
G37*
G36*
X638225Y111101D02*
X637730Y111000D01*
X596270Y111000D01*
X595812Y111085D01*
X595386Y111358D01*
X595101Y111775D01*
X595000Y112270D01*
X595000Y145730D01*
X595085Y146188D01*
X595358Y146614D01*
X595775Y146899D01*
X596270Y147000D01*
X637730Y147000D01*
X638188Y146915D01*
X638614Y146642D01*
X638899Y146225D01*
X639000Y145730D01*
X639000Y112270D01*
X638915Y111812D01*
X638642Y111386D01*
X638225Y111101D01*
G37*
G36*
X423225Y314601D02*
X422730Y314500D01*
X401770Y314500D01*
X401312Y314585D01*
X400886Y314858D01*
X400601Y315275D01*
X400500Y315770D01*
X400500Y316000D01*
X400011Y375720D01*
X400096Y376188D01*
X400368Y376614D01*
X400785Y376899D01*
X401280Y377000D01*
X422730Y377000D01*
X423188Y376915D01*
X423614Y376642D01*
X423899Y376225D01*
X424000Y375730D01*
X424000Y315770D01*
X423915Y315312D01*
X423642Y314886D01*
X423225Y314601D01*
G37*
G36*
X393945Y257101D02*
X393450Y257000D01*
X344816Y257000D01*
X344316Y257102D01*
X343901Y257390D01*
X343630Y257817D01*
X343547Y258315D01*
X344046Y272275D01*
X344130Y272688D01*
X344403Y273114D01*
X344819Y273399D01*
X345315Y273500D01*
X395900Y273500D01*
X395992Y273515D01*
X396000Y273580D01*
X396000Y293730D01*
X396085Y294188D01*
X396358Y294614D01*
X396775Y294899D01*
X397270Y295000D01*
X405730Y295000D01*
X406188Y294915D01*
X406614Y294642D01*
X406899Y294225D01*
X407000Y293730D01*
X407000Y269205D01*
X406915Y268747D01*
X406642Y268321D01*
X406225Y268036D01*
X405730Y267935D01*
X394800Y267935D01*
X394735Y267927D01*
X394720Y267835D01*
X394720Y258270D01*
X394635Y257812D01*
X394362Y257386D01*
X393945Y257101D01*
G37*
G36*
X226678Y194144D02*
X226179Y194063D01*
X225975Y194114D01*
X225973Y194105D01*
X225679Y194152D01*
X206270Y194152D01*
X205812Y194237D01*
X205386Y194510D01*
X205101Y194927D01*
X205000Y195422D01*
X205000Y219230D01*
X205085Y219688D01*
X205358Y220114D01*
X205775Y220399D01*
X206270Y220500D01*
X226230Y220500D01*
X226688Y220415D01*
X227114Y220142D01*
X227399Y219725D01*
X227500Y219230D01*
X227500Y195332D01*
X227395Y194828D01*
X227106Y194413D01*
X226678Y194144D01*
G37*
G36*
X396225Y270101D02*
X395730Y270000D01*
X369766Y270000D01*
X369237Y270115D01*
X368829Y270413D01*
X368569Y270847D01*
X368499Y271347D01*
X368629Y271836D01*
X368940Y272234D01*
X394904Y294489D01*
X395198Y294677D01*
X395690Y294794D01*
X396188Y294709D01*
X396614Y294437D01*
X396899Y294020D01*
X397000Y293524D01*
X397000Y271270D01*
X396915Y270812D01*
X396642Y270386D01*
X396225Y270101D01*
G37*
G36*
X250225Y293101D02*
X249730Y293000D01*
X231185Y293000D01*
X230802Y293059D01*
X230360Y293305D01*
X230049Y293703D01*
X229918Y294191D01*
X229988Y294692D01*
X230247Y295126D01*
X248792Y315465D01*
X249198Y315762D01*
X249690Y315879D01*
X250188Y315794D01*
X250614Y315522D01*
X250899Y315105D01*
X251000Y314609D01*
X251000Y294270D01*
X250915Y293812D01*
X250642Y293386D01*
X250225Y293101D01*
G37*
G36*
X443725Y298101D02*
X443230Y298000D01*
X425770Y298000D01*
X425312Y298085D01*
X424886Y298358D01*
X424601Y298775D01*
X424500Y299270D01*
X424500Y304275D01*
X424574Y304702D01*
X424835Y305135D01*
X425245Y305431D01*
X425737Y305545D01*
X443197Y305992D01*
X443688Y305907D01*
X444114Y305635D01*
X444399Y305218D01*
X444500Y304723D01*
X444500Y299270D01*
X444415Y298812D01*
X444142Y298386D01*
X443725Y298101D01*
G37*
G36*
X533426Y-56255D02*
X531034Y-56255D01*
X531034Y-53568D01*
X533426Y-53568D01*
X533426Y-56255D01*
G37*
G36*
X548455Y-56255D02*
X537622Y-56255D01*
X537622Y-54378D01*
X542026Y-54378D01*
X542026Y-41079D01*
X538125Y-43864D01*
X538125Y-41779D01*
X542210Y-38969D01*
X544247Y-38969D01*
X544247Y-54378D01*
X548455Y-54378D01*
X548455Y-56255D01*
G37*
G36*
X499580Y-56255D02*
X488747Y-56255D01*
X488747Y-54378D01*
X493151Y-54378D01*
X493151Y-41079D01*
X489250Y-43864D01*
X489250Y-41779D01*
X493335Y-38969D01*
X495372Y-38969D01*
X495372Y-54378D01*
X499580Y-54378D01*
X499580Y-56255D01*
G37*
G36*
X556461Y-56500D02*
X555872Y-56484D01*
X555311Y-56434D01*
X554780Y-56352D01*
X554277Y-56237D01*
X553804Y-56088D01*
X553360Y-55907D01*
X552946Y-55693D01*
X552560Y-55445D01*
X552206Y-55167D01*
X551886Y-54859D01*
X551600Y-54521D01*
X551348Y-54154D01*
X551131Y-53758D01*
X550947Y-53331D01*
X550798Y-52876D01*
X550683Y-52391D01*
X552916Y-52133D01*
X553012Y-52443D01*
X553125Y-52734D01*
X553255Y-53004D01*
X553403Y-53255D01*
X553567Y-53485D01*
X553749Y-53695D01*
X553948Y-53886D01*
X554164Y-54056D01*
X554397Y-54206D01*
X554648Y-54336D01*
X554915Y-54447D01*
X555200Y-54537D01*
X555502Y-54607D01*
X555821Y-54657D01*
X556157Y-54687D01*
X556510Y-54697D01*
X556943Y-54680D01*
X557351Y-54630D01*
X557736Y-54546D01*
X558096Y-54429D01*
X558432Y-54278D01*
X558744Y-54093D01*
X559032Y-53875D01*
X559295Y-53624D01*
X559531Y-53343D01*
X559735Y-53037D01*
X559908Y-52705D01*
X560050Y-52349D01*
X560160Y-51968D01*
X560238Y-51561D01*
X560285Y-51130D01*
X560301Y-50673D01*
X560285Y-50275D01*
X560238Y-49896D01*
X560159Y-49537D01*
X560048Y-49198D01*
X559906Y-48878D01*
X559732Y-48578D01*
X559526Y-48297D01*
X559289Y-48035D01*
X559025Y-47800D01*
X558739Y-47595D01*
X558431Y-47422D01*
X558100Y-47281D01*
X557748Y-47171D01*
X557374Y-47092D01*
X556978Y-47045D01*
X556559Y-47029D01*
X556119Y-47047D01*
X555694Y-47100D01*
X555285Y-47188D01*
X554891Y-47312D01*
X554504Y-47477D01*
X554118Y-47692D01*
X553732Y-47956D01*
X553345Y-48269D01*
X551186Y-48269D01*
X551763Y-38969D01*
X561589Y-38969D01*
X561589Y-40846D01*
X553774Y-40846D01*
X553443Y-46330D01*
X553813Y-46071D01*
X554205Y-45847D01*
X554618Y-45657D01*
X555053Y-45502D01*
X555511Y-45381D01*
X555990Y-45295D01*
X556491Y-45243D01*
X557013Y-45226D01*
X557635Y-45249D01*
X558224Y-45320D01*
X558781Y-45437D01*
X559306Y-45600D01*
X559798Y-45811D01*
X560258Y-46068D01*
X560685Y-46372D01*
X561080Y-46723D01*
X561435Y-47111D01*
X561743Y-47528D01*
X562003Y-47973D01*
X562216Y-48446D01*
X562382Y-48948D01*
X562501Y-49478D01*
X562572Y-50037D01*
X562595Y-50624D01*
X562589Y-50961D01*
X562570Y-51290D01*
X562538Y-51609D01*
X562494Y-51919D01*
X562436Y-52220D01*
X562367Y-52512D01*
X562284Y-52795D01*
X562189Y-53068D01*
X561960Y-53588D01*
X561681Y-54072D01*
X561351Y-54519D01*
X560970Y-54930D01*
X560544Y-55298D01*
X560078Y-55617D01*
X559574Y-55887D01*
X559030Y-56108D01*
X558447Y-56280D01*
X558140Y-56347D01*
X557824Y-56402D01*
X557498Y-56445D01*
X557162Y-56476D01*
X556817Y-56494D01*
X556461Y-56500D01*
G37*
G36*
X521555Y-56500D02*
X520965Y-56484D01*
X520405Y-56434D01*
X519873Y-56352D01*
X519371Y-56237D01*
X518898Y-56088D01*
X518454Y-55907D01*
X518039Y-55693D01*
X517654Y-55445D01*
X517300Y-55167D01*
X516980Y-54859D01*
X516694Y-54521D01*
X516442Y-54154D01*
X516225Y-53758D01*
X516041Y-53331D01*
X515892Y-52876D01*
X515777Y-52391D01*
X518009Y-52133D01*
X518105Y-52443D01*
X518219Y-52734D01*
X518349Y-53004D01*
X518496Y-53255D01*
X518661Y-53485D01*
X518843Y-53695D01*
X519042Y-53886D01*
X519258Y-54056D01*
X519491Y-54206D01*
X519741Y-54336D01*
X520009Y-54447D01*
X520294Y-54537D01*
X520595Y-54607D01*
X520914Y-54657D01*
X521251Y-54687D01*
X521604Y-54697D01*
X522037Y-54680D01*
X522445Y-54630D01*
X522829Y-54546D01*
X523190Y-54429D01*
X523526Y-54278D01*
X523838Y-54093D01*
X524125Y-53875D01*
X524389Y-53624D01*
X524625Y-53343D01*
X524829Y-53037D01*
X525002Y-52705D01*
X525143Y-52349D01*
X525253Y-51968D01*
X525332Y-51561D01*
X525379Y-51130D01*
X525395Y-50673D01*
X525379Y-50275D01*
X525332Y-49896D01*
X525253Y-49537D01*
X525142Y-49198D01*
X524999Y-48878D01*
X524826Y-48578D01*
X524620Y-48297D01*
X524383Y-48035D01*
X524119Y-47800D01*
X523833Y-47595D01*
X523524Y-47422D01*
X523194Y-47281D01*
X522842Y-47171D01*
X522468Y-47092D01*
X522071Y-47045D01*
X521653Y-47029D01*
X521213Y-47047D01*
X520788Y-47100D01*
X520379Y-47188D01*
X519985Y-47312D01*
X519598Y-47477D01*
X519212Y-47692D01*
X518825Y-47956D01*
X518439Y-48269D01*
X516280Y-48269D01*
X516856Y-38969D01*
X526683Y-38969D01*
X526683Y-40846D01*
X518868Y-40846D01*
X518537Y-46330D01*
X518907Y-46071D01*
X519298Y-45847D01*
X519712Y-45657D01*
X520147Y-45502D01*
X520604Y-45381D01*
X521083Y-45295D01*
X521584Y-45243D01*
X522107Y-45226D01*
X522729Y-45249D01*
X523318Y-45320D01*
X523875Y-45437D01*
X524400Y-45600D01*
X524892Y-45811D01*
X525352Y-46068D01*
X525779Y-46372D01*
X526174Y-46723D01*
X526529Y-47111D01*
X526837Y-47528D01*
X527097Y-47973D01*
X527310Y-48446D01*
X527476Y-48948D01*
X527594Y-49478D01*
X527665Y-50037D01*
X527689Y-50624D01*
X527683Y-50961D01*
X527664Y-51290D01*
X527632Y-51609D01*
X527587Y-51919D01*
X527530Y-52220D01*
X527460Y-52512D01*
X527378Y-52795D01*
X527283Y-53068D01*
X527054Y-53588D01*
X526775Y-54072D01*
X526444Y-54519D01*
X526063Y-54930D01*
X525637Y-55298D01*
X525172Y-55617D01*
X524667Y-55887D01*
X524124Y-56108D01*
X523540Y-56280D01*
X523234Y-56347D01*
X522918Y-56402D01*
X522592Y-56445D01*
X522256Y-56476D01*
X521910Y-56494D01*
X521555Y-56500D01*
G37*
G36*
X507758Y-56500D02*
X507391Y-56491D01*
X507036Y-56465D01*
X506692Y-56421D01*
X506360Y-56359D01*
X506040Y-56279D01*
X505731Y-56181D01*
X505434Y-56066D01*
X505148Y-55933D01*
X504874Y-55782D01*
X504611Y-55614D01*
X504360Y-55428D01*
X504121Y-55224D01*
X503894Y-55002D01*
X503677Y-54763D01*
X503473Y-54506D01*
X503280Y-54231D01*
X503099Y-53939D01*
X502929Y-53631D01*
X502771Y-53306D01*
X502625Y-52966D01*
X502491Y-52609D01*
X502368Y-52235D01*
X502257Y-51846D01*
X502158Y-51440D01*
X502070Y-51018D01*
X501994Y-50579D01*
X501930Y-50124D01*
X501877Y-49653D01*
X501836Y-49166D01*
X501807Y-48662D01*
X501789Y-48142D01*
X501783Y-47606D01*
X501806Y-46528D01*
X501834Y-46015D01*
X501874Y-45519D01*
X501925Y-45041D01*
X501988Y-44580D01*
X502062Y-44137D01*
X502147Y-43711D01*
X502243Y-43303D01*
X502351Y-42912D01*
X502471Y-42538D01*
X502601Y-42182D01*
X502743Y-41843D01*
X502896Y-41522D01*
X503061Y-41219D01*
X503237Y-40932D01*
X503425Y-40663D01*
X503627Y-40412D01*
X503842Y-40178D01*
X504069Y-39961D01*
X504310Y-39761D01*
X504565Y-39579D01*
X504832Y-39414D01*
X505113Y-39267D01*
X505406Y-39137D01*
X505713Y-39024D01*
X506033Y-38929D01*
X506367Y-38850D01*
X506713Y-38790D01*
X507073Y-38746D01*
X507446Y-38720D01*
X507832Y-38712D01*
X508207Y-38720D01*
X508570Y-38747D01*
X508921Y-38791D01*
X509259Y-38852D01*
X509584Y-38931D01*
X509897Y-39027D01*
X510198Y-39141D01*
X510486Y-39273D01*
X510762Y-39422D01*
X511025Y-39589D01*
X511275Y-39773D01*
X511513Y-39975D01*
X511739Y-40194D01*
X511952Y-40431D01*
X512152Y-40685D01*
X512340Y-40957D01*
X512516Y-41246D01*
X512681Y-41552D01*
X512834Y-41875D01*
X512976Y-42214D01*
X513107Y-42571D01*
X513226Y-42944D01*
X513334Y-43334D01*
X513430Y-43742D01*
X513516Y-44166D01*
X513589Y-44607D01*
X513652Y-45064D01*
X513703Y-45539D01*
X513771Y-46539D01*
X513794Y-47606D01*
X513788Y-48139D01*
X513770Y-48657D01*
X513740Y-49158D01*
X513698Y-49643D01*
X513645Y-50113D01*
X513579Y-50566D01*
X513501Y-51003D01*
X513412Y-51424D01*
X513311Y-51830D01*
X513197Y-52219D01*
X513072Y-52592D01*
X512935Y-52950D01*
X512786Y-53291D01*
X512624Y-53616D01*
X512451Y-53925D01*
X512266Y-54219D01*
X512070Y-54495D01*
X511862Y-54753D01*
X511643Y-54994D01*
X511412Y-55217D01*
X511170Y-55422D01*
X510916Y-55609D01*
X510652Y-55778D01*
X510376Y-55930D01*
X510088Y-56064D01*
X509789Y-56180D01*
X509479Y-56278D01*
X509158Y-56358D01*
X508825Y-56420D01*
X508481Y-56465D01*
X508125Y-56491D01*
X507758Y-56500D01*
G37*
%LPC*%
G36*
X507782Y-54697D02*
X508022Y-54690D01*
X508254Y-54670D01*
X508477Y-54636D01*
X508693Y-54588D01*
X508900Y-54527D01*
X509099Y-54452D01*
X509290Y-54364D01*
X509472Y-54261D01*
X509813Y-54016D01*
X510122Y-53717D01*
X510398Y-53363D01*
X510641Y-52955D01*
X510854Y-52490D01*
X511038Y-51967D01*
X511194Y-51386D01*
X511322Y-50747D01*
X511421Y-50049D01*
X511492Y-49293D01*
X511535Y-48479D01*
X511549Y-47606D01*
X511535Y-46703D01*
X511495Y-45864D01*
X511427Y-45090D01*
X511333Y-44380D01*
X511211Y-43734D01*
X511062Y-43153D01*
X510887Y-42636D01*
X510684Y-42184D01*
X510450Y-41790D01*
X510181Y-41448D01*
X509877Y-41159D01*
X509538Y-40923D01*
X509164Y-40739D01*
X508964Y-40667D01*
X508755Y-40608D01*
X508537Y-40562D01*
X508311Y-40529D01*
X508076Y-40509D01*
X507832Y-40503D01*
X507581Y-40509D01*
X507340Y-40529D01*
X507108Y-40561D01*
X506885Y-40606D01*
X506671Y-40665D01*
X506465Y-40736D01*
X506082Y-40917D01*
X505734Y-41150D01*
X505422Y-41434D01*
X505146Y-41771D01*
X504906Y-42159D01*
X504697Y-42606D01*
X504516Y-43121D01*
X504364Y-43701D01*
X504239Y-44349D01*
X504141Y-45063D01*
X504072Y-45844D01*
X504030Y-46692D01*
X504016Y-47606D01*
X504030Y-48495D01*
X504073Y-49323D01*
X504143Y-50089D01*
X504242Y-50793D01*
X504368Y-51435D01*
X504523Y-52016D01*
X504707Y-52535D01*
X504918Y-52992D01*
X505160Y-53391D01*
X505435Y-53738D01*
X505743Y-54031D01*
X506085Y-54271D01*
X506460Y-54457D01*
X506659Y-54530D01*
X506867Y-54590D01*
X507084Y-54637D01*
X507308Y-54670D01*
X507541Y-54690D01*
X507782Y-54697D01*
G37*
%LPD*%
G36*
X-104245Y252711D02*
X-106932Y252711D01*
X-106932Y255103D01*
X-104245Y255103D01*
X-104245Y252711D01*
G37*
G36*
X-108109Y223485D02*
X-108367Y225718D01*
X-108057Y225814D01*
X-107766Y225927D01*
X-107496Y226057D01*
X-107245Y226205D01*
X-107015Y226370D01*
X-106805Y226551D01*
X-106614Y226750D01*
X-106444Y226966D01*
X-106294Y227200D01*
X-106164Y227450D01*
X-106053Y227718D01*
X-105963Y228002D01*
X-105893Y228304D01*
X-105843Y228623D01*
X-105813Y228959D01*
X-105803Y229313D01*
X-105820Y229745D01*
X-105870Y230154D01*
X-105954Y230538D01*
X-106071Y230898D01*
X-106222Y231234D01*
X-106407Y231546D01*
X-106625Y231834D01*
X-106877Y232097D01*
X-107157Y232333D01*
X-107463Y232538D01*
X-107795Y232710D01*
X-108151Y232852D01*
X-108532Y232962D01*
X-108939Y233041D01*
X-109370Y233088D01*
X-109827Y233103D01*
X-110225Y233088D01*
X-110604Y233040D01*
X-110963Y232961D01*
X-111302Y232850D01*
X-111622Y232708D01*
X-111923Y232534D01*
X-112203Y232329D01*
X-112465Y232091D01*
X-112700Y231827D01*
X-112905Y231541D01*
X-113078Y231233D01*
X-113219Y230903D01*
X-113329Y230551D01*
X-113408Y230176D01*
X-113455Y229780D01*
X-113471Y229362D01*
X-113453Y228922D01*
X-113400Y228497D01*
X-113312Y228087D01*
X-113188Y227693D01*
X-113023Y227307D01*
X-112808Y226920D01*
X-112544Y226534D01*
X-112232Y226147D01*
X-112232Y223988D01*
X-121531Y224565D01*
X-121531Y234392D01*
X-119654Y234392D01*
X-119654Y226577D01*
X-114170Y226246D01*
X-114429Y226615D01*
X-114653Y227007D01*
X-114843Y227420D01*
X-114998Y227856D01*
X-115119Y228313D01*
X-115205Y228792D01*
X-115257Y229293D01*
X-115274Y229816D01*
X-115251Y230437D01*
X-115180Y231027D01*
X-115064Y231584D01*
X-114900Y232108D01*
X-114689Y232600D01*
X-114432Y233060D01*
X-114128Y233487D01*
X-113777Y233882D01*
X-113389Y234238D01*
X-112972Y234545D01*
X-112527Y234806D01*
X-112054Y235019D01*
X-111552Y235184D01*
X-111022Y235303D01*
X-110463Y235374D01*
X-109876Y235398D01*
X-109539Y235391D01*
X-109210Y235372D01*
X-108891Y235340D01*
X-108581Y235296D01*
X-108280Y235239D01*
X-107988Y235169D01*
X-107705Y235086D01*
X-107432Y234991D01*
X-106912Y234763D01*
X-106428Y234483D01*
X-105981Y234153D01*
X-105570Y233772D01*
X-105202Y233346D01*
X-104883Y232881D01*
X-104613Y232376D01*
X-104392Y231832D01*
X-104220Y231249D01*
X-104153Y230943D01*
X-104098Y230626D01*
X-104055Y230300D01*
X-104024Y229965D01*
X-104006Y229619D01*
X-104000Y229264D01*
X-104016Y228674D01*
X-104066Y228113D01*
X-104148Y227582D01*
X-104263Y227080D01*
X-104412Y226607D01*
X-104593Y226163D01*
X-104807Y225748D01*
X-105055Y225362D01*
X-105333Y225008D01*
X-105641Y224688D01*
X-105979Y224402D01*
X-106346Y224151D01*
X-106743Y223933D01*
X-107169Y223750D01*
X-107624Y223600D01*
X-108109Y223485D01*
G37*
G36*
X-112489Y272630D02*
X-113042Y272636D01*
X-113579Y272655D01*
X-114100Y272687D01*
X-114604Y272731D01*
X-115092Y272787D01*
X-115563Y272856D01*
X-116019Y272938D01*
X-116458Y273032D01*
X-116881Y273139D01*
X-117287Y273258D01*
X-117677Y273390D01*
X-118051Y273534D01*
X-118409Y273691D01*
X-118750Y273861D01*
X-119075Y274043D01*
X-119384Y274237D01*
X-119675Y274443D01*
X-119947Y274660D01*
X-120201Y274888D01*
X-120436Y275126D01*
X-120652Y275375D01*
X-120849Y275634D01*
X-121028Y275904D01*
X-121187Y276185D01*
X-121328Y276476D01*
X-121450Y276778D01*
X-121554Y277091D01*
X-121638Y277414D01*
X-121704Y277748D01*
X-121751Y278092D01*
X-121779Y278447D01*
X-121788Y278813D01*
X-121775Y279291D01*
X-121733Y279746D01*
X-121665Y280179D01*
X-121568Y280589D01*
X-121444Y280976D01*
X-121293Y281341D01*
X-121114Y281683D01*
X-120908Y282003D01*
X-120674Y282300D01*
X-120413Y282574D01*
X-120124Y282826D01*
X-119808Y283055D01*
X-119464Y283261D01*
X-119093Y283445D01*
X-118694Y283606D01*
X-118267Y283745D01*
X-117887Y281635D01*
X-118143Y281548D01*
X-118382Y281448D01*
X-118604Y281337D01*
X-118810Y281213D01*
X-119000Y281078D01*
X-119173Y280930D01*
X-119330Y280770D01*
X-119470Y280598D01*
X-119593Y280414D01*
X-119700Y280218D01*
X-119791Y280010D01*
X-119865Y279790D01*
X-119923Y279558D01*
X-119964Y279314D01*
X-119989Y279057D01*
X-119997Y278789D01*
X-119990Y278556D01*
X-119970Y278330D01*
X-119935Y278110D01*
X-119887Y277897D01*
X-119825Y277691D01*
X-119750Y277492D01*
X-119557Y277113D01*
X-119310Y276760D01*
X-119007Y276434D01*
X-118649Y276135D01*
X-118237Y275863D01*
X-117772Y275620D01*
X-117258Y275409D01*
X-116695Y275231D01*
X-116082Y275085D01*
X-115420Y274972D01*
X-114709Y274891D01*
X-113949Y274842D01*
X-113139Y274826D01*
X-113410Y274984D01*
X-113664Y275157D01*
X-113902Y275346D01*
X-114122Y275550D01*
X-114326Y275769D01*
X-114514Y276004D01*
X-114684Y276254D01*
X-114838Y276519D01*
X-114975Y276797D01*
X-115093Y277085D01*
X-115194Y277383D01*
X-115276Y277691D01*
X-115339Y278009D01*
X-115385Y278336D01*
X-115412Y278674D01*
X-115421Y279022D01*
X-115398Y279604D01*
X-115328Y280156D01*
X-115211Y280677D01*
X-115047Y281167D01*
X-114837Y281626D01*
X-114579Y282055D01*
X-114275Y282452D01*
X-113925Y282819D01*
X-113534Y283148D01*
X-113112Y283433D01*
X-112657Y283675D01*
X-112170Y283872D01*
X-111651Y284026D01*
X-111100Y284136D01*
X-110516Y284202D01*
X-109901Y284223D01*
X-109235Y284200D01*
X-108605Y284131D01*
X-108011Y284015D01*
X-107453Y283852D01*
X-106931Y283644D01*
X-106446Y283388D01*
X-105996Y283087D01*
X-105582Y282739D01*
X-105211Y282350D01*
X-104890Y281926D01*
X-104618Y281467D01*
X-104395Y280972D01*
X-104222Y280443D01*
X-104154Y280164D01*
X-104099Y279878D01*
X-104055Y279582D01*
X-104024Y279277D01*
X-104006Y278964D01*
X-104000Y278642D01*
X-104008Y278282D01*
X-104034Y277933D01*
X-104076Y277595D01*
X-104135Y277267D01*
X-104212Y276951D01*
X-104305Y276645D01*
X-104415Y276350D01*
X-104543Y276065D01*
X-104687Y275791D01*
X-104848Y275528D01*
X-105026Y275276D01*
X-105221Y275035D01*
X-105433Y274804D01*
X-105662Y274584D01*
X-105908Y274375D01*
X-106171Y274176D01*
X-106450Y273989D01*
X-106745Y273814D01*
X-107055Y273651D01*
X-107380Y273500D01*
X-107721Y273361D01*
X-108077Y273234D01*
X-108449Y273119D01*
X-108836Y273017D01*
X-109239Y272926D01*
X-109657Y272848D01*
X-110090Y272781D01*
X-110539Y272727D01*
X-111004Y272685D01*
X-111483Y272654D01*
X-111979Y272636D01*
X-112489Y272630D01*
G37*
%LPC*%
G36*
X-110330Y275047D02*
X-109841Y275062D01*
X-109375Y275109D01*
X-108932Y275186D01*
X-108511Y275294D01*
X-108113Y275433D01*
X-107738Y275602D01*
X-107385Y275803D01*
X-107054Y276035D01*
X-106755Y276290D01*
X-106496Y276563D01*
X-106277Y276854D01*
X-106097Y277162D01*
X-105958Y277487D01*
X-105858Y277830D01*
X-105798Y278190D01*
X-105779Y278568D01*
X-105795Y278956D01*
X-105846Y279322D01*
X-105929Y279667D01*
X-106047Y279991D01*
X-106198Y280293D01*
X-106382Y280574D01*
X-106600Y280833D01*
X-106852Y281071D01*
X-107133Y281283D01*
X-107439Y281468D01*
X-107770Y281624D01*
X-108126Y281751D01*
X-108508Y281851D01*
X-108914Y281922D01*
X-109346Y281964D01*
X-109802Y281978D01*
X-110258Y281964D01*
X-110687Y281921D01*
X-111089Y281849D01*
X-111465Y281748D01*
X-111813Y281619D01*
X-112135Y281461D01*
X-112430Y281274D01*
X-112698Y281058D01*
X-112936Y280817D01*
X-113143Y280553D01*
X-113318Y280266D01*
X-113461Y279957D01*
X-113573Y279625D01*
X-113652Y279271D01*
X-113700Y278894D01*
X-113716Y278494D01*
X-113702Y278117D01*
X-113660Y277759D01*
X-113589Y277419D01*
X-113491Y277097D01*
X-113364Y276794D01*
X-113209Y276510D01*
X-113026Y276245D01*
X-112814Y275998D01*
X-112578Y275775D01*
X-112321Y275582D01*
X-112042Y275418D01*
X-111742Y275285D01*
X-111421Y275181D01*
X-111079Y275106D01*
X-110715Y275062D01*
X-110330Y275047D01*
G37*
%LPD*%
G36*
X-109042Y258477D02*
X-109457Y258493D01*
X-109855Y258538D01*
X-110236Y258614D01*
X-110600Y258720D01*
X-110947Y258856D01*
X-111278Y259023D01*
X-111591Y259219D01*
X-111888Y259447D01*
X-112162Y259697D01*
X-112408Y259965D01*
X-112625Y260249D01*
X-112814Y260551D01*
X-112975Y260869D01*
X-113107Y261204D01*
X-113211Y261556D01*
X-113287Y261925D01*
X-113336Y261925D01*
X-113431Y261581D01*
X-113550Y261256D01*
X-113693Y260950D01*
X-113860Y260663D01*
X-114052Y260394D01*
X-114267Y260143D01*
X-114507Y259911D01*
X-114771Y259698D01*
X-115053Y259507D01*
X-115347Y259341D01*
X-115653Y259201D01*
X-115970Y259086D01*
X-116300Y258997D01*
X-116641Y258933D01*
X-116994Y258895D01*
X-117360Y258882D01*
X-117842Y258905D01*
X-118300Y258975D01*
X-118736Y259090D01*
X-119148Y259252D01*
X-119536Y259460D01*
X-119901Y259714D01*
X-120243Y260014D01*
X-120562Y260361D01*
X-120849Y260746D01*
X-121098Y261163D01*
X-121309Y261612D01*
X-121482Y262092D01*
X-121616Y262604D01*
X-121712Y263147D01*
X-121769Y263722D01*
X-121788Y264329D01*
X-121770Y264950D01*
X-121713Y265538D01*
X-121619Y266092D01*
X-121488Y266613D01*
X-121319Y267100D01*
X-121112Y267553D01*
X-120868Y267973D01*
X-120586Y268359D01*
X-120272Y268706D01*
X-119932Y269006D01*
X-119565Y269260D01*
X-119172Y269468D01*
X-118753Y269630D01*
X-118307Y269745D01*
X-117834Y269815D01*
X-117335Y269838D01*
X-116970Y269825D01*
X-116617Y269786D01*
X-116275Y269722D01*
X-115946Y269632D01*
X-115628Y269517D01*
X-115322Y269375D01*
X-115028Y269208D01*
X-114746Y269016D01*
X-114483Y268801D01*
X-114246Y268567D01*
X-114225Y268542D01*
X-114034Y268315D01*
X-113848Y268043D01*
X-113687Y267753D01*
X-113553Y267445D01*
X-113444Y267117D01*
X-113360Y266771D01*
X-113311Y266771D01*
X-113230Y267173D01*
X-113122Y267553D01*
X-112987Y267909D01*
X-112825Y268243D01*
X-112636Y268553D01*
X-112420Y268841D01*
X-112177Y269105D01*
X-111959Y269300D01*
X-111906Y269347D01*
X-111614Y269563D01*
X-111303Y269749D01*
X-110975Y269908D01*
X-110629Y270037D01*
X-110265Y270138D01*
X-109883Y270209D01*
X-109484Y270253D01*
X-109066Y270267D01*
X-108771Y270261D01*
X-108485Y270243D01*
X-107936Y270172D01*
X-107421Y270053D01*
X-106938Y269887D01*
X-106488Y269673D01*
X-106071Y269411D01*
X-105688Y269102D01*
X-105337Y268746D01*
X-105023Y268345D01*
X-104752Y267902D01*
X-104522Y267419D01*
X-104334Y266893D01*
X-104188Y266327D01*
X-104083Y265719D01*
X-104021Y265069D01*
X-104000Y264378D01*
X-104020Y263704D01*
X-104082Y263068D01*
X-104184Y262469D01*
X-104328Y261908D01*
X-104512Y261385D01*
X-104738Y260899D01*
X-105005Y260451D01*
X-105312Y260042D01*
X-105658Y259675D01*
X-106038Y259357D01*
X-106452Y259088D01*
X-106901Y258868D01*
X-107384Y258697D01*
X-107902Y258575D01*
X-108174Y258532D01*
X-108455Y258502D01*
X-108744Y258483D01*
X-109042Y258477D01*
G37*
%LPC*%
G36*
X-109226Y260759D02*
X-108794Y260773D01*
X-108389Y260816D01*
X-108013Y260887D01*
X-107664Y260987D01*
X-107343Y261115D01*
X-107050Y261272D01*
X-106785Y261457D01*
X-106548Y261670D01*
X-106339Y261912D01*
X-106158Y262183D01*
X-106004Y262481D01*
X-105879Y262809D01*
X-105781Y263165D01*
X-105712Y263549D01*
X-105670Y263962D01*
X-105656Y264403D01*
X-105669Y264839D01*
X-105710Y265247D01*
X-105777Y265626D01*
X-105872Y265976D01*
X-105994Y266298D01*
X-106142Y266590D01*
X-106318Y266854D01*
X-106521Y267090D01*
X-106753Y267297D01*
X-107017Y267476D01*
X-107313Y267628D01*
X-107642Y267752D01*
X-108002Y267849D01*
X-108394Y267918D01*
X-108819Y267959D01*
X-109275Y267973D01*
X-109664Y267958D01*
X-110029Y267913D01*
X-110369Y267838D01*
X-110684Y267734D01*
X-110975Y267599D01*
X-111240Y267435D01*
X-111482Y267240D01*
X-111698Y267016D01*
X-111889Y266765D01*
X-112055Y266489D01*
X-112195Y266190D01*
X-112310Y265866D01*
X-112399Y265518D01*
X-112463Y265146D01*
X-112501Y264750D01*
X-112514Y264329D01*
X-112500Y263921D01*
X-112459Y263535D01*
X-112390Y263172D01*
X-112294Y262833D01*
X-112171Y262516D01*
X-112020Y262222D01*
X-111842Y261952D01*
X-111637Y261704D01*
X-111407Y261482D01*
X-111157Y261291D01*
X-110886Y261128D01*
X-110595Y260995D01*
X-110284Y260892D01*
X-109952Y260818D01*
X-109599Y260774D01*
X-109226Y260759D01*
G37*
G36*
X-117212Y261140D02*
X-116852Y261153D01*
X-116514Y261192D01*
X-116198Y261258D01*
X-115904Y261350D01*
X-115632Y261468D01*
X-115382Y261612D01*
X-115155Y261783D01*
X-114949Y261980D01*
X-114766Y262201D01*
X-114608Y262443D01*
X-114474Y262708D01*
X-114365Y262994D01*
X-114279Y263301D01*
X-114219Y263630D01*
X-114182Y263981D01*
X-114170Y264354D01*
X-114181Y264732D01*
X-114215Y265086D01*
X-114271Y265418D01*
X-114349Y265726D01*
X-114450Y266011D01*
X-114574Y266273D01*
X-114719Y266512D01*
X-114888Y266728D01*
X-115081Y266919D01*
X-115302Y267085D01*
X-115551Y267225D01*
X-115828Y267340D01*
X-116132Y267429D01*
X-116464Y267493D01*
X-116824Y267531D01*
X-117212Y267543D01*
X-117567Y267531D01*
X-117900Y267493D01*
X-118209Y267430D01*
X-118495Y267343D01*
X-118759Y267230D01*
X-118999Y267091D01*
X-119217Y266928D01*
X-119411Y266740D01*
X-119583Y266526D01*
X-119732Y266288D01*
X-119858Y266024D01*
X-119961Y265735D01*
X-120041Y265422D01*
X-120099Y265083D01*
X-120133Y264718D01*
X-120144Y264329D01*
X-120133Y263951D01*
X-120098Y263597D01*
X-120041Y263265D01*
X-119960Y262957D01*
X-119857Y262672D01*
X-119730Y262410D01*
X-119581Y262171D01*
X-119408Y261955D01*
X-119213Y261764D01*
X-118995Y261598D01*
X-118754Y261458D01*
X-118491Y261344D01*
X-118205Y261254D01*
X-117897Y261191D01*
X-117566Y261152D01*
X-117212Y261140D01*
G37*
%LPD*%
G36*
X-112894Y237429D02*
X-113972Y237452D01*
X-114485Y237481D01*
X-114981Y237520D01*
X-115459Y237571D01*
X-115920Y237634D01*
X-116363Y237708D01*
X-116789Y237793D01*
X-117197Y237889D01*
X-117588Y237997D01*
X-117962Y238117D01*
X-118318Y238247D01*
X-118657Y238389D01*
X-118978Y238543D01*
X-119282Y238707D01*
X-119568Y238883D01*
X-119837Y239072D01*
X-120088Y239273D01*
X-120322Y239488D01*
X-120539Y239716D01*
X-120739Y239957D01*
X-120921Y240211D01*
X-121086Y240478D01*
X-121233Y240759D01*
X-121363Y241052D01*
X-121476Y241359D01*
X-121571Y241679D01*
X-121650Y242013D01*
X-121710Y242359D01*
X-121754Y242719D01*
X-121780Y243092D01*
X-121788Y243478D01*
X-121780Y243853D01*
X-121753Y244216D01*
X-121709Y244567D01*
X-121648Y244905D01*
X-121569Y245231D01*
X-121473Y245544D01*
X-121359Y245844D01*
X-121227Y246132D01*
X-121078Y246408D01*
X-120911Y246671D01*
X-120727Y246921D01*
X-120525Y247159D01*
X-120306Y247385D01*
X-120069Y247598D01*
X-119815Y247798D01*
X-119543Y247986D01*
X-119254Y248162D01*
X-118948Y248327D01*
X-118625Y248480D01*
X-118286Y248622D01*
X-117929Y248753D01*
X-117556Y248872D01*
X-117166Y248980D01*
X-116758Y249076D01*
X-116334Y249162D01*
X-115894Y249235D01*
X-115436Y249298D01*
X-114961Y249349D01*
X-113961Y249417D01*
X-112894Y249440D01*
X-112361Y249434D01*
X-111843Y249416D01*
X-111342Y249386D01*
X-110857Y249344D01*
X-110387Y249291D01*
X-109934Y249225D01*
X-109497Y249148D01*
X-109076Y249058D01*
X-108670Y248957D01*
X-108281Y248843D01*
X-107908Y248718D01*
X-107550Y248581D01*
X-107209Y248432D01*
X-106884Y248271D01*
X-106575Y248097D01*
X-106281Y247913D01*
X-106005Y247716D01*
X-105747Y247508D01*
X-105506Y247289D01*
X-105283Y247058D01*
X-105078Y246816D01*
X-104891Y246563D01*
X-104722Y246298D01*
X-104570Y246022D01*
X-104436Y245734D01*
X-104321Y245435D01*
X-104223Y245125D01*
X-104142Y244804D01*
X-104080Y244471D01*
X-104035Y244127D01*
X-104009Y243771D01*
X-104000Y243404D01*
X-104009Y243037D01*
X-104035Y242682D01*
X-104079Y242338D01*
X-104142Y242006D01*
X-104221Y241686D01*
X-104319Y241377D01*
X-104434Y241080D01*
X-104567Y240794D01*
X-104718Y240520D01*
X-104886Y240257D01*
X-105072Y240007D01*
X-105276Y239767D01*
X-105498Y239540D01*
X-105737Y239324D01*
X-105994Y239119D01*
X-106269Y238926D01*
X-106561Y238745D01*
X-106869Y238575D01*
X-107194Y238418D01*
X-107534Y238271D01*
X-107891Y238137D01*
X-108265Y238014D01*
X-108654Y237903D01*
X-109060Y237804D01*
X-109482Y237716D01*
X-109921Y237640D01*
X-110376Y237576D01*
X-110847Y237523D01*
X-111334Y237482D01*
X-111838Y237453D01*
X-112358Y237435D01*
X-112894Y237429D01*
G37*
%LPC*%
G36*
X-112894Y239662D02*
X-112005Y239676D01*
X-111177Y239719D01*
X-110411Y239789D01*
X-109707Y239888D01*
X-109065Y240014D01*
X-108484Y240169D01*
X-107965Y240353D01*
X-107508Y240564D01*
X-107109Y240806D01*
X-106762Y241081D01*
X-106469Y241389D01*
X-106229Y241731D01*
X-106043Y242106D01*
X-105970Y242305D01*
X-105910Y242513D01*
X-105863Y242730D01*
X-105830Y242954D01*
X-105810Y243187D01*
X-105803Y243429D01*
X-105810Y243668D01*
X-105830Y243900D01*
X-105864Y244123D01*
X-105912Y244339D01*
X-105973Y244546D01*
X-106048Y244745D01*
X-106136Y244936D01*
X-106239Y245118D01*
X-106484Y245460D01*
X-106783Y245768D01*
X-107137Y246044D01*
X-107545Y246287D01*
X-108010Y246500D01*
X-108533Y246684D01*
X-109114Y246840D01*
X-109753Y246968D01*
X-110451Y247067D01*
X-111207Y247138D01*
X-112021Y247181D01*
X-112894Y247195D01*
X-113797Y247181D01*
X-114636Y247141D01*
X-115410Y247073D01*
X-116120Y246979D01*
X-116766Y246857D01*
X-117347Y246708D01*
X-117864Y246533D01*
X-118316Y246330D01*
X-118710Y246096D01*
X-119052Y245827D01*
X-119341Y245523D01*
X-119577Y245184D01*
X-119761Y244810D01*
X-119833Y244610D01*
X-119892Y244401D01*
X-119938Y244183D01*
X-119971Y243957D01*
X-119991Y243722D01*
X-119997Y243478D01*
X-119991Y243228D01*
X-119971Y242986D01*
X-119939Y242754D01*
X-119894Y242531D01*
X-119835Y242317D01*
X-119764Y242112D01*
X-119583Y241728D01*
X-119350Y241380D01*
X-119066Y241068D01*
X-118729Y240792D01*
X-118341Y240552D01*
X-117894Y240343D01*
X-117379Y240163D01*
X-116799Y240010D01*
X-116151Y239885D01*
X-115437Y239787D01*
X-114656Y239718D01*
X-113808Y239676D01*
X-112894Y239662D01*
G37*
%LPD*%
D10*
X0Y508600D02*
X-118000Y508600D01*
X-118000Y0D02*
X0Y0D01*
X-98500Y650D02*
X-98500Y507950D01*
X-101692Y482600D01*
X-95308Y482600D01*
X-98500Y507950D01*
X-99800Y482600D01*
X-97200Y482600D02*
X-98500Y507950D01*
X-101100Y482600D01*
X-95900Y482600D02*
X-98500Y507950D01*
X-101692Y26000D02*
X-98500Y650D01*
X-101692Y26000D02*
X-95308Y26000D01*
X-98500Y650D01*
X-99800Y26000D01*
X-97200Y26000D02*
X-98500Y650D01*
X-101100Y26000D01*
X-95900Y26000D02*
X-98500Y650D01*
X1051500Y-2000D02*
X1051500Y-81500D01*
X0Y-81500D02*
X0Y-2000D01*
X650Y-62000D02*
X1050850Y-62000D01*
X1025500Y-58808D01*
X1025500Y-65192D01*
X1050850Y-62000D01*
X1025500Y-60700D01*
X1025500Y-63300D02*
X1050850Y-62000D01*
X1025500Y-59400D01*
X1025500Y-64600D02*
X1050850Y-62000D01*
X26000Y-58808D02*
X650Y-62000D01*
X26000Y-58808D02*
X26000Y-65192D01*
X650Y-62000D01*
X26000Y-60700D01*
X26000Y-63300D02*
X650Y-62000D01*
X26000Y-59400D01*
X26000Y-64600D02*
X650Y-62000D01*
D11*
X282011Y436000D03*
X297989Y436000D03*
D12*
X248865Y192600D03*
X305935Y192600D03*
D13*
X216000Y198458D03*
X216000Y170542D03*
D11*
G36*
X66366Y243817D02*
X72815Y237368D01*
X62932Y227485D01*
X56483Y233934D01*
X66366Y243817D01*
G37*
G36*
X55068Y255115D02*
X61517Y248666D01*
X51634Y238783D01*
X45185Y245232D01*
X55068Y255115D01*
G37*
D14*
X401300Y281135D03*
X401300Y224065D03*
D15*
X247000Y492728D03*
X233000Y492728D03*
D16*
X136500Y477278D03*
X136500Y491278D03*
X120000Y457000D03*
X120000Y443000D03*
D17*
X350500Y262958D03*
X350500Y300042D03*
D18*
X325000Y283042D03*
X325000Y246958D03*
D19*
X248300Y262050D03*
X300300Y262050D03*
X248300Y274750D03*
X248300Y249350D03*
X248300Y236650D03*
X300300Y274750D03*
X300300Y249350D03*
X300300Y236650D03*
D20*
X322900Y319100D03*
X258900Y319100D03*
D21*
X215900Y215398D03*
X215900Y247402D03*
D22*
X178000Y174500D03*
X178000Y204500D03*
D23*
X188000Y237500D03*
X188000Y221500D03*
D24*
X120000Y417250D03*
X120000Y402750D03*
D25*
X188400Y372500D03*
X204400Y372500D03*
X244900Y383000D03*
X260900Y383000D03*
D23*
X300000Y418000D03*
X300000Y402000D03*
X270000Y478000D03*
X270000Y462000D03*
D26*
G36*
X61142Y286551D02*
X50537Y275946D01*
X46648Y279835D01*
X57253Y290440D01*
X61142Y286551D01*
G37*
G36*
X66799Y280895D02*
X56194Y270290D01*
X52305Y274179D01*
X62910Y284784D01*
X66799Y280895D01*
G37*
G36*
X72456Y275238D02*
X61851Y264633D01*
X57962Y268522D01*
X68567Y279127D01*
X72456Y275238D01*
G37*
G36*
X78113Y269581D02*
X67508Y258976D01*
X63619Y262865D01*
X74224Y273470D01*
X78113Y269581D01*
G37*
G36*
X83770Y263924D02*
X73165Y253319D01*
X69276Y257208D01*
X79881Y267813D01*
X83770Y263924D01*
G37*
G36*
X89427Y258267D02*
X78822Y247662D01*
X74933Y251551D01*
X85538Y262156D01*
X89427Y258267D01*
G37*
G36*
X95084Y252610D02*
X84479Y242005D01*
X80590Y245894D01*
X91195Y256499D01*
X95084Y252610D01*
G37*
G36*
X100740Y246953D02*
X90135Y236348D01*
X86246Y240237D01*
X96851Y250842D01*
X100740Y246953D01*
G37*
D27*
G36*
X121954Y240237D02*
X118065Y236348D01*
X107460Y246953D01*
X111349Y250842D01*
X121954Y240237D01*
G37*
G36*
X127610Y245894D02*
X123721Y242005D01*
X113116Y252610D01*
X117005Y256499D01*
X127610Y245894D01*
G37*
G36*
X133267Y251551D02*
X129378Y247662D01*
X118773Y258267D01*
X122662Y262156D01*
X133267Y251551D01*
G37*
G36*
X138924Y257208D02*
X135035Y253319D01*
X124430Y263924D01*
X128319Y267813D01*
X138924Y257208D01*
G37*
G36*
X144581Y262865D02*
X140692Y258976D01*
X130087Y269581D01*
X133976Y273470D01*
X144581Y262865D01*
G37*
G36*
X150238Y268522D02*
X146349Y264633D01*
X135744Y275238D01*
X139633Y279127D01*
X150238Y268522D01*
G37*
G36*
X155895Y274179D02*
X152006Y270290D01*
X141401Y280895D01*
X145290Y284784D01*
X155895Y274179D01*
G37*
G36*
X161552Y279835D02*
X157663Y275946D01*
X147058Y286551D01*
X150947Y290440D01*
X161552Y279835D01*
G37*
D26*
G36*
X161552Y307765D02*
X150947Y297160D01*
X147058Y301049D01*
X157663Y311654D01*
X161552Y307765D01*
G37*
G36*
X155895Y313421D02*
X145290Y302816D01*
X141401Y306705D01*
X152006Y317310D01*
X155895Y313421D01*
G37*
G36*
X150238Y319078D02*
X139633Y308473D01*
X135744Y312362D01*
X146349Y322967D01*
X150238Y319078D01*
G37*
G36*
X144581Y324735D02*
X133976Y314130D01*
X130087Y318019D01*
X140692Y328624D01*
X144581Y324735D01*
G37*
G36*
X138924Y330392D02*
X128319Y319787D01*
X124430Y323676D01*
X135035Y334281D01*
X138924Y330392D01*
G37*
G36*
X133267Y336049D02*
X122662Y325444D01*
X118773Y329333D01*
X129378Y339938D01*
X133267Y336049D01*
G37*
G36*
X127610Y341706D02*
X117005Y331101D01*
X113116Y334990D01*
X123721Y345595D01*
X127610Y341706D01*
G37*
G36*
X121954Y347363D02*
X111349Y336758D01*
X107460Y340647D01*
X118065Y351252D01*
X121954Y347363D01*
G37*
D27*
G36*
X100740Y340647D02*
X96851Y336758D01*
X86246Y347363D01*
X90135Y351252D01*
X100740Y340647D01*
G37*
G36*
X95084Y334990D02*
X91195Y331101D01*
X80590Y341706D01*
X84479Y345595D01*
X95084Y334990D01*
G37*
G36*
X89427Y329333D02*
X85538Y325444D01*
X74933Y336049D01*
X78822Y339938D01*
X89427Y329333D01*
G37*
G36*
X83770Y323676D02*
X79881Y319787D01*
X69276Y330392D01*
X73165Y334281D01*
X83770Y323676D01*
G37*
G36*
X78113Y318019D02*
X74224Y314130D01*
X63619Y324735D01*
X67508Y328624D01*
X78113Y318019D01*
G37*
G36*
X72456Y312362D02*
X68567Y308473D01*
X57962Y319078D01*
X61851Y322967D01*
X72456Y312362D01*
G37*
G36*
X66799Y306705D02*
X62910Y302816D01*
X52305Y313421D01*
X56194Y317310D01*
X66799Y306705D01*
G37*
G36*
X61142Y301049D02*
X57253Y297160D01*
X46648Y307765D01*
X50537Y311654D01*
X61142Y301049D01*
G37*
D16*
X270000Y417000D03*
X270000Y403000D03*
X300000Y477000D03*
X300000Y463000D03*
D28*
X435000Y429387D03*
X435000Y460613D03*
X615000Y429387D03*
X615000Y460613D03*
X615000Y344387D03*
X615000Y375613D03*
X435000Y335613D03*
X435000Y304387D03*
D29*
X433900Y413400D03*
X433900Y399400D03*
X435000Y353000D03*
X435000Y367000D03*
X615000Y412000D03*
X615000Y398000D03*
X615000Y327000D03*
X615000Y313000D03*
D16*
X445000Y268000D03*
X445000Y282000D03*
D15*
X183700Y137500D03*
X197700Y137500D03*
D16*
X126500Y104500D03*
X126500Y118500D03*
X119500Y72500D03*
X119500Y86500D03*
D24*
X136000Y26750D03*
X136000Y41250D03*
D25*
X262000Y140000D03*
X278000Y140000D03*
X243400Y27000D03*
X259400Y27000D03*
D23*
X300000Y58000D03*
X300000Y42000D03*
X270000Y118000D03*
X270000Y102000D03*
D11*
X272011Y80000D03*
X287989Y80000D03*
D16*
X270000Y57000D03*
X270000Y43000D03*
X300000Y117000D03*
X300000Y103000D03*
D28*
X475000Y79613D03*
X475000Y48387D03*
X648500Y79613D03*
X648500Y48387D03*
X632500Y173613D03*
X632500Y142387D03*
X394000Y135887D03*
X394000Y167113D03*
D29*
X475500Y97000D03*
X475500Y111000D03*
X414000Y142500D03*
X414000Y128500D03*
X648500Y98000D03*
X648500Y112000D03*
X650500Y173000D03*
X650500Y159000D03*
D16*
X478000Y231000D03*
X478000Y217000D03*
D30*
X40000Y449000D03*
X54000Y449000D03*
X40000Y432500D03*
X54000Y432500D03*
X40000Y416500D03*
X54000Y416500D03*
D23*
X160500Y237500D03*
X160500Y221500D03*
D22*
X148500Y174000D03*
X148500Y204000D03*
D16*
X170000Y337000D03*
X170000Y323000D03*
X150000Y357000D03*
X150000Y343000D03*
D31*
G36*
X44379Y331025D02*
X51025Y324379D01*
X45721Y319075D01*
X39075Y325721D01*
X44379Y331025D01*
G37*
G36*
X54279Y340925D02*
X60925Y334279D01*
X55621Y328975D01*
X48975Y335621D01*
X54279Y340925D01*
G37*
D32*
G36*
X55541Y364610D02*
X51242Y360311D01*
X45311Y366242D01*
X49610Y370541D01*
X55541Y364610D01*
G37*
G36*
X64689Y373758D02*
X60390Y369459D01*
X54459Y375390D01*
X58758Y379689D01*
X64689Y373758D01*
G37*
D33*
X779050Y418000D03*
X766350Y418000D03*
X753650Y418000D03*
X740950Y418000D03*
X740950Y362000D03*
X753650Y362000D03*
X766350Y362000D03*
X779050Y362000D03*
X740950Y92000D03*
X753650Y92000D03*
X766350Y92000D03*
X779050Y92000D03*
X779050Y148000D03*
X766350Y148000D03*
X753650Y148000D03*
X740950Y148000D03*
D34*
X751500Y310000D03*
X738500Y310000D03*
D15*
X752000Y330000D03*
X738000Y330000D03*
D34*
X761200Y195000D03*
X774200Y195000D03*
D15*
X762600Y174600D03*
X776600Y174600D03*
D35*
X74050Y126578D03*
X97550Y126578D03*
X85800Y184022D03*
D36*
G36*
X65086Y357015D02*
X72015Y350086D01*
X65722Y343793D01*
X58793Y350722D01*
X65086Y357015D01*
G37*
G36*
X74278Y366207D02*
X81207Y359278D01*
X74914Y352985D01*
X67985Y359914D01*
X74278Y366207D01*
G37*
D37*
X161550Y143524D03*
X129050Y143524D03*
D38*
X37000Y465000D03*
X58000Y465000D03*
D39*
X214000Y322500D03*
X193500Y304000D03*
D40*
G36*
X98429Y208193D02*
X94837Y204601D01*
X84601Y214837D01*
X88193Y218429D01*
X98429Y208193D01*
G37*
G36*
X93086Y223322D02*
X96678Y226914D01*
X106914Y216678D01*
X103322Y213086D01*
X93086Y223322D01*
G37*
G36*
X101571Y231807D02*
X105163Y235399D01*
X115399Y225163D01*
X111807Y221571D01*
X101571Y231807D01*
G37*
D41*
X679050Y367370D03*
X666350Y367370D03*
X653650Y367370D03*
X640950Y367370D03*
D42*
X660000Y312630D03*
D43*
X660000Y335620D03*
D41*
X499050Y367370D03*
X486350Y367370D03*
X473650Y367370D03*
X460950Y367370D03*
D42*
X480000Y312630D03*
D43*
X480000Y335620D03*
D41*
X370950Y392630D03*
X383650Y392630D03*
X396350Y392630D03*
X409050Y392630D03*
D42*
X390000Y447370D03*
D43*
X390000Y424380D03*
D41*
X550950Y392630D03*
X563650Y392630D03*
X576350Y392630D03*
X589050Y392630D03*
D42*
X570000Y447370D03*
D43*
X570000Y424380D03*
D41*
X452050Y114370D03*
X439350Y114370D03*
X426650Y114370D03*
X413950Y114370D03*
D42*
X433000Y59630D03*
D43*
X433000Y82620D03*
D41*
X502950Y141630D03*
X515650Y141630D03*
X528350Y141630D03*
X541050Y141630D03*
D42*
X522000Y196370D03*
D43*
X522000Y173380D03*
D41*
X625050Y117370D03*
X612350Y117370D03*
X599650Y117370D03*
X586950Y117370D03*
D42*
X606000Y62630D03*
D43*
X606000Y85620D03*
D41*
X662950Y142630D03*
X675650Y142630D03*
X688350Y142630D03*
X701050Y142630D03*
D42*
X682000Y197370D03*
D43*
X682000Y174380D03*
D44*
X20000Y496300D03*
D45*
X20000Y470900D03*
X20000Y445500D03*
X20000Y420100D03*
X20000Y394700D03*
X20000Y369300D03*
X20000Y343900D03*
X20000Y318500D03*
X20000Y293100D03*
X20000Y267700D03*
X20000Y242300D03*
X20000Y216900D03*
X20000Y191500D03*
X20000Y166100D03*
X20000Y140700D03*
X20000Y115300D03*
X20000Y89900D03*
X20000Y64500D03*
X20000Y39100D03*
X20000Y13700D03*
D46*
X828563Y354500D03*
X968437Y354500D03*
X830063Y158000D03*
X969937Y158000D03*
D47*
X213500Y24250D03*
X213500Y30750D03*
X213500Y37250D03*
X213500Y43750D03*
X213500Y50250D03*
X213500Y56750D03*
X213500Y63250D03*
X213500Y69750D03*
X213500Y76250D03*
X213500Y82750D03*
X213500Y89250D03*
X213500Y95750D03*
X213500Y102250D03*
X213500Y108750D03*
X152500Y108750D03*
X152500Y102250D03*
X152500Y95750D03*
X152500Y89250D03*
X152500Y82750D03*
X152500Y76250D03*
X152500Y69750D03*
X152500Y63250D03*
X152500Y56750D03*
X152500Y50250D03*
X152500Y43750D03*
X152500Y37250D03*
X152500Y30750D03*
X152500Y24250D03*
D48*
X183000Y66500D03*
D47*
X214000Y396750D03*
X214000Y403250D03*
X214000Y409750D03*
X214000Y416250D03*
X214000Y422750D03*
X214000Y429250D03*
X214000Y435750D03*
X214000Y442250D03*
X214000Y448750D03*
X214000Y455250D03*
X214000Y461750D03*
X214000Y468250D03*
X214000Y474750D03*
X214000Y481250D03*
X153000Y481250D03*
X153000Y474750D03*
X153000Y468250D03*
X153000Y461750D03*
X153000Y455250D03*
X153000Y448750D03*
X153000Y442250D03*
X153000Y435750D03*
X153000Y429250D03*
X153000Y422750D03*
X153000Y416250D03*
X153000Y409750D03*
X153000Y403250D03*
X153000Y396750D03*
D48*
X183500Y439000D03*
D49*
X1013000Y401000D03*
X1011628Y466928D03*
X1015000Y112000D03*
X1011500Y44000D03*
X1015500Y284500D03*
X1016000Y206500D03*
D50*
X734854Y459000D03*
X785146Y459000D03*
X734854Y47000D03*
X785146Y47000D03*
D51*
X196886Y246386D02*
X188000Y237500D01*
X196886Y246386D02*
X215900Y247402D01*
X178000Y211500D02*
X178000Y204500D01*
X178000Y211500D02*
X188000Y221500D01*
D52*
X61951Y255549D02*
X53351Y246949D01*
X69500Y248000D02*
X75271Y248000D01*
X69500Y248000D02*
X61951Y255549D01*
X216000Y198458D02*
X216000Y187000D01*
X213000Y184000D01*
X198000Y184000D01*
D51*
X53500Y246800D02*
X53351Y246949D01*
D52*
X53500Y246800D02*
X53500Y225000D01*
X59574Y374574D02*
X81750Y396750D01*
X86000Y401000D01*
X93500Y299000D02*
X93500Y288857D01*
D53*
X93500Y299000D03*
X88000Y390500D03*
D52*
X81750Y396750D01*
X86000Y401000D02*
X86000Y437000D01*
D51*
X161584Y323000D02*
X148648Y310063D01*
X740950Y191950D02*
X740950Y148000D01*
X740950Y191950D02*
X744500Y195500D01*
X760700Y195500D01*
X761200Y195000D01*
X754000Y310000D02*
X751500Y310000D01*
X754000Y310000D02*
X769500Y310000D01*
X779050Y319550D01*
X779050Y362000D01*
D52*
X82180Y254909D02*
X75271Y248000D01*
X85584Y192916D02*
X127584Y192916D01*
X85584Y192916D02*
X53500Y225000D01*
X86000Y437000D02*
X58000Y465000D01*
D51*
X170000Y323000D02*
X213500Y323000D01*
X214000Y322500D01*
X170000Y323000D02*
X161584Y323000D01*
D53*
X197000Y192500D03*
D52*
X198000Y191500D01*
X198000Y184000D01*
X70866Y264464D02*
X70866Y266223D01*
X70866Y264464D02*
X61951Y255549D01*
X70866Y266223D02*
X93500Y288857D01*
D53*
X722000Y142500D03*
X560000Y101500D03*
X560000Y56500D03*
X574500Y19000D03*
D51*
X727500Y148000D02*
X740950Y148000D01*
X727500Y148000D02*
X722000Y142500D01*
X560000Y101500D02*
X560000Y56500D01*
X574500Y19000D02*
X565500Y10000D01*
X200000Y10000D01*
X194500Y15500D01*
D53*
X194500Y15500D03*
X191000Y108000D03*
D51*
X760700Y224200D02*
X761000Y224500D01*
X760700Y224200D02*
X760700Y195500D01*
D53*
X761000Y224500D03*
X762000Y283500D03*
D51*
X762000Y302000D01*
X754000Y310000D01*
D52*
X198000Y184000D02*
X136221Y184000D01*
D54*
X90996Y143524D02*
X74050Y126578D01*
X90996Y143524D02*
X129050Y143524D01*
D52*
X129050Y176829D02*
X136221Y184000D01*
X129050Y176829D02*
X129050Y143524D01*
X136221Y184279D02*
X127584Y192916D01*
X136221Y184279D02*
X136221Y184000D01*
X129050Y143524D02*
X147574Y125000D01*
X176000Y125000D01*
X191000Y110000D01*
X191000Y108000D01*
D55*
X349592Y262050D02*
X350500Y262958D01*
X349592Y262050D02*
X300300Y262050D01*
D51*
X153000Y481250D02*
X142972Y491278D01*
X136500Y491278D01*
X134000Y403250D02*
X153000Y403250D01*
X134000Y403250D02*
X120000Y417250D01*
X615000Y412000D02*
X615000Y429387D01*
X615000Y412000D02*
X614274Y411274D01*
X609462Y411274D01*
X602188Y404000D02*
X538500Y404000D01*
X602188Y404000D02*
X609462Y411274D01*
X318694Y469694D02*
X289893Y469694D01*
X282199Y462000D01*
X341076Y492076D02*
X521924Y492076D01*
X341076Y492076D02*
X318694Y469694D01*
X521924Y492076D02*
X533500Y480500D01*
X533500Y409000D01*
X538500Y404000D01*
X263250Y455250D02*
X214000Y455250D01*
X263250Y455250D02*
X270000Y462000D01*
X282199Y462000D01*
X285750Y448750D02*
X300000Y463000D01*
X285750Y448750D02*
X214000Y448750D01*
X270000Y417500D02*
X270000Y417000D01*
X257250Y430250D02*
X215000Y430250D01*
X214000Y429250D01*
X257250Y430250D02*
X270000Y417500D01*
X435000Y413400D02*
X435000Y429387D01*
X435000Y413400D02*
X433900Y413400D01*
X440100Y413400D01*
X446500Y407000D01*
D53*
X446500Y407000D03*
X446500Y391500D03*
X344500Y418000D03*
X344500Y393500D03*
D51*
X344753Y393500D01*
X356817Y405564D01*
X416436Y405564D01*
X431436Y390564D01*
X445564Y390564D02*
X446500Y391500D01*
X445564Y390564D02*
X431436Y390564D01*
X300000Y418000D02*
X288500Y418000D01*
D56*
X288500Y418000D03*
X241500Y424000D03*
D51*
X240250Y422750D02*
X214000Y422750D01*
X240250Y422750D02*
X241500Y424000D01*
X300000Y418000D02*
X344500Y418000D01*
X261000Y396000D02*
X247250Y409750D01*
X261000Y396000D02*
X261000Y383100D01*
X260900Y383000D01*
X345000Y383000D01*
X363500Y401500D01*
X413381Y401500D01*
X428381Y386500D01*
X433000Y386500D01*
X445000Y374500D01*
X445000Y345613D01*
X247250Y409750D02*
X214000Y409750D01*
X435000Y353000D02*
X435000Y335613D01*
X445000Y345613D01*
X615000Y344387D02*
X615000Y327000D01*
D53*
X200000Y474000D03*
X197500Y384000D03*
D51*
X193500Y384000D01*
X188400Y378900D01*
X603387Y356000D02*
X615000Y344387D01*
X603387Y356000D02*
X530500Y356000D01*
X526000Y360500D01*
X526000Y474000D01*
X512500Y487500D01*
X345000Y487500D01*
X324000Y466500D01*
X324000Y426000D01*
D53*
X324000Y426000D03*
D51*
X205750Y468250D02*
X200000Y474000D01*
X205750Y468250D02*
X214000Y468250D01*
X188400Y378900D02*
X188400Y372500D01*
X409050Y383950D02*
X409050Y392630D01*
X409050Y383950D02*
X412000Y381000D01*
X432000Y381000D01*
X435000Y378000D01*
X435000Y367000D01*
X615000Y313000D02*
X624500Y313000D01*
X627000Y315500D01*
X627000Y387000D01*
X621370Y392630D01*
X589050Y392630D01*
X117400Y55100D02*
X108000Y64500D01*
X108000Y100500D01*
D53*
X108000Y100500D03*
X109500Y159000D03*
D51*
X109500Y174000D01*
X118000Y182500D01*
D53*
X118000Y182500D03*
X133500Y237000D03*
D51*
X132616Y237000D01*
X120363Y249252D01*
D53*
X136500Y423500D03*
D51*
X134900Y55100D02*
X139750Y50250D01*
X134900Y55100D02*
X117400Y55100D01*
X136500Y423500D02*
X152250Y423500D01*
X153000Y422750D01*
X152500Y50250D02*
X139750Y50250D01*
X126500Y277057D02*
X126500Y279000D01*
D53*
X126500Y279000D03*
X119000Y428000D03*
D51*
X152000Y430250D02*
X153000Y429250D01*
X152000Y430250D02*
X121250Y430250D01*
X119000Y428000D01*
X126500Y277057D02*
X137334Y266223D01*
D53*
X134500Y451500D03*
X127500Y388000D03*
D51*
X127500Y383000D01*
X104500Y360000D01*
X104500Y323500D01*
X75000Y294000D01*
X64302Y294000D01*
X53895Y304407D01*
X134500Y451500D02*
X138250Y455250D01*
X153000Y455250D01*
X142750Y118500D02*
X152500Y108750D01*
X142750Y118500D02*
X126500Y118500D01*
X648500Y98000D02*
X648500Y79613D01*
X578000Y104500D02*
X572000Y98500D01*
X317500Y36000D02*
X313500Y40000D01*
D53*
X313500Y40000D03*
X284000Y101000D03*
D51*
X572000Y98500D02*
X572000Y50500D01*
X333500Y36000D02*
X317500Y36000D01*
X333500Y36000D02*
X345500Y24000D01*
X545500Y24000D01*
X572000Y50500D01*
X247000Y102000D02*
X227750Y82750D01*
X247000Y102000D02*
X270000Y102000D01*
X227750Y82750D02*
X213500Y82750D01*
X270000Y102000D02*
X283000Y102000D01*
X284000Y101000D01*
X578000Y104500D02*
X642000Y104500D01*
X648500Y98000D01*
X251500Y82000D02*
X250600Y81100D01*
X251500Y82000D02*
X261500Y92000D01*
X289000Y92000D01*
X300000Y103000D01*
X250600Y81100D02*
X245750Y76250D01*
X213500Y76250D01*
X213500Y56750D02*
X269750Y56750D01*
X270000Y57000D01*
X475000Y97000D02*
X475500Y97000D01*
X475000Y97000D02*
X475000Y79613D01*
X475500Y97000D02*
X468500Y104000D01*
X353500Y104000D01*
X351000Y101500D01*
X351000Y60000D01*
X349000Y58000D01*
X292250Y50250D02*
X213500Y50250D01*
X292250Y50250D02*
X300000Y58000D01*
X349000Y58000D01*
X259400Y31600D02*
X259400Y27000D01*
X259400Y31600D02*
X253750Y37250D01*
D53*
X271500Y26500D03*
D51*
X259900Y26500D01*
X259400Y27000D01*
X345500Y121000D02*
X359000Y134500D01*
X345500Y121000D02*
X345500Y70000D01*
X342500Y67000D01*
D53*
X342500Y67000D03*
D51*
X253750Y37250D02*
X213500Y37250D01*
X394000Y135887D02*
X407387Y135887D01*
X414000Y142500D01*
X394000Y135887D02*
X392613Y134500D01*
X359000Y134500D01*
X567500Y118190D02*
X567500Y117000D01*
D56*
X331000Y43500D03*
D51*
X567500Y53000D02*
X567500Y117000D01*
D56*
X323000Y129000D03*
D51*
X273000Y129000D01*
X331000Y43500D02*
X335000Y43500D01*
X349500Y29000D01*
X543500Y29000D01*
X567500Y53000D01*
X240500Y113000D02*
X223250Y95750D01*
X240500Y113000D02*
X255000Y113000D01*
X259000Y117000D01*
X259000Y137000D01*
X262000Y140000D01*
X223250Y95750D02*
X213500Y95750D01*
X262000Y140000D02*
X273000Y129000D01*
X627190Y154190D02*
X632500Y159500D01*
X632500Y173613D01*
X567500Y143500D02*
X567500Y118190D01*
X567500Y143500D02*
X578190Y154190D01*
X627190Y154190D01*
X414000Y128500D02*
X414000Y114420D01*
X413950Y114370D01*
X586950Y117370D02*
X586950Y150126D01*
X641626Y150126D01*
X650500Y159000D01*
D53*
X134500Y62000D03*
X153500Y262000D03*
D51*
X152871Y262000D01*
X142991Y271880D01*
X134500Y62000D02*
X139750Y56750D01*
X152500Y56750D01*
D52*
X20000Y470900D02*
X11400Y470900D01*
X6500Y466000D01*
X6500Y403000D01*
X6500Y323500D01*
X11500Y318500D01*
X6500Y323500D02*
X6500Y78000D01*
X36900Y465000D02*
X37000Y465000D01*
X36900Y465000D02*
X31000Y470900D01*
X20000Y470900D01*
X20000Y394700D02*
X14800Y394700D01*
X6500Y403000D01*
X6500Y78000D02*
X20000Y64500D01*
X20000Y318500D02*
X11500Y318500D01*
D51*
X78684Y347500D02*
X87837Y338348D01*
X78684Y347500D02*
X78000Y347500D01*
D56*
X78000Y347500D03*
X74500Y409000D03*
D51*
X32400Y432500D02*
X20000Y420100D01*
X32400Y432500D02*
X40000Y432500D01*
X41726Y430774D01*
X41726Y426412D01*
X43138Y425000D01*
X69000Y425000D01*
X74500Y419500D01*
X74500Y409000D01*
D56*
X68500Y396500D03*
X72500Y341500D03*
D51*
X81309Y332691D01*
X82180Y332691D01*
X37000Y365000D02*
X68500Y396500D01*
X37000Y365000D02*
X37000Y349500D01*
X31400Y343900D01*
X20000Y343900D01*
X41726Y414774D02*
X40000Y416500D01*
X41726Y414774D02*
X41726Y410412D01*
X62069Y390069D01*
X68500Y396500D01*
X41200Y496300D02*
X20000Y496300D01*
X41200Y496300D02*
X47500Y490000D01*
X41726Y450726D02*
X40000Y449000D01*
X41726Y450726D02*
X41726Y455088D01*
X47500Y460862D02*
X47500Y490000D01*
X47500Y460862D02*
X41726Y455088D01*
X96000Y441500D02*
X96000Y346511D01*
X93493Y344005D01*
X96000Y441500D02*
X47500Y490000D01*
X51600Y216900D02*
X56500Y212000D01*
D56*
X56500Y212000D03*
X74000Y213000D03*
D51*
X129000Y220500D02*
X129000Y229302D01*
X114707Y243595D01*
X74000Y213000D02*
X89258Y197742D01*
X106242Y197742D01*
X129000Y220500D01*
X51600Y216900D02*
X20000Y216900D01*
X148500Y209500D02*
X148500Y204000D01*
X148500Y209500D02*
X160500Y221500D01*
X160500Y237500D02*
X160500Y247500D01*
D53*
X160500Y247500D03*
X143500Y294500D03*
D52*
X153407Y304407D01*
X154305Y304407D01*
D51*
X137334Y321377D02*
X150000Y334043D01*
X150000Y343000D01*
X49716Y267700D02*
X20000Y267700D01*
X49716Y267700D02*
X59552Y277537D01*
X53000Y191500D02*
X83500Y161000D01*
X92500Y161000D01*
D56*
X92500Y161000D03*
X115000Y265000D03*
D51*
X53000Y191500D02*
X20000Y191500D01*
X115000Y265000D02*
X115929Y265000D01*
X126020Y254909D01*
X54950Y334950D02*
X50426Y339474D01*
X50426Y365426D01*
X68522Y321377D02*
X70866Y321377D01*
X68522Y321377D02*
X54950Y334950D01*
X59552Y310063D02*
X68000Y301616D01*
X68000Y301500D01*
D56*
X68000Y301500D03*
X35000Y115500D03*
D51*
X34800Y115300D01*
X20000Y115300D01*
X73429Y307500D02*
X65209Y315720D01*
X73429Y307500D02*
X74000Y307500D01*
D56*
X74000Y307500D03*
X37000Y89500D03*
D53*
X46500Y298500D03*
D51*
X43000Y302000D01*
X43000Y311000D01*
X53500Y321500D01*
X59429Y321500D01*
X65209Y315720D01*
X37000Y89500D02*
X20400Y89500D01*
X20000Y89900D01*
D57*
X975000Y421000D03*
X975000Y409000D03*
X975000Y397000D03*
X975000Y385000D03*
X962000Y385000D03*
X962000Y397000D03*
X962000Y409000D03*
X962000Y421000D03*
X949000Y421000D03*
X949000Y409000D03*
X949000Y397000D03*
X949000Y385000D03*
X936000Y385000D03*
X936000Y397000D03*
X936000Y409000D03*
X936000Y421000D03*
X922000Y421000D03*
X922000Y409000D03*
X922000Y397000D03*
X922000Y385000D03*
D51*
X753650Y362000D02*
X753650Y331650D01*
X752000Y330000D01*
X762600Y174600D02*
X766350Y170850D01*
X766350Y148000D01*
D53*
X752000Y167500D03*
X170000Y352500D03*
D51*
X147000Y376000D02*
X115005Y344005D01*
X114707Y344005D01*
X752000Y167500D02*
X753650Y165850D01*
X753650Y148000D01*
X164000Y376000D02*
X147000Y376000D01*
X164000Y376000D02*
X170000Y370000D01*
X170000Y352500D01*
X766350Y338650D02*
X766500Y338500D01*
D53*
X766500Y338500D03*
X160500Y366000D03*
D51*
X766350Y362000D02*
X766350Y338650D01*
X146199Y366000D02*
X120363Y340165D01*
X120363Y338348D01*
X146199Y366000D02*
X160500Y366000D01*
X85800Y184022D02*
X85800Y175200D01*
X86000Y175000D01*
D56*
X86000Y175000D03*
X86000Y319000D03*
D51*
X65404Y338153D02*
X65404Y350404D01*
X65404Y338153D02*
X76523Y327034D01*
X84557Y319000D02*
X86000Y319000D01*
X84557Y319000D02*
X76523Y327034D01*
X82500Y220529D02*
X91515Y211515D01*
X82500Y220529D02*
X82500Y243916D01*
X87837Y249252D01*
X93493Y243595D02*
X108485Y228604D01*
X108485Y228485D01*
X615000Y398000D02*
X633000Y398000D01*
X641000Y390000D01*
X641000Y367420D01*
X640950Y367370D01*
X567000Y462000D02*
X565500Y463500D01*
X299000Y478000D02*
X270000Y478000D01*
X299000Y478000D02*
X300000Y477000D01*
X318092Y477000D02*
X337500Y496408D01*
X318092Y477000D02*
X300000Y477000D01*
X337500Y496408D02*
X543092Y496408D01*
X543500Y496000D01*
X253750Y461750D02*
X214000Y461750D01*
X253750Y461750D02*
X270000Y478000D01*
D58*
X420500Y177000D03*
X428500Y177000D03*
X436500Y177000D03*
X444500Y177000D03*
X444500Y185000D03*
X436500Y185000D03*
X428500Y185000D03*
X420500Y185000D03*
X420500Y193000D03*
X428500Y193000D03*
X436500Y193000D03*
X444500Y193000D03*
X406500Y195000D03*
X398500Y195000D03*
X390500Y195000D03*
X406500Y187500D03*
X398500Y187500D03*
X390500Y187500D03*
X390500Y180000D03*
X398500Y180000D03*
X406500Y180000D03*
X382500Y180000D03*
X382500Y187500D03*
X382500Y195000D03*
X374500Y195000D03*
X374500Y187500D03*
X374500Y180000D03*
X366500Y180000D03*
X366500Y187500D03*
X366500Y195000D03*
X358500Y180000D03*
X358500Y187500D03*
X358500Y195000D03*
X350500Y180000D03*
X350500Y187500D03*
X350500Y195000D03*
X600500Y140500D03*
X607500Y140500D03*
X614500Y140500D03*
X621500Y140500D03*
X636500Y132500D03*
X600500Y133000D03*
X607500Y133000D03*
X614500Y133000D03*
X621500Y133000D03*
X628500Y133000D03*
X373500Y369000D03*
X381000Y369000D03*
X388500Y369000D03*
X396000Y369000D03*
X404000Y369000D03*
X412000Y369000D03*
X420000Y369000D03*
X420000Y361500D03*
X412000Y361500D03*
X404000Y361500D03*
X396000Y361500D03*
X388500Y361500D03*
X381000Y361500D03*
X373500Y361500D03*
X373500Y353500D03*
X381000Y353500D03*
X388500Y353500D03*
X396000Y353500D03*
X404000Y353500D03*
X412000Y353500D03*
X420000Y353500D03*
D57*
X549000Y376000D03*
X558500Y376000D03*
X568000Y376000D03*
X577500Y376000D03*
X587000Y376000D03*
X596500Y376000D03*
X549000Y366000D03*
X558500Y366000D03*
X568000Y366000D03*
X577500Y366000D03*
X587000Y366000D03*
X596500Y366000D03*
X539500Y366000D03*
X539500Y376000D03*
X539500Y385000D03*
X539500Y394000D03*
X1005000Y169500D03*
X1013000Y169500D03*
X1021000Y169500D03*
X1029000Y169500D03*
X1029000Y161500D03*
X1021000Y161500D03*
X1013000Y161500D03*
X1005000Y161500D03*
X1005000Y153500D03*
X1013000Y153500D03*
X1021000Y153500D03*
X1029000Y153500D03*
X1037000Y169500D03*
X1037000Y161500D03*
X1037000Y153500D03*
X946000Y330000D03*
X955000Y330000D03*
X964000Y330000D03*
X973000Y330000D03*
X937000Y330000D03*
X946000Y338000D03*
X937000Y338000D03*
X928000Y330000D03*
X973000Y338000D03*
X964000Y338000D03*
X990000Y330000D03*
X990000Y338000D03*
X955000Y338000D03*
X173000Y95500D03*
X173000Y78500D03*
X173000Y70000D03*
X173000Y61500D03*
X173000Y53000D03*
X173000Y44500D03*
X173000Y36000D03*
X181000Y36000D03*
X181000Y44500D03*
X181000Y53000D03*
X181000Y61500D03*
X181000Y70000D03*
X181000Y78500D03*
X181000Y87000D03*
X181000Y95500D03*
X173500Y407000D03*
X173500Y415000D03*
X173500Y423000D03*
X173500Y431000D03*
X173500Y439000D03*
X173500Y447000D03*
X173500Y455000D03*
X173500Y471000D03*
X173500Y479000D03*
X181500Y479000D03*
X181500Y471000D03*
X181500Y463000D03*
X181500Y455000D03*
X181500Y447000D03*
X181500Y439000D03*
X181500Y431000D03*
X181500Y423000D03*
X181500Y415000D03*
X181500Y407000D03*
D51*
X435000Y304387D02*
X445000Y294387D01*
X445000Y282000D01*
X37200Y13700D02*
X20000Y13700D01*
X37200Y13700D02*
X39000Y15500D01*
D53*
X39000Y15500D03*
D51*
X243400Y27000D02*
X243400Y27100D01*
X243400Y27000D02*
X235500Y27000D01*
X231500Y23000D01*
D53*
X231500Y23000D03*
X287500Y65000D03*
D51*
X287500Y79511D01*
X287989Y80000D01*
X178000Y174500D02*
X177500Y174000D01*
X178000Y174500D02*
X186000Y166500D01*
X208500Y166500D01*
X776600Y174600D02*
X779050Y174600D01*
X779050Y148000D01*
X337000Y80000D02*
X287989Y80000D01*
X337000Y80000D02*
X341000Y84000D01*
X341000Y160000D01*
X738000Y330000D02*
X738500Y329500D01*
X738500Y310000D01*
X774200Y195000D02*
X776600Y192600D01*
X776600Y174600D01*
X775200Y196000D02*
X787000Y196000D01*
X775200Y196000D02*
X774200Y195000D01*
D56*
X787000Y196000D03*
D51*
X738000Y309500D02*
X738500Y310000D01*
X738000Y309500D02*
X729500Y309500D01*
D56*
X729500Y309500D03*
D51*
X738000Y330000D02*
X740950Y332950D01*
X740950Y362000D01*
X264000Y492728D02*
X247000Y492728D01*
X264000Y492728D02*
X264000Y492500D01*
D56*
X264000Y492500D03*
X308500Y435500D03*
D51*
X298489Y435500D01*
X297989Y436000D01*
X245500Y383000D02*
X244900Y383000D01*
X245500Y383000D02*
X245500Y393500D01*
D53*
X235500Y383500D03*
D51*
X204400Y372500D02*
X204400Y344900D01*
X196500Y337000D01*
X138500Y333857D02*
X138500Y345500D01*
X138500Y333857D02*
X131677Y327034D01*
X65209Y271880D02*
X56500Y263171D01*
X56500Y261000D01*
D53*
X56500Y261000D03*
D51*
X76523Y260566D02*
X86957Y271000D01*
X56500Y261000D02*
X46500Y261000D01*
X27800Y242300D01*
X20000Y242300D01*
X72500Y227800D02*
X72500Y226500D01*
X72500Y227800D02*
X64649Y235651D01*
D53*
X72500Y226500D03*
D51*
X76523Y260566D02*
X113940Y297984D01*
X113924Y298000D01*
X236000Y383000D02*
X244900Y383000D01*
X236000Y383000D02*
X235500Y383500D01*
X239750Y30750D02*
X213500Y30750D01*
X239750Y30750D02*
X243400Y27100D01*
X235750Y403250D02*
X214000Y403250D01*
X235750Y403250D02*
X245500Y393500D01*
D57*
X173500Y463000D03*
D51*
X153000Y461750D02*
X153000Y468250D01*
X153000Y461750D02*
X172250Y461750D01*
X173500Y463000D01*
X124750Y461750D02*
X120000Y457000D01*
X124750Y461750D02*
X153000Y461750D01*
D53*
X104000Y403000D03*
D51*
X128400Y48000D02*
X129250Y48000D01*
X136000Y41250D01*
D53*
X128400Y48000D03*
D57*
X173000Y87000D03*
D51*
X119500Y72500D02*
X119500Y63000D01*
D53*
X119500Y63000D03*
D51*
X152500Y89250D02*
X152500Y95750D01*
X152500Y89250D02*
X170750Y89250D01*
X173000Y87000D01*
X428113Y167113D02*
X478000Y217000D01*
X428113Y167113D02*
X394000Y167113D01*
X82000Y367000D02*
X74596Y359596D01*
D53*
X82000Y367000D03*
D51*
X170000Y337000D02*
X196500Y337000D01*
X150000Y357000D02*
X138500Y345500D01*
X150000Y357000D02*
X170000Y337000D01*
X177500Y174000D02*
X148500Y174000D01*
X100500Y219665D02*
X100335Y219665D01*
X100000Y220000D01*
X104054Y208365D02*
X97495Y201806D01*
X104054Y208365D02*
X104054Y216111D01*
X100500Y219665D01*
X97495Y201806D02*
X93680Y201806D01*
X72500Y222986D01*
X72500Y226500D01*
D53*
X63500Y416000D03*
X63500Y432500D03*
X64000Y448500D03*
D51*
X63500Y449000D02*
X54000Y449000D01*
X63500Y449000D02*
X64000Y448500D01*
X63500Y432500D02*
X54000Y432500D01*
X54000Y416500D02*
X63000Y416500D01*
X63500Y416000D01*
D53*
X113924Y298000D03*
D51*
X113924Y309281D02*
X131677Y327034D01*
X113924Y309281D02*
X113924Y298000D01*
X104250Y402750D02*
X104000Y403000D01*
X104250Y402750D02*
X120000Y402750D01*
D52*
X97550Y126578D02*
X97550Y114450D01*
X98000Y114000D01*
D53*
X98000Y114000D03*
D51*
X183700Y164200D02*
X186000Y166500D01*
X183700Y164200D02*
X183700Y137500D01*
X177676Y143524D02*
X161550Y143524D01*
X177676Y143524D02*
X183700Y137500D01*
X278000Y140000D02*
X296000Y140000D01*
X308000Y152000D01*
X308000Y161000D01*
D57*
X981596Y338000D03*
X981596Y330000D03*
X913000Y189500D03*
X914000Y204500D03*
X956000Y204500D03*
X970000Y204500D03*
X970000Y189500D03*
X956000Y189500D03*
X942000Y189500D03*
X928000Y189500D03*
X934000Y177500D03*
X949000Y177500D03*
X963000Y177500D03*
X978000Y177500D03*
X983000Y204500D03*
X986000Y189500D03*
X997000Y177500D03*
X942000Y219500D03*
X956000Y219500D03*
X970000Y219500D03*
X1035000Y231500D03*
X1037000Y179500D03*
X928000Y219500D03*
X942000Y204500D03*
X928000Y204500D03*
X992000Y230500D03*
X983000Y219500D03*
D51*
X460950Y367370D02*
X460950Y393550D01*
X455000Y399500D01*
X434000Y399500D01*
X433900Y399400D01*
X701050Y146950D02*
X701050Y142630D01*
X701050Y146950D02*
X696000Y152000D01*
X659119Y152000D01*
X648500Y141381D01*
X648500Y112000D01*
X299000Y118000D02*
X270000Y118000D01*
X299000Y118000D02*
X300000Y117000D01*
X243000Y107500D02*
X224750Y89250D01*
X243000Y107500D02*
X259500Y107500D01*
X270000Y118000D01*
D53*
X323000Y88500D03*
X323500Y29000D03*
D51*
X332000Y29000D02*
X342000Y19000D01*
X332000Y29000D02*
X323500Y29000D01*
X342000Y19000D02*
X547000Y19000D01*
X582500Y54500D01*
X317000Y117000D02*
X300000Y117000D01*
X317000Y117000D02*
X323000Y111000D01*
X323000Y88500D01*
X224750Y89250D02*
X213500Y89250D01*
X541050Y141630D02*
X541050Y145950D01*
X533500Y153500D01*
X501500Y153500D01*
X493000Y128500D02*
X475500Y111000D01*
X493000Y128500D02*
X493000Y145000D01*
X501500Y153500D01*
D58*
X496500Y50000D03*
X504000Y50000D03*
X511500Y50000D03*
X519000Y50000D03*
X526500Y50000D03*
X526500Y57500D03*
X519000Y57500D03*
X511500Y57500D03*
X504000Y57500D03*
X496500Y57500D03*
X367500Y50000D03*
X375000Y50000D03*
X382500Y50000D03*
X390000Y50000D03*
X397500Y50000D03*
X405000Y50000D03*
X412500Y50000D03*
X518000Y102500D03*
X508500Y128500D03*
X517500Y128500D03*
X526500Y128500D03*
X526500Y121000D03*
X517500Y121000D03*
X508500Y121000D03*
X518000Y95000D03*
X518000Y87500D03*
X508500Y113500D03*
X517500Y113500D03*
X526500Y113500D03*
D51*
X299000Y43000D02*
X270000Y43000D01*
X299000Y43000D02*
X300000Y42000D01*
X270000Y43000D02*
X269250Y43750D01*
X213500Y43750D01*
X300000Y42000D02*
X311000Y53000D01*
X360000Y53000D01*
D57*
X476500Y451000D03*
X486000Y451000D03*
X495500Y451000D03*
X505000Y451000D03*
X505000Y441500D03*
X495500Y441500D03*
X486000Y441500D03*
X476500Y441500D03*
X476500Y405000D03*
X486000Y405000D03*
X495500Y405000D03*
X505000Y405000D03*
X505000Y396000D03*
X495500Y396000D03*
X486000Y396000D03*
X476500Y396000D03*
X360500Y464500D03*
X369500Y464500D03*
X378500Y464500D03*
X387500Y464500D03*
X396500Y464500D03*
X405500Y464500D03*
X414500Y464500D03*
X476500Y460000D03*
X486000Y460000D03*
X495500Y460000D03*
X505000Y460000D03*
X467500Y460000D03*
X458000Y460000D03*
D51*
X270000Y403000D02*
X256750Y416250D01*
X270000Y403000D02*
X299000Y403000D01*
X300000Y402000D01*
X256750Y416250D02*
X214000Y416250D01*
X345505Y402000D02*
X357500Y413995D01*
X345505Y402000D02*
X300000Y402000D01*
D57*
X360500Y476500D03*
X369500Y476500D03*
X378500Y476500D03*
X387500Y476500D03*
X396500Y476500D03*
X405500Y476500D03*
X414500Y476500D03*
D51*
X45050Y325050D02*
X39500Y319500D01*
X39000Y319500D01*
D56*
X39000Y319500D03*
X32500Y140500D03*
D51*
X32300Y140700D01*
X20000Y140700D01*
D57*
X976000Y133000D03*
X976000Y120000D03*
X976000Y107000D03*
X976000Y94000D03*
X962000Y94000D03*
X962000Y107000D03*
X962000Y120000D03*
X948000Y94000D03*
X948000Y107000D03*
X948000Y120000D03*
X948000Y133000D03*
X962000Y133000D03*
D51*
X259500Y80000D02*
X249250Y69750D01*
X259500Y80000D02*
X272011Y80000D01*
X249250Y69750D02*
X213500Y69750D01*
X213500Y63250D01*
X152500Y102250D02*
X128750Y102250D01*
X126500Y104500D01*
X140000Y30750D02*
X152500Y30750D01*
X140000Y30750D02*
X136000Y26750D01*
X214250Y435500D02*
X281511Y435500D01*
X214250Y435500D02*
X214000Y435750D01*
X281511Y435500D02*
X282011Y436000D01*
X214250Y442000D02*
X214000Y442250D01*
X214250Y442000D02*
X214250Y435500D01*
X153000Y474750D02*
X139028Y474750D01*
X136500Y477278D01*
X152500Y76250D02*
X152500Y69750D01*
X152500Y63250D01*
X161250Y63250D01*
X163500Y61000D01*
X163500Y27000D01*
X160750Y24250D02*
X152500Y24250D01*
X160750Y24250D02*
X163500Y27000D01*
X152500Y76250D02*
X129750Y76250D01*
X119500Y86500D01*
X153000Y442250D02*
X153000Y448750D01*
X153000Y442250D02*
X153000Y435750D01*
X153000Y442250D02*
X120750Y442250D01*
X120000Y443000D01*
X153000Y442250D02*
X161750Y442250D01*
X164500Y439500D01*
X164500Y399000D01*
X162250Y396750D01*
X153000Y396750D01*
X231500Y492728D02*
X233000Y492728D01*
X214000Y481250D02*
X214000Y474750D01*
X214000Y481250D02*
X214000Y486000D01*
X221000Y493000D01*
X231228Y493000D01*
X231500Y492728D01*
X226750Y396750D02*
X214000Y396750D01*
X226750Y396750D02*
X228000Y395500D01*
D53*
X228000Y395500D03*
X229000Y475000D03*
D51*
X202000Y101000D02*
X202000Y27000D01*
X202000Y101000D02*
X203250Y102250D01*
X213500Y102250D01*
X213500Y108750D01*
X213500Y130000D01*
X206000Y137500D01*
X197700Y137500D01*
X204750Y24250D02*
X213500Y24250D01*
X204750Y24250D02*
X202000Y27000D01*
X214000Y474750D02*
X228750Y474750D01*
X229000Y475000D01*
X228000Y395500D02*
X228000Y377000D01*
X237500Y367500D01*
X339500Y367500D01*
X350500Y356500D01*
D55*
X438367Y274036D02*
X438964Y274036D01*
X445000Y268000D01*
X412361Y300042D02*
X350500Y300042D01*
X412361Y300042D02*
X438367Y274036D01*
D51*
X350500Y300042D02*
X350500Y356500D01*
X213500Y24250D02*
X213500Y20500D01*
X219500Y14500D01*
X553500Y14500D01*
X559500Y20500D01*
D53*
X559500Y20500D03*
X550000Y50000D03*
D51*
X550000Y168000D01*
D57*
X975000Y309000D03*
X975000Y296000D03*
X975000Y283000D03*
X975000Y270000D03*
X975000Y257000D03*
X961000Y309000D03*
X961000Y296000D03*
X961000Y283000D03*
X961000Y270000D03*
X961000Y257000D03*
X947000Y309000D03*
X947000Y296000D03*
X947000Y283000D03*
X947000Y270000D03*
X947000Y257000D03*
X933000Y309000D03*
X933000Y296000D03*
X933000Y283000D03*
X933000Y270000D03*
X933000Y257000D03*
X919000Y309000D03*
X919000Y296000D03*
X919000Y283000D03*
X919000Y270000D03*
X919000Y257000D03*
D53*
X133000Y84500D03*
D51*
X53895Y283193D02*
X59702Y289000D01*
X70000Y289000D02*
X72500Y286500D01*
X70000Y289000D02*
X59702Y289000D01*
D53*
X72500Y286500D03*
D51*
X133000Y84500D02*
X134750Y82750D01*
X152500Y82750D01*
M02*
