G04 EAGLE Gerber RS-274X export*
G75*
%MOMM*%
%FSLAX34Y34*%
%LPD*%
%INSoldermask Bottom*%
%IPPOS*%
%AMOC8*
5,1,8,0,0,1.08239X$1,22.5*%
G01*
G04 Define Apertures*
%ADD10C,3.303200*%
%ADD11C,3.403200*%
%ADD12P,2.58431X8X22.5*%
%ADD13R,1.853200X1.853200*%
%ADD14C,1.853200*%
%ADD15C,5.153200*%
%ADD16C,0.959600*%
%ADD17C,0.809600*%
%ADD18R,0.959600X0.959600*%
%ADD19R,0.809600X0.809600*%
G36*
X354000Y497000D02*
X355000Y498000D01*
X980000Y498000D01*
X982000Y496000D01*
X982000Y433000D01*
X471000Y433000D01*
X465000Y439000D01*
X426000Y439000D01*
X426000Y409000D01*
X354000Y409000D01*
X354000Y497000D01*
G37*
G36*
X418000Y346000D02*
X418000Y166000D01*
X246000Y166000D01*
X240000Y172000D01*
X240000Y337000D01*
X249000Y346000D01*
X418000Y346000D01*
G37*
G36*
X354000Y101000D02*
X453000Y101000D01*
X453000Y150000D01*
X454000Y151000D01*
X508000Y151000D01*
X514000Y145000D01*
X514000Y48000D01*
X499000Y33000D01*
X361000Y33000D01*
X354000Y40000D01*
X354000Y101000D01*
G37*
G36*
X454000Y212000D02*
X454000Y189000D01*
X423000Y189000D01*
X420000Y186000D01*
X420000Y116000D01*
X419000Y115000D01*
X345000Y115000D01*
X339000Y121000D01*
X339000Y212000D01*
X454000Y212000D01*
G37*
G36*
X526000Y401000D02*
X604000Y401000D01*
X605000Y400000D01*
X605000Y350000D01*
X526000Y350000D01*
X526000Y401000D01*
G37*
G36*
X465000Y441000D02*
X466000Y442000D01*
X516000Y442000D01*
X516000Y387000D01*
X466000Y387000D01*
X465000Y386000D01*
X465000Y441000D01*
G37*
G36*
X566000Y95000D02*
X566000Y43000D01*
X542000Y43000D01*
X525000Y60000D01*
X512000Y47000D01*
X512000Y95000D01*
X566000Y95000D01*
G37*
G36*
X456000Y351000D02*
X456000Y304000D01*
X423000Y304000D01*
X423000Y351000D01*
X456000Y351000D01*
G37*
G36*
X533000Y121000D02*
X533000Y173000D01*
X601000Y173000D01*
X601000Y121000D01*
X533000Y121000D01*
G37*
G36*
X367000Y377000D02*
X424000Y377000D01*
X424000Y305000D01*
X423000Y304000D01*
X367000Y304000D01*
X367000Y376000D01*
X368000Y377000D01*
X367000Y377000D01*
G37*
G36*
X414000Y306000D02*
X456000Y306000D01*
X456000Y170000D01*
X414000Y170000D01*
X414000Y306000D01*
G37*
G36*
X818000Y75000D02*
X984000Y75000D01*
X985000Y74000D01*
X985000Y15000D01*
X979000Y9000D01*
X818000Y9000D01*
X818000Y75000D01*
G37*
G36*
X563000Y9000D02*
X563000Y103000D01*
X820000Y103000D01*
X820000Y9000D01*
X563000Y9000D01*
G37*
G36*
X455000Y351000D02*
X899000Y351000D01*
X903000Y347000D01*
X903000Y161000D01*
X898000Y156000D01*
X808000Y156000D01*
X799000Y165000D01*
X799000Y207000D01*
X721000Y207000D01*
X713000Y199000D01*
X713000Y171000D01*
X454000Y171000D01*
X454000Y350000D01*
X455000Y351000D01*
G37*
D10*
X95250Y482600D03*
D11*
X95250Y25400D03*
X889000Y25400D03*
X889000Y482600D03*
D12*
X214000Y322500D03*
X193500Y304000D03*
D13*
X20000Y496300D03*
D14*
X20000Y470900D03*
X20000Y445500D03*
X20000Y420100D03*
X20000Y394700D03*
X20000Y369300D03*
X20000Y343900D03*
X20000Y318500D03*
X20000Y293100D03*
X20000Y267700D03*
X20000Y242300D03*
X20000Y216900D03*
X20000Y191500D03*
X20000Y166100D03*
X20000Y140700D03*
X20000Y115300D03*
X20000Y89900D03*
X20000Y64500D03*
X20000Y39100D03*
X20000Y13700D03*
D15*
X1013000Y401000D03*
X1011628Y466928D03*
X1015000Y112000D03*
X1011500Y44000D03*
X1015500Y284500D03*
X1016000Y206500D03*
D16*
X93500Y299000D03*
X88000Y390500D03*
X197000Y192500D03*
X722000Y142500D03*
X560000Y101500D03*
X560000Y56500D03*
X574500Y19000D03*
X194500Y15500D03*
X191000Y108000D03*
X761000Y224500D03*
X762000Y283500D03*
X446500Y407000D03*
X446500Y391500D03*
X344500Y418000D03*
X344500Y393500D03*
D17*
X288500Y418000D03*
X241500Y424000D03*
D16*
X200000Y474000D03*
X197500Y384000D03*
X324000Y426000D03*
X108000Y100500D03*
X109500Y159000D03*
X118000Y182500D03*
X133500Y237000D03*
X136500Y423500D03*
X126500Y279000D03*
X119000Y428000D03*
X134500Y451500D03*
X127500Y388000D03*
X313500Y40000D03*
X284000Y101000D03*
X271500Y26500D03*
X342500Y67000D03*
D17*
X331000Y43500D03*
X323000Y129000D03*
D16*
X134500Y62000D03*
X153500Y262000D03*
D17*
X78000Y347500D03*
X74500Y409000D03*
X68500Y396500D03*
X72500Y341500D03*
X56500Y212000D03*
X74000Y213000D03*
D16*
X160500Y247500D03*
X143500Y294500D03*
D17*
X92500Y161000D03*
X115000Y265000D03*
X68000Y301500D03*
X35000Y115500D03*
X74000Y307500D03*
X37000Y89500D03*
D16*
X46500Y298500D03*
D18*
X975000Y421000D03*
X975000Y409000D03*
X975000Y397000D03*
X975000Y385000D03*
X962000Y385000D03*
X962000Y397000D03*
X962000Y409000D03*
X962000Y421000D03*
X949000Y421000D03*
X949000Y409000D03*
X949000Y397000D03*
X949000Y385000D03*
X936000Y385000D03*
X936000Y397000D03*
X936000Y409000D03*
X936000Y421000D03*
X922000Y421000D03*
X922000Y409000D03*
X922000Y397000D03*
X922000Y385000D03*
D16*
X752000Y167500D03*
X170000Y352500D03*
X766500Y338500D03*
X160500Y366000D03*
D17*
X86000Y175000D03*
X86000Y319000D03*
D19*
X420500Y177000D03*
X428500Y177000D03*
X436500Y177000D03*
X444500Y177000D03*
X444500Y185000D03*
X436500Y185000D03*
X428500Y185000D03*
X420500Y185000D03*
X420500Y193000D03*
X428500Y193000D03*
X436500Y193000D03*
X444500Y193000D03*
X406500Y195000D03*
X398500Y195000D03*
X390500Y195000D03*
X406500Y187500D03*
X398500Y187500D03*
X390500Y187500D03*
X390500Y180000D03*
X398500Y180000D03*
X406500Y180000D03*
X382500Y180000D03*
X382500Y187500D03*
X382500Y195000D03*
X374500Y195000D03*
X374500Y187500D03*
X374500Y180000D03*
X366500Y180000D03*
X366500Y187500D03*
X366500Y195000D03*
X358500Y180000D03*
X358500Y187500D03*
X358500Y195000D03*
X350500Y180000D03*
X350500Y187500D03*
X350500Y195000D03*
X600500Y140500D03*
X607500Y140500D03*
X614500Y140500D03*
X621500Y140500D03*
X636500Y132500D03*
X600500Y133000D03*
X607500Y133000D03*
X614500Y133000D03*
X621500Y133000D03*
X628500Y133000D03*
X373500Y369000D03*
X381000Y369000D03*
X388500Y369000D03*
X396000Y369000D03*
X404000Y369000D03*
X412000Y369000D03*
X420000Y369000D03*
X420000Y361500D03*
X412000Y361500D03*
X404000Y361500D03*
X396000Y361500D03*
X388500Y361500D03*
X381000Y361500D03*
X373500Y361500D03*
X373500Y353500D03*
X381000Y353500D03*
X388500Y353500D03*
X396000Y353500D03*
X404000Y353500D03*
X412000Y353500D03*
X420000Y353500D03*
D18*
X549000Y376000D03*
X558500Y376000D03*
X568000Y376000D03*
X577500Y376000D03*
X587000Y376000D03*
X596500Y376000D03*
X549000Y366000D03*
X558500Y366000D03*
X568000Y366000D03*
X577500Y366000D03*
X587000Y366000D03*
X596500Y366000D03*
X539500Y366000D03*
X539500Y376000D03*
X539500Y385000D03*
X539500Y394000D03*
X1005000Y169500D03*
X1013000Y169500D03*
X1021000Y169500D03*
X1029000Y169500D03*
X1029000Y161500D03*
X1021000Y161500D03*
X1013000Y161500D03*
X1005000Y161500D03*
X1005000Y153500D03*
X1013000Y153500D03*
X1021000Y153500D03*
X1029000Y153500D03*
X1037000Y169500D03*
X1037000Y161500D03*
X1037000Y153500D03*
X946000Y330000D03*
X955000Y330000D03*
X964000Y330000D03*
X973000Y330000D03*
X937000Y330000D03*
X946000Y338000D03*
X937000Y338000D03*
X928000Y330000D03*
X973000Y338000D03*
X964000Y338000D03*
X990000Y330000D03*
X990000Y338000D03*
X955000Y338000D03*
X173000Y95500D03*
X173000Y78500D03*
X173000Y70000D03*
X173000Y61500D03*
X173000Y53000D03*
X173000Y44500D03*
X173000Y36000D03*
X181000Y36000D03*
X181000Y44500D03*
X181000Y53000D03*
X181000Y61500D03*
X181000Y70000D03*
X181000Y78500D03*
X181000Y87000D03*
X181000Y95500D03*
X173500Y407000D03*
X173500Y415000D03*
X173500Y423000D03*
X173500Y431000D03*
X173500Y439000D03*
X173500Y447000D03*
X173500Y455000D03*
X173500Y471000D03*
X173500Y479000D03*
X181500Y479000D03*
X181500Y471000D03*
X181500Y463000D03*
X181500Y455000D03*
X181500Y447000D03*
X181500Y439000D03*
X181500Y431000D03*
X181500Y423000D03*
X181500Y415000D03*
X181500Y407000D03*
D16*
X39000Y15500D03*
X231500Y23000D03*
X287500Y65000D03*
D17*
X787000Y196000D03*
X729500Y309500D03*
X264000Y492500D03*
X308500Y435500D03*
D16*
X235500Y383500D03*
X56500Y261000D03*
X72500Y226500D03*
D18*
X173500Y463000D03*
D16*
X104000Y403000D03*
X128400Y48000D03*
D18*
X173000Y87000D03*
D16*
X119500Y63000D03*
X82000Y367000D03*
X63500Y416000D03*
X63500Y432500D03*
X64000Y448500D03*
X113924Y298000D03*
X98000Y114000D03*
D18*
X981596Y338000D03*
X981596Y330000D03*
X913000Y189500D03*
X914000Y204500D03*
X956000Y204500D03*
X970000Y204500D03*
X970000Y189500D03*
X956000Y189500D03*
X942000Y189500D03*
X928000Y189500D03*
X934000Y177500D03*
X949000Y177500D03*
X963000Y177500D03*
X978000Y177500D03*
X983000Y204500D03*
X986000Y189500D03*
X997000Y177500D03*
X942000Y219500D03*
X956000Y219500D03*
X970000Y219500D03*
X1035000Y231500D03*
X1037000Y179500D03*
X928000Y219500D03*
X942000Y204500D03*
X928000Y204500D03*
X992000Y230500D03*
X983000Y219500D03*
D16*
X323000Y88500D03*
X323500Y29000D03*
D19*
X496500Y50000D03*
X504000Y50000D03*
X511500Y50000D03*
X519000Y50000D03*
X526500Y50000D03*
X526500Y57500D03*
X519000Y57500D03*
X511500Y57500D03*
X504000Y57500D03*
X496500Y57500D03*
X367500Y50000D03*
X375000Y50000D03*
X382500Y50000D03*
X390000Y50000D03*
X397500Y50000D03*
X405000Y50000D03*
X412500Y50000D03*
X518000Y102500D03*
X508500Y128500D03*
X517500Y128500D03*
X526500Y128500D03*
X526500Y121000D03*
X517500Y121000D03*
X508500Y121000D03*
X518000Y95000D03*
X518000Y87500D03*
X508500Y113500D03*
X517500Y113500D03*
X526500Y113500D03*
D18*
X476500Y451000D03*
X486000Y451000D03*
X495500Y451000D03*
X505000Y451000D03*
X505000Y441500D03*
X495500Y441500D03*
X486000Y441500D03*
X476500Y441500D03*
X476500Y405000D03*
X486000Y405000D03*
X495500Y405000D03*
X505000Y405000D03*
X505000Y396000D03*
X495500Y396000D03*
X486000Y396000D03*
X476500Y396000D03*
X360500Y464500D03*
X369500Y464500D03*
X378500Y464500D03*
X387500Y464500D03*
X396500Y464500D03*
X405500Y464500D03*
X414500Y464500D03*
X476500Y460000D03*
X486000Y460000D03*
X495500Y460000D03*
X505000Y460000D03*
X467500Y460000D03*
X458000Y460000D03*
X360500Y476500D03*
X369500Y476500D03*
X378500Y476500D03*
X387500Y476500D03*
X396500Y476500D03*
X405500Y476500D03*
X414500Y476500D03*
D17*
X39000Y319500D03*
X32500Y140500D03*
D18*
X976000Y133000D03*
X976000Y120000D03*
X976000Y107000D03*
X976000Y94000D03*
X962000Y94000D03*
X962000Y107000D03*
X962000Y120000D03*
X948000Y94000D03*
X948000Y107000D03*
X948000Y120000D03*
X948000Y133000D03*
X962000Y133000D03*
D16*
X228000Y395500D03*
X229000Y475000D03*
X559500Y20500D03*
X550000Y50000D03*
D18*
X975000Y309000D03*
X975000Y296000D03*
X975000Y283000D03*
X975000Y270000D03*
X975000Y257000D03*
X961000Y309000D03*
X961000Y296000D03*
X961000Y283000D03*
X961000Y270000D03*
X961000Y257000D03*
X947000Y309000D03*
X947000Y296000D03*
X947000Y283000D03*
X947000Y270000D03*
X947000Y257000D03*
X933000Y309000D03*
X933000Y296000D03*
X933000Y283000D03*
X933000Y270000D03*
X933000Y257000D03*
X919000Y309000D03*
X919000Y296000D03*
X919000Y283000D03*
X919000Y270000D03*
X919000Y257000D03*
D16*
X133000Y84500D03*
X72500Y286500D03*
M02*
