M48
;GenerationSoftware,Autodesk,EAGLE,9.7.0*%
;CreationDate,2024-10-08T19:49:39Z*%
FMAT,2
ICI,OFF
METRIC,TZ,000.000
T7C0.200
T6C0.350
T5C1.016
T4C1.100
T3C3.100
T2C3.200
T1C3.550
%
G90
M71
T1
X101600Y20650
X101550Y28450
X101150Y4400
X101500Y11200
X101163Y46693
X101300Y40100
T2
X9525Y2540
X88900Y2540
X88900Y48260
T3
X9525Y48260
T4
X2000Y11530
X2000Y14070
X2000Y16610
X2000Y19150
X2000Y21690
X2000Y24230
X2000Y8990
X2000Y29310
X2000Y31850
X2000Y34390
X2000Y36930
X2000Y39470
X2000Y42010
X2000Y44550
X2000Y47090
X2000Y49630
X2000Y26770
X2000Y1370
X2000Y6450
X2000Y3910
T5
X21400Y32250
X19350Y30400
T6
X34250Y6700
X23150Y2300
X8800Y39050
X13450Y6200
X15350Y26200
X19700Y19250
X72200Y14250
X56000Y10150
X56000Y5650
X57450Y1900
X19450Y1550
X16050Y24750
X14350Y29450
X19100Y10800
X76100Y22450
X76200Y28350
X44650Y40700
X44650Y39150
X34450Y41800
X4650Y29850
X97500Y42100
X97500Y40900
X97500Y39700
X97500Y38500
X96200Y38500
X96200Y39700
X96200Y40900
X96200Y42100
X94900Y42100
X94900Y40900
X94900Y39700
X94900Y38500
X93600Y38500
X93600Y39700
X93600Y40900
X93600Y42100
X92200Y42100
X92200Y40900
X92200Y39700
X92200Y38500
X75200Y16750
X17000Y35250
X76650Y33850
X16050Y36600
X34450Y39350
X20000Y47400
X19750Y38400
X32400Y42600
X10800Y10050
X10950Y15900
X11800Y18250
X13350Y23700
X13650Y42350
X12650Y27900
X11900Y42800
X13450Y45150
X12750Y38800
X31350Y4000
X28400Y10100
X27150Y2650
X7250Y28650
X13300Y8450
X91900Y25700
X91900Y27000
X91900Y28300
X91900Y29600
X91900Y30900
X93300Y25700
X93300Y27000
X93300Y28300
X93300Y29600
X93300Y30900
X94700Y25700
X94700Y27000
X94700Y28300
X94700Y29600
X94700Y30900
X96100Y25700
X96100Y27000
X96100Y28300
X96100Y29600
X96100Y30900
X97500Y25700
X97500Y27000
X97500Y28300
X97500Y29600
X97500Y30900
X55000Y5000
X55950Y2050
X22900Y47500
X22800Y39550
X96200Y13300
X94800Y13300
X94800Y12000
X94800Y10700
X94800Y9400
X96200Y12000
X96200Y10700
X96200Y9400
X97600Y9400
X97600Y10700
X97600Y12000
X97600Y13300
X41450Y47650
X40550Y47650
X39650Y47650
X38750Y47650
X37850Y47650
X36950Y47650
X36050Y47650
X45800Y46000
X46750Y46000
X50500Y46000
X54900Y37600
X55850Y37600
X56800Y37600
X57750Y37600
X58700Y37600
X59650Y37600
X54900Y36600
X55850Y36600
X56800Y36600
X57750Y36600
X58700Y36600
X59650Y36600
X53950Y36600
X53950Y37600
X53950Y38500
X53950Y39400
X100500Y16950
X101300Y16950
X102100Y16950
X102900Y16950
X102900Y16150
X102100Y16150
X101300Y16150
X100500Y16150
X100500Y15350
X101300Y15350
X102100Y15350
X102900Y15350
X103700Y16950
X103700Y16150
X103700Y15350
X94600Y33000
X95500Y33000
X96400Y33000
X97300Y33000
X93700Y33000
X94600Y33800
X93700Y33800
X92800Y33000
X97300Y33800
X96400Y33800
X99000Y33000
X99000Y33800
X95500Y33800
X17300Y9550
X17300Y7850
X17300Y7000
X17300Y6150
X17300Y5300
X17300Y4450
X17300Y3600
X18100Y3600
X18100Y4450
X18100Y5300
X18100Y6150
X18100Y7000
X18100Y7850
X18100Y8700
X18100Y9550
X17350Y40700
X17350Y41500
X17350Y42300
X9350Y29900
X17350Y43900
X17350Y44700
X17350Y45500
X17350Y47100
X17350Y47900
X18150Y47900
X18150Y47100
X18150Y46300
X18150Y45500
X18150Y44700
X18150Y43900
X18150Y43100
X18150Y42300
X18150Y41500
X18150Y40700
X3900Y1550
X17350Y43100
X28750Y6500
X49550Y46000
X48600Y46000
X47650Y46000
X41450Y46450
X23550Y38350
X5650Y26100
X7250Y22650
X17350Y46300
X10400Y40300
X12840Y4800
X17300Y8700
X11950Y6300
X8200Y36700
X6350Y41600
X6350Y43250
X6400Y44850
X11392Y29800
X9800Y11400
X98160Y33800
X98160Y33000
X91300Y18950
X91400Y20450
X95600Y20450
X97000Y20450
X97000Y18950
X95600Y18950
X94200Y18950
X92800Y18950
X93400Y17750
X94900Y17750
X96300Y17750
X97800Y17750
X98300Y20450
X98600Y18950
X99700Y17750
X94200Y21950
X95600Y21950
X97000Y21950
X103500Y23150
X103700Y17950
X92800Y21950
X94200Y20450
X92800Y20450
X99200Y23050
X98300Y21950
X32300Y8850
X32350Y2900
X40550Y46450
X39650Y46450
X38750Y46450
X37850Y46450
X36950Y46450
X36050Y46450
X47650Y39600
X48600Y39600
X49550Y39600
X50500Y39600
X50500Y40500
X49550Y40500
X48600Y40500
X47650Y40500
X47650Y44150
X48600Y44150
X49550Y44150
X50500Y44150
X50500Y45100
X49550Y45100
X48600Y45100
X47650Y45100
T7
X51750Y12100
X50850Y12100
X51800Y9500
X51800Y8750
X50850Y11350
X51750Y11350
X52650Y11350
X52650Y12100
X52650Y12850
X51750Y12850
X50850Y12850
X51800Y10250
X41250Y5000
X40500Y5000
X39750Y5000
X39000Y5000
X38250Y5000
X37500Y5000
X36750Y5000
X49650Y5750
X50400Y5750
X51150Y5750
X51900Y5750
X52650Y5750
X52650Y5000
X51900Y5000
X51150Y5000
X50400Y5000
X49650Y5000
X30850Y43550
X26400Y49250
X72950Y30950
X78700Y19600
X42000Y35350
X41200Y35350
X40400Y35350
X39600Y35350
X38850Y35350
X38100Y35350
X37350Y35350
X37350Y36150
X38100Y36150
X38850Y36150
X3900Y31950
X3250Y14050
X39600Y36150
X40400Y36150
X41200Y36150
X42000Y36150
X42000Y36900
X41200Y36900
X40400Y36900
X39600Y36900
X38850Y36900
X38100Y36900
X37350Y36900
X62850Y13300
X62150Y13300
X61450Y13300
X60750Y13300
X60050Y13300
X63650Y13250
X62150Y14050
X61450Y14050
X60750Y14050
X60050Y14050
X35050Y19500
X35050Y18750
X35050Y18000
X35850Y19500
X35850Y18750
X35850Y18000
X36650Y19500
X36650Y18750
X36650Y18000
X37450Y18000
X37450Y18750
X37450Y19500
X38250Y19500
X38250Y18750
X38250Y18000
X40650Y18000
X39850Y18000
X39050Y18000
X39050Y18750
X39850Y18750
X40650Y18750
X39050Y19500
X39850Y19500
X40650Y19500
X44450Y19300
X43650Y19300
X42850Y19300
X42050Y19300
X42050Y18500
X42850Y18500
X43650Y18500
X44450Y18500
X44450Y17700
X43650Y17700
X42850Y17700
X42050Y17700
X8600Y31900
X24150Y42400
X28850Y41800
X8600Y17500
X3700Y8950
X7400Y30750
X3500Y11550
X6800Y30150
X11500Y26500
X9250Y16100
X7400Y21300
X5650Y21200
X7250Y34150
X6850Y39650
X7450Y40900
X7800Y34750
X32300Y12900
X33100Y4350
M30